<svg width="96" height="96" viewBox="0 0 96 96" fill="none" xmlns="http://www.w3.org/2000/svg">
<path d="M0 48C0 21.4903 21.4903 0 48 0C74.5097 0 96 21.4903 96 48C96 74.5097 74.5097 96 48 96C21.4903 96 0 74.5097 0 48Z" fill="#152E75" fill-opacity="0.67"/>
<path d="M40 28V36" stroke="white" stroke-width="3" stroke-linecap="round" stroke-linejoin="round"/>
<path d="M56 28V36" stroke="white" stroke-width="3" stroke-linecap="round" stroke-linejoin="round"/>
<path d="M62 32H34C31.7909 32 30 33.7909 30 36V64C30 66.2091 31.7909 68 34 68H62C64.2091 68 66 66.2091 66 64V36C66 33.7909 64.2091 32 62 32Z" stroke="white" stroke-width="3" stroke-linecap="round" stroke-linejoin="round"/>
<path d="M30 44H66" stroke="white" stroke-width="3" stroke-linecap="round" stroke-linejoin="round"/>
<path d="M52 52L44 60" stroke="white" stroke-width="3" stroke-linecap="round" stroke-linejoin="round"/>
<path d="M44 52L52 60" stroke="white" stroke-width="3" stroke-linecap="round" stroke-linejoin="round"/>
</svg>
