<svg width="24" height="24" viewBox="0 0 24 24" fill="none" xmlns="http://www.w3.org/2000/svg">
<mask id="mask0_2655_3687" style="mask-type:alpha" maskUnits="userSpaceOnUse" x="0" y="0" width="24" height="24">
<rect width="24" height="24" fill="#D9D9D9"/>
</mask>
<g mask="url(#mask0_2655_3687)">
<path d="M7.5 20C6.53333 20 5.70833 19.6583 5.025 18.975C4.34167 18.2917 4 17.4667 4 16.5C4 15.5333 4.34167 14.7083 5.025 14.025C5.70833 13.3417 6.53333 13 7.5 13H18.5C19.4667 13 20.2917 13.3417 20.975 14.025C21.6583 14.7083 22 15.5333 22 16.5C22 17.4667 21.6583 18.2917 20.975 18.975C20.2917 19.6583 19.4667 20 18.5 20H7.5ZM5.5 11C4.53333 11 3.70833 10.6583 3.025 9.975C2.34167 9.29167 2 8.46667 2 7.5C2 6.53333 2.34167 5.70833 3.025 5.025C3.70833 4.34167 4.53333 4 5.5 4H16.5C17.4667 4 18.2917 4.34167 18.975 5.025C19.6583 5.70833 20 6.53333 20 7.5C20 8.46667 19.6583 9.29167 18.975 9.975C18.2917 10.6583 17.4667 11 16.5 11H5.5Z" fill="white"/>
</g>
</svg>
