<svg width="16" height="16" viewBox="0 0 16 16" fill="none" xmlns="http://www.w3.org/2000/svg">
<path id="Vector" d="M8.92952 15.1162C8.50286 15.1924 8.06857 15.2381 7.61905 15.2381C3.42857 15.2381 0 11.8095 0 7.61905C0 3.42857 3.42857 0 7.61905 0C11.8095 0 15.2381 3.42857 15.2381 7.61905C15.2381 8.06857 15.1924 8.50286 15.1162 8.92952C14.4762 8.57905 13.7371 8.38095 12.9524 8.38095C11.9924 8.38095 11.101 8.6781 10.3619 9.18857L8 7.77143V3.80952H6.85714V8.38095L9.47048 9.98857C8.79238 10.7886 8.38095 11.8095 8.38095 12.9524C8.38095 13.7371 8.57905 14.4762 8.92952 15.1162ZM12.1905 9.90476V12.1905H9.90476V13.7143H12.1905V16H13.7143V13.7143H16V12.1905H13.7143V9.90476H12.1905Z" fill="#1C2D5F"/>
</svg>
