<svg width="19" height="18" viewBox="0 0 19 18" fill="none" xmlns="http://www.w3.org/2000/svg">
<path d="M2.76172 18C2.21172 18 1.74089 17.8042 1.34922 17.4125C0.957552 17.0208 0.761719 16.55 0.761719 16V2C0.761719 1.45 0.957552 0.979167 1.34922 0.5875C1.74089 0.195833 2.21172 0 2.76172 0H16.7617C17.3117 0 17.7826 0.195833 18.1742 0.5875C18.5659 0.979167 18.7617 1.45 18.7617 2V16C18.7617 16.55 18.5659 17.0208 18.1742 17.4125C17.7826 17.8042 17.3117 18 16.7617 18H2.76172ZM12.9117 16H15.0367L16.7617 14.275V13H15.9117L12.9117 16ZM5.41172 11L8.43672 8L10.4367 10L15.5117 4.9L14.1117 3.5L10.4367 7.175L8.43672 5.175L4.01172 9.6L5.41172 11ZM2.76172 16H3.61172L6.61172 13H4.48672L2.76172 14.725V16ZM11.2867 16L14.2867 13H12.1617L9.16172 16H11.2867ZM7.56172 16L10.5617 13H8.43672L5.43672 16H7.56172Z" fill="#4B5563"/>
</svg>
