<svg width="19" height="18" viewBox="0 0 19 18" fill="none" xmlns="http://www.w3.org/2000/svg">
<path d="M9.69141 18C7.39141 18 5.38724 17.2375 3.67891 15.7125C1.97057 14.1875 0.991406 12.2833 0.741406 10H2.79141C3.02474 11.7333 3.79557 13.1667 5.10391 14.3C6.41224 15.4333 7.94141 16 9.69141 16C11.6414 16 13.2956 15.3208 14.6539 13.9625C16.0122 12.6042 16.6914 10.95 16.6914 9C16.6914 7.05 16.0122 5.39583 14.6539 4.0375C13.2956 2.67917 11.6414 2 9.69141 2C8.54141 2 7.46641 2.26667 6.46641 2.8C5.46641 3.33333 4.62474 4.06667 3.94141 5H6.69141V7H0.691406V1H2.69141V3.35C3.54141 2.28333 4.57891 1.45833 5.80391 0.875C7.02891 0.291667 8.32474 0 9.69141 0C10.9414 0 12.1122 0.2375 13.2039 0.7125C14.2956 1.1875 15.2456 1.82917 16.0539 2.6375C16.8622 3.44583 17.5039 4.39583 17.9789 5.4875C18.4539 6.57917 18.6914 7.75 18.6914 9C18.6914 10.25 18.4539 11.4208 17.9789 12.5125C17.5039 13.6042 16.8622 14.5542 16.0539 15.3625C15.2456 16.1708 14.2956 16.8125 13.2039 17.2875C12.1122 17.7625 10.9414 18 9.69141 18ZM12.4914 13.2L8.69141 9.4V4H10.6914V8.6L13.8914 11.8L12.4914 13.2Z" fill="#4B5563"/>
</svg>
