<svg width="27" height="27" viewBox="0 0 27 27" fill="none" xmlns="http://www.w3.org/2000/svg">
<rect x="0.3375" y="0.3375" width="26.325" height="26.325" rx="2.3625" fill="#F39A4C"/>
<rect x="0.3375" y="0.3375" width="26.325" height="26.325" rx="2.3625" stroke="#D9D9D0" stroke-width="0.675"/>
<path d="M12.69 8.03223C12.0217 8.03223 11.475 8.57898 11.475 9.24723V14.1072C11.475 14.7755 12.0217 15.3222 12.69 15.3222C13.3582 15.3222 13.905 14.7755 13.905 14.1072V9.24723C13.905 8.57898 13.3582 8.03223 12.69 8.03223Z" fill="white"/>
<path d="M12.69 18.9672C13.361 18.9672 13.905 18.4233 13.905 17.7522C13.905 17.0812 13.361 16.5372 12.69 16.5372C12.0189 16.5372 11.475 17.0812 11.475 17.7522C11.475 18.4233 12.0189 18.9672 12.69 18.9672Z" fill="white"/>
</svg>
