<svg width="40" height="38" viewBox="0 0 40 38" fill="none" xmlns="http://www.w3.org/2000/svg">
<g id="Border">
<mask id="path-1-inside-1_1702_4150" fill="white">
<path d="M0 0.328125H40V37.3281H0V0.328125Z"/>
</mask>
<path d="M40 0.328125H40.6667V-0.338542H40V0.328125ZM40 37.3281V37.9948H40.6667V37.3281H40ZM0 0.994792H40V-0.338542H0V0.994792ZM39.3333 0.328125V37.3281H40.6667V0.328125H39.3333ZM40 36.6615H0V37.9948H40V36.6615Z" fill="#E6EAF2" mask="url(#path-1-inside-1_1702_4150)"/>
<g id="colors">
<mask id="mask0_1702_4150" style="mask-type:alpha" maskUnits="userSpaceOnUse" x="8" y="6" width="24" height="25">
<rect id="Bounding box" x="8" y="6.5" width="24" height="24" fill="#D9D9D9"/>
</mask>
<g mask="url(#mask0_1702_4150)">
<path id="colors_2" d="M16.65 27L10.5 20.85C10.3333 20.6833 10.2083 20.5 10.125 20.3C10.0417 20.1 10 19.8917 10 19.675C10 19.4583 10.0417 19.25 10.125 19.05C10.2083 18.85 10.3333 18.6667 10.5 18.5L16.25 12.775L13.6 10.125L15.15 8.5L25.15 18.5C25.3167 18.6667 25.4375 18.85 25.5125 19.05C25.5875 19.25 25.625 19.4583 25.625 19.675C25.625 19.8917 25.5875 20.1 25.5125 20.3C25.4375 20.5 25.3167 20.6833 25.15 20.85L19 27C18.8333 27.1667 18.65 27.2917 18.45 27.375C18.25 27.4583 18.0417 27.5 17.825 27.5C17.6083 27.5 17.4 27.4583 17.2 27.375C17 27.2917 16.8167 27.1667 16.65 27ZM17.825 14.35L12.475 19.7H23.175L17.825 14.35ZM27.8 27.5C27.2 27.5 26.6917 27.2875 26.275 26.8625C25.8583 26.4375 25.65 25.9167 25.65 25.3C25.65 24.85 25.7625 24.425 25.9875 24.025C26.2125 23.625 26.4667 23.2333 26.75 22.85L27.8 21.5L28.9 22.85C29.1667 23.2333 29.4167 23.625 29.65 24.025C29.8833 24.425 30 24.85 30 25.3C30 25.9167 29.7833 26.4375 29.35 26.8625C28.9167 27.2875 28.4 27.5 27.8 27.5Z" fill="#0A1B39"/>
</g>
</g>
</g>
</svg>
