<svg width="15" height="16" viewBox="0 0 15 16" fill="none" xmlns="http://www.w3.org/2000/svg">
<path d="M0.410156 14.5V6H14.4102V14.5C14.4102 15.3438 13.7227 16 12.9102 16H1.91016C1.06641 16 0.410156 15.3438 0.410156 14.5ZM10.4102 8.375V9.625C10.4102 9.84375 10.5664 10 10.7852 10H12.0352C12.2227 10 12.4102 9.84375 12.4102 9.625V8.375C12.4102 8.1875 12.2227 8 12.0352 8H10.7852C10.5664 8 10.4102 8.1875 10.4102 8.375ZM10.4102 12.375V13.625C10.4102 13.8438 10.5664 14 10.7852 14H12.0352C12.2227 14 12.4102 13.8438 12.4102 13.625V12.375C12.4102 12.1875 12.2227 12 12.0352 12H10.7852C10.5664 12 10.4102 12.1875 10.4102 12.375ZM6.41016 8.375V9.625C6.41016 9.84375 6.56641 10 6.78516 10H8.03516C8.22266 10 8.41016 9.84375 8.41016 9.625V8.375C8.41016 8.1875 8.22266 8 8.03516 8H6.78516C6.56641 8 6.41016 8.1875 6.41016 8.375ZM6.41016 12.375V13.625C6.41016 13.8438 6.56641 14 6.78516 14H8.03516C8.22266 14 8.41016 13.8438 8.41016 13.625V12.375C8.41016 12.1875 8.22266 12 8.03516 12H6.78516C6.56641 12 6.41016 12.1875 6.41016 12.375ZM2.41016 8.375V9.625C2.41016 9.84375 2.56641 10 2.78516 10H4.03516C4.22266 10 4.41016 9.84375 4.41016 9.625V8.375C4.41016 8.1875 4.22266 8 4.03516 8H2.78516C2.56641 8 2.41016 8.1875 2.41016 8.375ZM2.41016 12.375V13.625C2.41016 13.8438 2.56641 14 2.78516 14H4.03516C4.22266 14 4.41016 13.8438 4.41016 13.625V12.375C4.41016 12.1875 4.22266 12 4.03516 12H2.78516C2.56641 12 2.41016 12.1875 2.41016 12.375ZM12.9102 2C13.7227 2 14.4102 2.6875 14.4102 3.5V5H0.410156V3.5C0.410156 2.6875 1.06641 2 1.91016 2H3.41016V0.5C3.41016 0.25 3.62891 0 3.91016 0H4.91016C5.16016 0 5.41016 0.25 5.41016 0.5V2H9.41016V0.5C9.41016 0.25 9.62891 0 9.91016 0H10.9102C11.1602 0 11.4102 0.25 11.4102 0.5V2H12.9102Z" fill="#9CA3AF"/>
</svg>
