<?xml version="1.0" encoding="UTF-8"?>
<svg width="42px" height="42px" viewBox="0 0 42 42" version="1.1" xmlns="http://www.w3.org/2000/svg" xmlns:xlink="http://www.w3.org/1999/xlink">
    <title>Group 21 Copy</title>
    <g id="V9" stroke="none" stroke-width="1" fill="none" fill-rule="evenodd">
        <g id="Group-21-Copy">
            <circle id="Oval" fill="#121C3C" cx="21" cy="21" r="21"></circle>
            <g id="logo-(5)" transform="translate(10, 10)" fill-rule="nonzero">
                <path d="M1.29411765,14.6666667 L3.10588235,14.6666667 C3.82060379,14.6666667 4.4,15.2460629 4.4,15.9607843 L4.4,20.7058824 C4.4,21.4206038 3.82060379,22 3.10588235,22 L1.29411765,22 C0.579396206,22 0,21.4206038 0,20.7058824 L0,15.9607843 C0,15.2460629 0.579396206,14.6666667 1.29411765,14.6666667 Z" id="Rectangle" fill="#E54D40"></path>
                <path d="M1.29411765,14.6666667 L3.10588235,14.6666667 C3.82060379,14.6666667 4.4,15.2460629 4.4,15.9607843 L4.4,20.7058824 C4.4,21.4206038 3.82060379,22 3.10588235,22 L1.29411765,22 C0.579396206,22 0,21.4206038 0,20.7058824 L0,15.9607843 C0,15.2460629 0.579396206,14.6666667 1.29411765,14.6666667 Z" id="Rectangle-Copy-32" fill="#E54D40"></path>
                <path d="M7.16078431,9.77777778 L8.97254902,9.77777778 C9.68727046,9.77777778 10.2666667,10.357174 10.2666667,11.0718954 L10.2666667,14.8392157 C10.2666667,15.5539371 9.68727046,16.1333333 8.97254902,16.1333333 L7.16078431,16.1333333 C6.44606287,16.1333333 5.86666667,15.5539371 5.86666667,14.8392157 L5.86666667,11.0718954 C5.86666667,10.357174 6.44606287,9.77777778 7.16078431,9.77777778 Z" id="Rectangle-Copy-2" fill="#F8BE26"></path>
                <path d="M7.16078431,9.77777778 L8.97254902,9.77777778 C9.68727046,9.77777778 10.2666667,10.357174 10.2666667,11.0718954 L10.2666667,14.8392157 C10.2666667,15.5539371 9.68727046,16.1333333 8.97254902,16.1333333 L7.16078431,16.1333333 C6.44606287,16.1333333 5.86666667,15.5539371 5.86666667,14.8392157 L5.86666667,11.0718954 C5.86666667,10.357174 6.44606287,9.77777778 7.16078431,9.77777778 Z" id="Rectangle-Copy-2-Copy" fill="#F8BE26"></path>
                <path d="M13.027451,15.6444444 L14.8392157,15.6444444 C15.5539371,15.6444444 16.1333333,16.2238407 16.1333333,16.9385621 L16.1333333,20.7058824 C16.1333333,21.4206038 15.5539371,22 14.8392157,22 L13.027451,22 C12.3127295,22 11.7333333,21.4206038 11.7333333,20.7058824 L11.7333333,16.9385621 C11.7333333,16.2238407 12.3127295,15.6444444 13.027451,15.6444444 Z" id="Rectangle-Copy-3" fill="#3EA958"></path>
                <path d="M13.027451,15.6444444 L14.8392157,15.6444444 C15.5539371,15.6444444 16.1333333,16.2238407 16.1333333,16.9385621 L16.1333333,20.7058824 C16.1333333,21.4206038 15.5539371,22 14.8392157,22 L13.027451,22 C12.3127295,22 11.7333333,21.4206038 11.7333333,20.7058824 L11.7333333,16.9385621 C11.7333333,16.2238407 12.3127295,15.6444444 13.027451,15.6444444 Z" id="Rectangle-Copy-3-Copy" fill="#3EA958"></path>
                <path d="M7.16078431,17.6 L8.97254902,17.6 C9.68727046,17.6 10.2666667,18.1793962 10.2666667,18.8941176 L10.2666667,20.7058824 C10.2666667,21.4206038 9.68727046,22 8.97254902,22 L7.16078431,22 C6.44606287,22 5.86666667,21.4206038 5.86666667,20.7058824 L5.86666667,18.8941176 C5.86666667,18.1793962 6.44606287,17.6 7.16078431,17.6 Z" id="Rectangle-Copy-4" fill="#F8BE26"></path>
                <path d="M7.16078431,17.6 L8.97254902,17.6 C9.68727046,17.6 10.2666667,18.1793962 10.2666667,18.8941176 L10.2666667,20.7058824 C10.2666667,21.4206038 9.68727046,22 8.97254902,22 L7.16078431,22 C6.44606287,22 5.86666667,21.4206038 5.86666667,20.7058824 L5.86666667,18.8941176 C5.86666667,18.1793962 6.44606287,17.6 7.16078431,17.6 Z" id="Rectangle-Copy-4-Copy" fill="#F8BE26"></path>
                <path d="M13.027451,3.42222222 L14.8392157,3.42222222 C15.5539371,3.42222222 16.1333333,4.00161843 16.1333333,4.71633987 L16.1333333,6.52810458 C16.1333333,7.24282602 15.5539371,7.82222222 14.8392157,7.82222222 L13.027451,7.82222222 C12.3127295,7.82222222 11.7333333,7.24282602 11.7333333,6.52810458 L11.7333333,4.71633987 C11.7333333,4.00161843 12.3127295,3.42222222 13.027451,3.42222222 Z" id="Rectangle-Copy-5" fill="#3EA958"></path>
                <path d="M13.027451,3.42222222 L14.8392157,3.42222222 C15.5539371,3.42222222 16.1333333,4.00161843 16.1333333,4.71633987 L16.1333333,6.52810458 C16.1333333,7.24282602 15.5539371,7.82222222 14.8392157,7.82222222 L13.027451,7.82222222 C12.3127295,7.82222222 11.7333333,7.24282602 11.7333333,6.52810458 L11.7333333,4.71633987 C11.7333333,4.00161843 12.3127295,3.42222222 13.027451,3.42222222 Z" id="Rectangle-Copy-5-Copy-5" fill="#3EA958"></path>
                <path d="M18.8941176,0 L20.7058824,0 C21.4206038,0 22,0.579396206 22,1.29411765 L22,6.52810458 C22,7.24282602 21.4206038,7.82222222 20.7058824,7.82222222 L18.8941176,7.82222222 C18.1793962,7.82222222 17.6,7.24282602 17.6,6.52810458 L17.6,1.29411765 C17.6,0.579396206 18.1793962,0 18.8941176,0 Z" id="Rectangle-Copy-5-Copy-2" fill="#4C89EE"></path>
                <path d="M18.8941176,0 L20.7058824,0 C21.4206038,0 22,0.579396206 22,1.29411765 L22,6.52810458 C22,7.24282602 21.4206038,7.82222222 20.7058824,7.82222222 L18.8941176,7.82222222 C18.1793962,7.82222222 17.6,7.24282602 17.6,6.52810458 L17.6,1.29411765 C17.6,0.579396206 18.1793962,0 18.8941176,0 Z" id="Rectangle-Copy-5-Copy-6" fill="#4C89EE"></path>
                <path d="M18.8941176,9.28888889 L20.7058824,9.28888889 C21.4206038,9.28888889 22,9.86828509 22,10.5830065 L22,14.8392157 C22,15.5539371 21.4206038,16.1333333 20.7058824,16.1333333 L18.8941176,16.1333333 C18.1793962,16.1333333 17.6,15.5539371 17.6,14.8392157 L17.6,10.5830065 C17.6,9.86828509 18.1793962,9.28888889 18.8941176,9.28888889 Z" id="Rectangle-Copy-5-Copy-3" fill="#4C89EE"></path>
                <path d="M18.8941176,9.28888889 L20.7058824,9.28888889 C21.4206038,9.28888889 22,9.86828509 22,10.5830065 L22,14.8392157 C22,15.5539371 21.4206038,16.1333333 20.7058824,16.1333333 L18.8941176,16.1333333 C18.1793962,16.1333333 17.6,15.5539371 17.6,14.8392157 L17.6,10.5830065 C17.6,9.86828509 18.1793962,9.28888889 18.8941176,9.28888889 Z" id="Rectangle-Copy-5-Copy-7" fill="#4C89EE"></path>
                <path d="M18.8941176,17.6 L20.7058824,17.6 C21.4206038,17.6 22,18.1793962 22,18.8941176 L22,20.7058824 C22,21.4206038 21.4206038,22 20.7058824,22 L18.8941176,22 C18.1793962,22 17.6,21.4206038 17.6,20.7058824 L17.6,18.8941176 C17.6,18.1793962 18.1793962,17.6 18.8941176,17.6 Z" id="Rectangle-Copy-5-Copy-4" fill="#4C89EE"></path>
                <path d="M18.8941176,17.6 L20.7058824,17.6 C21.4206038,17.6 22,18.1793962 22,18.8941176 L22,20.7058824 C22,21.4206038 21.4206038,22 20.7058824,22 L18.8941176,22 C18.1793962,22 17.6,21.4206038 17.6,20.7058824 L17.6,18.8941176 C17.6,18.1793962 18.1793962,17.6 18.8941176,17.6 Z" id="Rectangle-Copy-5-Copy-8" fill="#4C89EE"></path>
                <path d="M13.027451,9.28888889 L14.8392157,9.28888889 C15.5539371,9.28888889 16.1333333,9.86828509 16.1333333,10.5830065 L16.1333333,12.8836601 C16.1333333,13.5983816 15.5539371,14.1777778 14.8392157,14.1777778 L13.027451,14.1777778 C12.3127295,14.1777778 11.7333333,13.5983816 11.7333333,12.8836601 L11.7333333,10.5830065 C11.7333333,9.86828509 12.3127295,9.28888889 13.027451,9.28888889 Z" id="Rectangle-Copy-5-Copy" fill="#3EA958"></path>
                <path d="M13.027451,9.28888889 L14.8392157,9.28888889 C15.5539371,9.28888889 16.1333333,9.86828509 16.1333333,10.5830065 L16.1333333,12.8836601 C16.1333333,13.5983816 15.5539371,14.1777778 14.8392157,14.1777778 L13.027451,14.1777778 C12.3127295,14.1777778 11.7333333,13.5983816 11.7333333,12.8836601 L11.7333333,10.5830065 C11.7333333,9.86828509 12.3127295,9.28888889 13.027451,9.28888889 Z" id="Rectangle-Copy-5-Copy-9" fill="#3EA958"></path>
            </g>
        </g>
    </g>
</svg>