<svg width="134" height="24" viewBox="0 0 134 24" fill="none" xmlns="http://www.w3.org/2000/svg">
<path d="M7.525 19.25C6.39167 19.25 5.38333 19.1083 4.5 18.825C3.61667 18.525 2.89167 18.0833 2.325 17.5C1.75833 16.9167 1.36667 16.2083 1.15 15.375C0.933333 14.525 0.916667 13.5583 1.1 12.475C1.21667 11.7917 1.35833 11.0583 1.525 10.275C1.70833 9.49167 1.88333 8.74167 2.05 8.025C2.41667 6.59167 2.96667 5.375 3.7 4.375C4.45 3.35833 5.4 2.58333 6.55 2.05C7.71667 1.51667 9.09167 1.25 10.675 1.25C11.7583 1.25 12.7417 1.39167 13.625 1.675C14.525 1.94167 15.275 2.34167 15.875 2.875C16.4917 3.39167 16.925 4.01667 17.175 4.75C17.4417 5.46667 17.4917 6.275 17.325 7.175C17.3083 7.325 17.2417 7.45 17.125 7.55C17.025 7.65 16.9 7.7 16.75 7.7H13.85C13.65 7.7 13.4917 7.65 13.375 7.55C13.275 7.45 13.2167 7.28333 13.2 7.05C13.25 6.1 13.0083 5.43333 12.475 5.05C11.9583 4.66667 11.2667 4.475 10.4 4.475C9.36667 4.475 8.475 4.75833 7.725 5.325C6.975 5.89167 6.44167 6.83333 6.125 8.15C5.775 9.51667 5.475 10.9167 5.225 12.35C4.99167 13.6667 5.10833 14.6083 5.575 15.175C6.04167 15.7417 6.78333 16.025 7.8 16.025C8.66667 16.025 9.44167 15.8417 10.125 15.475C10.825 15.0917 11.3917 14.4167 11.825 13.45C11.9583 13.2 12.0833 13.0333 12.2 12.95C12.3333 12.85 12.5 12.8 12.7 12.8H15.575C15.725 12.8 15.8417 12.85 15.925 12.95C16.025 13.05 16.0583 13.175 16.025 13.325C15.7917 14.1917 15.4417 14.9917 14.975 15.725C14.5083 16.4417 13.9167 17.0667 13.2 17.6C12.5 18.1333 11.675 18.5417 10.725 18.825C9.79167 19.1083 8.725 19.25 7.525 19.25ZM18.2096 19C18.0262 19 17.8846 18.9417 17.7846 18.825C17.7012 18.7083 17.6762 18.5583 17.7096 18.375L21.1846 2.125C21.2179 1.94167 21.3012 1.79167 21.4346 1.675C21.5846 1.55833 21.7429 1.5 21.9096 1.5H24.7596C24.9262 1.5 25.0596 1.55833 25.1596 1.675C25.2596 1.79167 25.2929 1.94167 25.2596 2.125L21.7846 18.375C21.7512 18.5583 21.6596 18.7083 21.5096 18.825C21.3762 18.9417 21.2262 19 21.0596 19H18.2096ZM32.5732 19.25C31.5399 19.25 30.5816 19.1083 29.6982 18.825C28.8316 18.5417 28.0982 18.1167 27.4982 17.55C26.9149 16.9833 26.4982 16.275 26.2482 15.425C26.0149 14.575 25.9982 13.575 26.1982 12.425C26.3149 11.7083 26.4482 11 26.5982 10.3C26.7649 9.58333 26.9316 8.85833 27.0982 8.125C27.6482 5.875 28.6316 4.16667 30.0482 3C31.4816 1.83333 33.3732 1.25 35.7232 1.25C36.7566 1.25 37.7066 1.4 38.5732 1.7C39.4399 1.98333 40.1732 2.41667 40.7732 3C41.3732 3.58333 41.7899 4.3 42.0232 5.15C42.2732 6 42.2982 6.99167 42.0982 8.125C41.9649 8.85833 41.8232 9.58333 41.6732 10.3C41.5232 11 41.3566 11.7083 41.1732 12.425C40.6066 14.725 39.6149 16.4417 38.1982 17.575C36.7816 18.6917 34.9066 19.25 32.5732 19.25ZM32.8482 16.025C33.8482 16.025 34.7316 15.7333 35.4982 15.15C36.2649 14.55 36.7982 13.6 37.0982 12.3C37.2816 11.5667 37.4399 10.8833 37.5732 10.25C37.7232 9.6 37.8566 8.91667 37.9732 8.2C38.2232 6.9 38.1149 5.95833 37.6482 5.375C37.1982 4.775 36.4649 4.475 35.4482 4.475C34.4316 4.475 33.5482 4.775 32.7982 5.375C32.0482 5.95833 31.5149 6.9 31.1982 8.2C31.0149 8.91667 30.8566 9.6 30.7232 10.25C30.5899 10.8833 30.4566 11.5667 30.3232 12.3C30.0899 13.6 30.1899 14.55 30.6232 15.15C31.0732 15.7333 31.8149 16.025 32.8482 16.025ZM42.2764 23.75C42.093 23.75 41.9597 23.6917 41.8764 23.575C41.7764 23.4583 41.743 23.3083 41.7764 23.125L45.3014 6.625C45.3347 6.44167 45.418 6.29167 45.5514 6.175C45.7014 6.05833 45.8597 6 46.0264 6H48.4264C48.593 6 48.718 6.05833 48.8014 6.175C48.9014 6.29167 48.9347 6.44167 48.9014 6.625L48.7014 7.575C49.218 7.04167 49.7847 6.60833 50.4014 6.275C51.018 5.925 51.818 5.75 52.8014 5.75C53.6514 5.75 54.3764 5.89167 54.9764 6.175C55.593 6.44167 56.0764 6.84167 56.4264 7.375C56.793 7.89167 57.0347 8.51667 57.1514 9.25C57.268 9.96667 57.2514 10.7667 57.1014 11.65C57.0514 11.9667 56.993 12.25 56.9264 12.5C56.8764 12.75 56.8097 13.0333 56.7264 13.35C56.5097 14.2 56.218 14.9917 55.8514 15.725C55.4847 16.4417 55.0347 17.0667 54.5014 17.6C53.968 18.1167 53.3514 18.525 52.6514 18.825C51.968 19.1083 51.193 19.25 50.3264 19.25C49.4264 19.25 48.6764 19.1 48.0764 18.8C47.493 18.4833 47.0597 18.0583 46.7764 17.525L45.5764 23.125C45.543 23.3083 45.4514 23.4583 45.3014 23.575C45.168 23.6917 45.018 23.75 44.8514 23.75H42.2764ZM49.6264 16.25C50.2264 16.25 50.7347 16.1167 51.1514 15.85C51.5847 15.5667 51.9347 15.2 52.2014 14.75C52.4847 14.3 52.7097 13.8083 52.8764 13.275C52.9597 13.025 53.0264 12.7667 53.0764 12.5C53.1264 12.2333 53.168 11.975 53.2014 11.725C53.268 11.1917 53.268 10.7 53.2014 10.25C53.1514 9.8 52.9847 9.44167 52.7014 9.175C52.418 8.89167 51.9764 8.75 51.3764 8.75C50.7597 8.75 50.218 8.89167 49.7514 9.175C49.3014 9.45833 48.9347 9.81667 48.6514 10.25C48.368 10.6833 48.1597 11.15 48.0264 11.65C47.943 11.95 47.868 12.2583 47.8014 12.575C47.7347 12.8917 47.6764 13.2083 47.6264 13.525C47.543 13.9917 47.543 14.4333 47.6264 14.85C47.7264 15.25 47.9347 15.5833 48.2514 15.85C48.568 16.1167 49.0264 16.25 49.6264 16.25ZM64.4566 19C63.3233 19 62.415 18.8333 61.7316 18.5C61.0483 18.15 60.59 17.6167 60.3566 16.9C60.14 16.1833 60.14 15.2833 60.3566 14.2L61.4816 8.95H59.5316C59.3483 8.95 59.2066 8.89167 59.1066 8.775C59.0233 8.65833 58.9983 8.50833 59.0316 8.325L59.3816 6.625C59.415 6.44167 59.5066 6.29167 59.6566 6.175C59.8066 6.05833 59.965 6 60.1316 6H62.1066L62.9816 1.875C63.015 1.69167 63.0983 1.54167 63.2316 1.425C63.3816 1.30833 63.5483 1.25 63.7316 1.25H66.1816C66.3483 1.25 66.4816 1.30833 66.5816 1.425C66.6816 1.54167 66.715 1.69167 66.6816 1.875L65.7816 6H68.9066C69.09 6 69.2233 6.05833 69.3066 6.175C69.39 6.29167 69.415 6.44167 69.3816 6.625L69.0316 8.325C68.9983 8.50833 68.9066 8.65833 68.7566 8.775C68.6233 8.89167 68.465 8.95 68.2816 8.95H65.1566L64.1066 13.9C64.0233 14.3167 63.9733 14.6833 63.9566 15C63.9566 15.3 64.04 15.5333 64.2066 15.7C64.39 15.85 64.6983 15.925 65.1316 15.925H67.0316C67.1983 15.925 67.3233 15.9833 67.4066 16.1C67.5066 16.2167 67.54 16.3583 67.5066 16.525L67.1066 18.375C67.0733 18.5583 66.99 18.7083 66.8566 18.825C66.7233 18.9417 66.565 19 66.3816 19H64.4566ZM69.7412 19C69.5745 19 69.4412 18.9417 69.3412 18.825C69.2412 18.7083 69.2079 18.5583 69.2412 18.375L71.7412 6.625C71.7745 6.44167 71.8662 6.29167 72.0162 6.175C72.1662 6.05833 72.3245 6 72.4912 6H74.9912C75.1745 6 75.3079 6.05833 75.3912 6.175C75.4745 6.29167 75.4995 6.44167 75.4662 6.625L72.9662 18.375C72.9329 18.5583 72.8495 18.7083 72.7162 18.825C72.5829 18.9417 72.4245 19 72.2412 19H69.7412ZM72.8662 4C72.6829 4 72.5412 3.94167 72.4412 3.825C72.3579 3.70833 72.3329 3.55833 72.3662 3.375L72.7912 1.375C72.8245 1.19167 72.9079 1.04167 73.0412 0.924999C73.1912 0.791666 73.3579 0.725 73.5412 0.725H76.1662C76.3495 0.725 76.4829 0.791666 76.5662 0.924999C76.6662 1.04167 76.6995 1.19167 76.6662 1.375L76.2162 3.375C76.1995 3.55833 76.1162 3.70833 75.9662 3.825C75.8162 3.94167 75.6579 4 75.4912 4H72.8662ZM76.626 19C76.4593 19 76.326 18.9417 76.226 18.825C76.126 18.7083 76.0926 18.5583 76.126 18.375L78.626 6.625C78.6593 6.44167 78.751 6.29167 78.901 6.175C79.051 6.05833 79.2093 6 79.376 6H81.701C81.8676 6 81.9926 6.05833 82.076 6.175C82.176 6.29167 82.2093 6.44167 82.176 6.625L82.001 7.475C82.301 7.15833 82.6176 6.875 82.951 6.625C83.301 6.35833 83.701 6.15 84.151 6C84.6176 5.83333 85.1593 5.75 85.776 5.75C86.7426 5.75 87.526 5.94167 88.126 6.325C88.7426 6.70833 89.1676 7.25 89.401 7.95C89.9176 7.3 90.5176 6.775 91.201 6.375C91.901 5.95833 92.7176 5.75 93.651 5.75C94.551 5.75 95.326 5.95 95.976 6.35C96.626 6.73333 97.0843 7.33333 97.351 8.15C97.6343 8.95 97.6426 9.98333 97.376 11.25L95.851 18.375C95.8176 18.5583 95.726 18.7083 95.576 18.825C95.4426 18.9417 95.2926 19 95.126 19H92.651C92.4843 19 92.351 18.9417 92.251 18.825C92.151 18.7083 92.1176 18.5583 92.151 18.375L93.651 11.45C93.7843 10.7667 93.801 10.2333 93.701 9.85C93.6176 9.45 93.4426 9.16667 93.176 9C92.9093 8.83333 92.5676 8.75 92.151 8.75C91.8176 8.75 91.4593 8.83333 91.076 9C90.6926 9.16667 90.3426 9.45 90.026 9.85C89.7093 10.2333 89.4843 10.7667 89.351 11.45L87.851 18.375C87.8176 18.5583 87.7343 18.7083 87.601 18.825C87.4676 18.9417 87.3093 19 87.126 19H84.676C84.4926 19 84.351 18.9417 84.251 18.825C84.1676 18.7083 84.1426 18.5583 84.176 18.375L85.651 11.45C85.801 10.7667 85.826 10.2333 85.726 9.85C85.626 9.45 85.4343 9.16667 85.151 9C84.8843 8.83333 84.5593 8.75 84.176 8.75C83.826 8.75 83.4593 8.84167 83.076 9.025C82.6926 9.19167 82.3426 9.46667 82.026 9.85C81.726 10.2333 81.501 10.7583 81.351 11.425L79.876 18.375C79.8426 18.5583 79.751 18.7083 79.601 18.825C79.4676 18.9417 79.3176 19 79.151 19H76.626ZM99.3555 19C99.1888 19 99.0555 18.9417 98.9555 18.825C98.8555 18.7083 98.8221 18.5583 98.8555 18.375L101.355 6.625C101.389 6.44167 101.48 6.29167 101.63 6.175C101.78 6.05833 101.939 6 102.105 6H104.605C104.789 6 104.922 6.05833 105.005 6.175C105.089 6.29167 105.114 6.44167 105.08 6.625L102.58 18.375C102.547 18.5583 102.464 18.7083 102.33 18.825C102.197 18.9417 102.039 19 101.855 19H99.3555ZM102.48 4C102.297 4 102.155 3.94167 102.055 3.825C101.972 3.70833 101.947 3.55833 101.98 3.375L102.405 1.375C102.439 1.19167 102.522 1.04167 102.655 0.924999C102.805 0.791666 102.972 0.725 103.155 0.725H105.78C105.964 0.725 106.097 0.791666 106.18 0.924999C106.28 1.04167 106.314 1.19167 106.28 1.375L105.83 3.375C105.814 3.55833 105.73 3.70833 105.58 3.825C105.43 3.94167 105.272 4 105.105 4H102.48ZM105.64 19C105.457 19 105.315 18.9417 105.215 18.825C105.115 18.7083 105.082 18.5583 105.115 18.375L105.49 16.7C105.524 16.55 105.574 16.425 105.64 16.325C105.707 16.2083 105.79 16.1083 105.89 16.025L113.515 8.9H107.965C107.799 8.9 107.665 8.84167 107.565 8.725C107.482 8.60833 107.457 8.46667 107.49 8.3L107.84 6.625C107.874 6.44167 107.957 6.29167 108.09 6.175C108.24 6.05833 108.407 6 108.59 6H118.34C118.524 6 118.657 6.05833 118.74 6.175C118.824 6.29167 118.849 6.44167 118.815 6.625L118.465 8.425C118.415 8.65833 118.282 8.86667 118.065 9.05L110.59 16.1H116.715C116.899 16.1 117.032 16.1583 117.115 16.275C117.215 16.3917 117.24 16.5333 117.19 16.7L116.84 18.375C116.807 18.5583 116.715 18.7083 116.565 18.825C116.432 18.9417 116.282 19 116.115 19H105.64ZM125.07 19.25C123.803 19.25 122.745 19.0167 121.895 18.55C121.061 18.0667 120.486 17.3583 120.17 16.425C119.853 15.4917 119.811 14.35 120.045 13C120.078 12.8667 120.111 12.6917 120.145 12.475C120.195 12.2417 120.245 12.0583 120.295 11.925C120.628 10.6417 121.145 9.54167 121.845 8.625C122.561 7.69167 123.436 6.98333 124.47 6.5C125.52 6 126.67 5.75 127.92 5.75C129.32 5.75 130.42 6.04167 131.22 6.625C132.036 7.19167 132.578 7.975 132.845 8.975C133.111 9.95833 133.111 11.0917 132.845 12.375L132.745 12.95C132.711 13.1167 132.62 13.2583 132.47 13.375C132.32 13.4917 132.153 13.55 131.97 13.55H123.82C123.82 13.5667 123.811 13.6 123.795 13.65C123.795 13.6833 123.786 13.7167 123.77 13.75C123.686 14.2833 123.686 14.775 123.77 15.225C123.853 15.6583 124.045 16.0083 124.345 16.275C124.661 16.5417 125.07 16.675 125.57 16.675C125.97 16.675 126.32 16.6167 126.62 16.5C126.92 16.3833 127.17 16.2417 127.37 16.075C127.586 15.9083 127.753 15.7667 127.87 15.65C128.053 15.4833 128.195 15.3833 128.295 15.35C128.395 15.3 128.545 15.275 128.745 15.275H131.345C131.511 15.275 131.636 15.325 131.72 15.425C131.803 15.5083 131.82 15.6333 131.77 15.8C131.703 16.0667 131.495 16.4 131.145 16.8C130.811 17.1833 130.353 17.5667 129.77 17.95C129.186 18.3167 128.495 18.625 127.695 18.875C126.911 19.125 126.036 19.25 125.07 19.25ZM124.32 11.275H129.22V11.225C129.37 10.625 129.386 10.1083 129.27 9.675C129.17 9.225 128.961 8.875 128.645 8.625C128.328 8.375 127.911 8.25 127.395 8.25C126.878 8.25 126.411 8.375 125.995 8.625C125.578 8.875 125.228 9.225 124.945 9.675C124.678 10.1083 124.47 10.625 124.32 11.225V11.275Z" fill="white"/>
</svg>
