<svg width="225" height="39" viewBox="0 0 225 39" fill="none" xmlns="http://www.w3.org/2000/svg">
<path d="M2.20362 25.3154H5.28852C6.50547 25.3154 7.49201 26.3155 7.49201 27.5491V35.7393C7.49201 36.9729 6.50547 37.973 5.28852 37.973H2.20362C0.986662 37.973 0.00012207 36.9729 0.00012207 35.7393V27.5491C0.00012207 26.3155 0.986662 25.3154 2.20362 25.3154Z" fill="#D24546"/>
<path d="M12.1929 38.5H15.2778C16.4947 38.5 17.4813 37.4999 17.4813 36.2663V29.7638C17.4813 28.5302 16.4947 27.5301 15.2778 27.5301H12.1929C10.9759 27.5301 9.98938 28.5302 9.98938 29.7638V36.2663C9.98938 37.4999 10.9759 38.5 12.1929 38.5Z" fill="#FCCE00"/>
<path d="M12.193 24.9985H15.2779C16.4949 24.9985 17.4814 23.9985 17.4814 22.7649V19.6377C17.4814 18.4041 16.4949 17.404 15.2779 17.404H12.193C10.976 17.404 9.9895 18.4041 9.9895 19.6377V22.7649C9.9895 23.9985 10.976 24.9985 12.193 24.9985Z" fill="#FCCE00"/>
<path d="M33.2118 37.9727H36.2967C37.5137 37.9727 38.5002 36.9726 38.5002 35.739V26.705C38.5002 25.4713 37.5137 24.4713 36.2967 24.4713H33.2118C31.9948 24.4713 31.0083 25.4713 31.0083 26.705V35.739C31.0083 36.9726 31.9948 37.9727 33.2118 37.9727Z" fill="#22BE48"/>
<path d="M33.2118 21.9395H36.2967C37.5137 21.9395 38.5002 20.9394 38.5002 19.7058V12.3594C38.5002 11.1258 37.5137 10.1258 36.2967 10.1258H33.2118C31.9948 10.1258 31.0083 11.1258 31.0083 12.3594V19.7058C31.0083 20.9394 31.9948 21.9395 33.2118 21.9395Z" fill="#22BE48"/>
<path d="M33.2118 7.59473H36.2967C37.5137 7.59473 38.5002 6.59467 38.5002 5.36104V2.23389C38.5002 1.00026 37.5137 0.000204563 36.2967 0.000204563H33.2118C31.9948 0.000204563 31.0083 1.00026 31.0083 2.23389V5.36104C31.0083 6.59467 31.9948 7.59473 33.2118 7.59473Z" fill="#22BE48"/>
<path d="M22.7023 16.877H25.7872C27.0041 16.877 27.9907 15.8769 27.9907 14.6433V8.14077C27.9907 6.90714 27.0041 5.90709 25.7872 5.90709H22.7023C21.4853 5.90709 20.4988 6.90714 20.4988 8.14077V14.6433C20.4988 15.8769 21.4853 16.877 22.7023 16.877Z" fill="#1469F7"/>
<path d="M22.7023 37.9727H25.7872C27.0041 37.9727 27.9907 36.9726 27.9907 35.739V32.6118C27.9907 31.3782 27.0041 30.3781 25.7872 30.3781H22.7023C21.4853 30.3781 20.4988 31.3782 20.4988 32.6118V35.739C20.4988 36.9726 21.4853 37.9727 22.7023 37.9727Z" fill="#1469F7"/>
<path d="M22.7023 27.8467H25.7872C27.0041 27.8467 27.9907 26.8466 27.9907 25.613V21.642C27.9907 20.4084 27.0041 19.4083 25.7872 19.4083H22.7023C21.4853 19.4083 20.4988 20.4084 20.4988 21.642V25.613C20.4988 26.8466 21.4853 27.8467 22.7023 27.8467Z" fill="#1469F7"/>
<path d="M57.6951 31.33C56.1991 31.33 54.8681 31.143 53.7021 30.769C52.5361 30.373 51.5791 29.79 50.8311 29.02C50.0831 28.25 49.5661 27.315 49.2801 26.215C48.9941 25.093 48.9721 23.817 49.2141 22.387C49.3681 21.485 49.5551 20.517 49.7751 19.483C50.0171 18.449 50.2481 17.459 50.4681 16.513C50.9521 14.621 51.6781 13.015 52.6461 11.695C53.6361 10.353 54.8901 9.33 56.4081 8.626C57.9481 7.922 59.7631 7.57 61.8531 7.57C63.2831 7.57 64.5811 7.757 65.7471 8.131C66.9351 8.483 67.9251 9.011 68.7171 9.715C69.5311 10.397 70.1031 11.222 70.4331 12.19C70.7851 13.136 70.8511 14.203 70.6311 15.391C70.6091 15.589 70.5211 15.754 70.3671 15.886C70.2351 16.018 70.0701 16.084 69.8721 16.084H66.0441C65.7801 16.084 65.5711 16.018 65.4171 15.886C65.2851 15.754 65.2081 15.534 65.1861 15.226C65.2521 13.972 64.9331 13.092 64.2291 12.586C63.5471 12.08 62.6341 11.827 61.4901 11.827C60.1261 11.827 58.9491 12.201 57.9591 12.949C56.9691 13.697 56.2651 14.94 55.8471 16.678C55.3851 18.482 54.9891 20.33 54.6591 22.222C54.3511 23.96 54.5051 25.203 55.1211 25.951C55.7371 26.699 56.7161 27.073 58.0581 27.073C59.2021 27.073 60.2251 26.831 61.1271 26.347C62.0511 25.841 62.7991 24.95 63.3711 23.674C63.5471 23.344 63.7121 23.124 63.8661 23.014C64.0421 22.882 64.2621 22.816 64.5261 22.816H68.3211C68.5191 22.816 68.6731 22.882 68.7831 23.014C68.9151 23.146 68.9591 23.311 68.9151 23.509C68.6071 24.653 68.1451 25.709 67.5291 26.677C66.9131 27.623 66.1321 28.448 65.1861 29.152C64.2621 29.856 63.1731 30.395 61.9191 30.769C60.6871 31.143 59.2791 31.33 57.6951 31.33ZM71.7987 31C71.5567 31 71.3697 30.923 71.2377 30.769C71.1277 30.615 71.0947 30.417 71.1387 30.175L75.7257 8.725C75.7697 8.483 75.8797 8.285 76.0557 8.131C76.2537 7.977 76.4627 7.9 76.6827 7.9H80.4447C80.6647 7.9 80.8407 7.977 80.9727 8.131C81.1047 8.285 81.1487 8.483 81.1047 8.725L76.5177 30.175C76.4737 30.417 76.3527 30.615 76.1547 30.769C75.9787 30.923 75.7807 31 75.5607 31H71.7987ZM90.7588 31.33C89.3948 31.33 88.1298 31.143 86.9638 30.769C85.8198 30.395 84.8518 29.834 84.0598 29.086C83.2898 28.338 82.7398 27.403 82.4098 26.281C82.1018 25.159 82.0798 23.839 82.3438 22.321C82.4978 21.375 82.6738 20.44 82.8718 19.516C83.0918 18.57 83.3118 17.613 83.5318 16.645C84.2578 13.675 85.5558 11.42 87.4258 9.88C89.3178 8.34 91.8148 7.57 94.9168 7.57C96.2808 7.57 97.5348 7.768 98.6788 8.164C99.8228 8.538 100.791 9.11 101.583 9.88C102.375 10.65 102.925 11.596 103.233 12.718C103.563 13.84 103.596 15.149 103.332 16.645C103.156 17.613 102.969 18.57 102.771 19.516C102.573 20.44 102.353 21.375 102.111 22.321C101.363 25.357 100.054 27.623 98.1838 29.119C96.3138 30.593 93.8388 31.33 90.7588 31.33ZM91.1218 27.073C92.4418 27.073 93.6078 26.688 94.6198 25.918C95.6318 25.126 96.3358 23.872 96.7318 22.156C96.9738 21.188 97.1828 20.286 97.3588 19.45C97.5568 18.592 97.7328 17.69 97.8868 16.744C98.2168 15.028 98.0738 13.785 97.4578 13.015C96.8638 12.223 95.8958 11.827 94.5538 11.827C93.2118 11.827 92.0458 12.223 91.0558 13.015C90.0658 13.785 89.3618 15.028 88.9438 16.744C88.7018 17.69 88.4928 18.592 88.3168 19.45C88.1408 20.286 87.9648 21.188 87.7888 22.156C87.4808 23.872 87.6128 25.126 88.1848 25.918C88.7788 26.688 89.7578 27.073 91.1218 27.073ZM103.567 37.27C103.325 37.27 103.149 37.193 103.039 37.039C102.907 36.885 102.863 36.687 102.907 36.445L107.56 14.665C107.604 14.423 107.714 14.225 107.89 14.071C108.088 13.917 108.297 13.84 108.517 13.84H111.685C111.905 13.84 112.07 13.917 112.18 14.071C112.312 14.225 112.356 14.423 112.312 14.665L112.048 15.919C112.73 15.215 113.478 14.643 114.292 14.203C115.106 13.741 116.162 13.51 117.46 13.51C118.582 13.51 119.539 13.697 120.331 14.071C121.145 14.423 121.783 14.951 122.245 15.655C122.729 16.337 123.048 17.162 123.202 18.13C123.356 19.076 123.334 20.132 123.136 21.298C123.07 21.716 122.993 22.09 122.905 22.42C122.839 22.75 122.751 23.124 122.641 23.542C122.355 24.664 121.97 25.709 121.486 26.677C121.002 27.623 120.408 28.448 119.704 29.152C119 29.834 118.186 30.373 117.262 30.769C116.36 31.143 115.337 31.33 114.193 31.33C113.005 31.33 112.015 31.132 111.223 30.736C110.453 30.318 109.881 29.757 109.507 29.053L107.923 36.445C107.879 36.687 107.758 36.885 107.56 37.039C107.384 37.193 107.186 37.27 106.966 37.27H103.567ZM113.269 27.37C114.061 27.37 114.732 27.194 115.282 26.842C115.854 26.468 116.316 25.984 116.668 25.39C117.042 24.796 117.339 24.147 117.559 23.443C117.669 23.113 117.757 22.772 117.823 22.42C117.889 22.068 117.944 21.727 117.988 21.397C118.076 20.693 118.076 20.044 117.988 19.45C117.922 18.856 117.702 18.383 117.328 18.031C116.954 17.657 116.371 17.47 115.579 17.47C114.765 17.47 114.05 17.657 113.434 18.031C112.84 18.405 112.356 18.878 111.982 19.45C111.608 20.022 111.333 20.638 111.157 21.298C111.047 21.694 110.948 22.101 110.86 22.519C110.772 22.937 110.695 23.355 110.629 23.773C110.519 24.389 110.519 24.972 110.629 25.522C110.761 26.05 111.036 26.49 111.454 26.842C111.872 27.194 112.477 27.37 113.269 27.37ZM132.845 31C131.349 31 130.15 30.78 129.248 30.34C128.346 29.878 127.741 29.174 127.433 28.228C127.147 27.282 127.147 26.094 127.433 24.664L128.918 17.734H126.344C126.102 17.734 125.915 17.657 125.783 17.503C125.673 17.349 125.64 17.151 125.684 16.909L126.146 14.665C126.19 14.423 126.311 14.225 126.509 14.071C126.707 13.917 126.916 13.84 127.136 13.84H129.743L130.898 8.395C130.942 8.153 131.052 7.955 131.228 7.801C131.426 7.647 131.646 7.57 131.888 7.57H135.122C135.342 7.57 135.518 7.647 135.65 7.801C135.782 7.955 135.826 8.153 135.782 8.395L134.594 13.84H138.719C138.961 13.84 139.137 13.917 139.247 14.071C139.357 14.225 139.39 14.423 139.346 14.665L138.884 16.909C138.84 17.151 138.719 17.349 138.521 17.503C138.345 17.657 138.136 17.734 137.894 17.734H133.769L132.383 24.268C132.273 24.818 132.207 25.302 132.185 25.72C132.185 26.116 132.295 26.424 132.515 26.644C132.757 26.842 133.164 26.941 133.736 26.941H136.244C136.464 26.941 136.629 27.018 136.739 27.172C136.871 27.326 136.915 27.513 136.871 27.733L136.343 30.175C136.299 30.417 136.189 30.615 136.013 30.769C135.837 30.923 135.628 31 135.386 31H132.845ZM139.82 31C139.6 31 139.424 30.923 139.292 30.769C139.16 30.615 139.116 30.417 139.16 30.175L142.46 14.665C142.504 14.423 142.625 14.225 142.823 14.071C143.021 13.917 143.23 13.84 143.45 13.84H146.75C146.992 13.84 147.168 13.917 147.278 14.071C147.388 14.225 147.421 14.423 147.377 14.665L144.077 30.175C144.033 30.417 143.923 30.615 143.747 30.769C143.571 30.923 143.362 31 143.12 31H139.82ZM143.945 11.2C143.703 11.2 143.516 11.123 143.384 10.969C143.274 10.815 143.241 10.617 143.285 10.375L143.846 7.735C143.89 7.493 144 7.295 144.176 7.141C144.374 6.965 144.594 6.877 144.836 6.877H148.301C148.543 6.877 148.719 6.965 148.829 7.141C148.961 7.295 149.005 7.493 148.961 7.735L148.367 10.375C148.345 10.617 148.235 10.815 148.037 10.969C147.839 11.123 147.63 11.2 147.41 11.2H143.945ZM148.908 31C148.688 31 148.512 30.923 148.38 30.769C148.248 30.615 148.204 30.417 148.248 30.175L151.548 14.665C151.592 14.423 151.713 14.225 151.911 14.071C152.109 13.917 152.318 13.84 152.538 13.84H155.607C155.827 13.84 155.992 13.917 156.102 14.071C156.234 14.225 156.278 14.423 156.234 14.665L156.003 15.787C156.399 15.369 156.817 14.995 157.257 14.665C157.719 14.313 158.247 14.038 158.841 13.84C159.457 13.62 160.172 13.51 160.986 13.51C162.262 13.51 163.296 13.763 164.088 14.269C164.902 14.775 165.463 15.49 165.771 16.414C166.453 15.556 167.245 14.863 168.147 14.335C169.071 13.785 170.149 13.51 171.381 13.51C172.569 13.51 173.592 13.774 174.45 14.302C175.308 14.808 175.913 15.6 176.265 16.678C176.639 17.734 176.65 19.098 176.298 20.77L174.285 30.175C174.241 30.417 174.12 30.615 173.922 30.769C173.746 30.923 173.548 31 173.328 31H170.061C169.841 31 169.665 30.923 169.533 30.769C169.401 30.615 169.357 30.417 169.401 30.175L171.381 21.034C171.557 20.132 171.579 19.428 171.447 18.922C171.337 18.394 171.106 18.02 170.754 17.8C170.402 17.58 169.951 17.47 169.401 17.47C168.961 17.47 168.488 17.58 167.982 17.8C167.476 18.02 167.014 18.394 166.596 18.922C166.178 19.428 165.881 20.132 165.705 21.034L163.725 30.175C163.681 30.417 163.571 30.615 163.395 30.769C163.219 30.923 163.01 31 162.768 31H159.534C159.292 31 159.105 30.923 158.973 30.769C158.863 30.615 158.83 30.417 158.874 30.175L160.821 21.034C161.019 20.132 161.052 19.428 160.92 18.922C160.788 18.394 160.535 18.02 160.161 17.8C159.809 17.58 159.38 17.47 158.874 17.47C158.412 17.47 157.928 17.591 157.422 17.833C156.916 18.053 156.454 18.416 156.036 18.922C155.64 19.428 155.343 20.121 155.145 21.001L153.198 30.175C153.154 30.417 153.033 30.615 152.835 30.769C152.659 30.923 152.461 31 152.241 31H148.908ZM178.911 31C178.691 31 178.515 30.923 178.383 30.769C178.251 30.615 178.207 30.417 178.251 30.175L181.551 14.665C181.595 14.423 181.716 14.225 181.914 14.071C182.112 13.917 182.321 13.84 182.541 13.84H185.841C186.083 13.84 186.259 13.917 186.369 14.071C186.479 14.225 186.512 14.423 186.468 14.665L183.168 30.175C183.124 30.417 183.014 30.615 182.838 30.769C182.662 30.923 182.453 31 182.211 31H178.911ZM183.036 11.2C182.794 11.2 182.607 11.123 182.475 10.969C182.365 10.815 182.332 10.617 182.376 10.375L182.937 7.735C182.981 7.493 183.091 7.295 183.267 7.141C183.465 6.965 183.685 6.877 183.927 6.877H187.392C187.634 6.877 187.81 6.965 187.92 7.141C188.052 7.295 188.096 7.493 188.052 7.735L187.458 10.375C187.436 10.617 187.326 10.815 187.128 10.969C186.93 11.123 186.721 11.2 186.501 11.2H183.036ZM187.207 31C186.965 31 186.778 30.923 186.646 30.769C186.514 30.615 186.47 30.417 186.514 30.175L187.009 27.964C187.053 27.766 187.119 27.601 187.207 27.469C187.295 27.315 187.405 27.183 187.537 27.073L197.602 17.668H190.276C190.056 17.668 189.88 17.591 189.748 17.437C189.638 17.283 189.605 17.096 189.649 16.876L190.111 14.665C190.155 14.423 190.265 14.225 190.441 14.071C190.639 13.917 190.859 13.84 191.101 13.84H203.971C204.213 13.84 204.389 13.917 204.499 14.071C204.609 14.225 204.642 14.423 204.598 14.665L204.136 17.041C204.07 17.349 203.894 17.624 203.608 17.866L193.741 27.172H201.826C202.068 27.172 202.244 27.249 202.354 27.403C202.486 27.557 202.519 27.744 202.453 27.964L201.991 30.175C201.947 30.417 201.826 30.615 201.628 30.769C201.452 30.923 201.254 31 201.034 31H187.207ZM212.854 31.33C211.182 31.33 209.785 31.022 208.663 30.406C207.563 29.768 206.804 28.833 206.386 27.601C205.968 26.369 205.913 24.862 206.221 23.08C206.265 22.904 206.309 22.673 206.353 22.387C206.419 22.079 206.485 21.837 206.551 21.661C206.991 19.967 207.673 18.515 208.597 17.305C209.543 16.073 210.698 15.138 212.062 14.5C213.448 13.84 214.966 13.51 216.616 13.51C218.464 13.51 219.916 13.895 220.972 14.665C222.05 15.413 222.765 16.447 223.117 17.767C223.469 19.065 223.469 20.561 223.117 22.255L222.985 23.014C222.941 23.234 222.82 23.421 222.622 23.575C222.424 23.729 222.204 23.806 221.962 23.806H211.204C211.204 23.828 211.193 23.872 211.171 23.938C211.171 23.982 211.16 24.026 211.138 24.07C211.028 24.774 211.028 25.423 211.138 26.017C211.248 26.589 211.501 27.051 211.897 27.403C212.315 27.755 212.854 27.931 213.514 27.931C214.042 27.931 214.504 27.854 214.9 27.7C215.296 27.546 215.626 27.359 215.89 27.139C216.176 26.919 216.396 26.732 216.55 26.578C216.792 26.358 216.979 26.226 217.111 26.182C217.243 26.116 217.441 26.083 217.705 26.083H221.137C221.357 26.083 221.522 26.149 221.632 26.281C221.742 26.391 221.764 26.556 221.698 26.776C221.61 27.128 221.335 27.568 220.873 28.096C220.433 28.602 219.828 29.108 219.058 29.614C218.288 30.098 217.375 30.505 216.319 30.835C215.285 31.165 214.13 31.33 212.854 31.33ZM211.864 20.803H218.332V20.737C218.53 19.945 218.552 19.263 218.398 18.691C218.266 18.097 217.991 17.635 217.573 17.305C217.155 16.975 216.605 16.81 215.923 16.81C215.241 16.81 214.625 16.975 214.075 17.305C213.525 17.635 213.063 18.097 212.689 18.691C212.337 19.263 212.062 19.945 211.864 20.737V20.803Z" fill="#333333"/>
</svg>
