<svg width="21" height="20" viewBox="0 0 21 20" fill="none" xmlns="http://www.w3.org/2000/svg">
<path d="M10.2109 20.0049C8.84427 20.0049 7.5526 19.7424 6.33594 19.2174C5.11927 18.6924 4.05677 17.9757 3.14844 17.0674C2.2401 16.159 1.52344 15.0965 0.998438 13.8799C0.473437 12.6632 0.210938 11.3715 0.210938 10.0049C0.210938 8.62155 0.481771 7.32155 1.02344 6.10488C1.5651 4.88822 2.29844 3.82988 3.22344 2.92988C4.14844 2.02988 5.2276 1.31738 6.46094 0.792383C7.69427 0.267383 9.01094 0.00488281 10.4109 0.00488281C11.7443 0.00488281 13.0026 0.234049 14.1859 0.692383C15.3693 1.15072 16.4068 1.78405 17.2984 2.59238C18.1901 3.40072 18.8984 4.35905 19.4234 5.46738C19.9484 6.57572 20.2109 7.77155 20.2109 9.05488C20.2109 10.9715 19.6276 12.4424 18.4609 13.4674C17.2943 14.4924 15.8776 15.0049 14.2109 15.0049H12.3609C12.2109 15.0049 12.1068 15.0465 12.0484 15.1299C11.9901 15.2132 11.9609 15.3049 11.9609 15.4049C11.9609 15.6049 12.0859 15.8924 12.3359 16.2674C12.5859 16.6424 12.7109 17.0716 12.7109 17.5549C12.7109 18.3882 12.4818 19.0049 12.0234 19.4049C11.5651 19.8049 10.9609 20.0049 10.2109 20.0049ZM4.71094 11.0049C5.14427 11.0049 5.5026 10.8632 5.78594 10.5799C6.06927 10.2965 6.21094 9.93822 6.21094 9.50488C6.21094 9.07155 6.06927 8.71322 5.78594 8.42988C5.5026 8.14655 5.14427 8.00488 4.71094 8.00488C4.2776 8.00488 3.91927 8.14655 3.63594 8.42988C3.3526 8.71322 3.21094 9.07155 3.21094 9.50488C3.21094 9.93822 3.3526 10.2965 3.63594 10.5799C3.91927 10.8632 4.2776 11.0049 4.71094 11.0049ZM7.71094 7.00488C8.14427 7.00488 8.5026 6.86322 8.78594 6.57988C9.06927 6.29655 9.21094 5.93822 9.21094 5.50488C9.21094 5.07155 9.06927 4.71322 8.78594 4.42988C8.5026 4.14655 8.14427 4.00488 7.71094 4.00488C7.2776 4.00488 6.91927 4.14655 6.63594 4.42988C6.3526 4.71322 6.21094 5.07155 6.21094 5.50488C6.21094 5.93822 6.3526 6.29655 6.63594 6.57988C6.91927 6.86322 7.2776 7.00488 7.71094 7.00488ZM12.7109 7.00488C13.1443 7.00488 13.5026 6.86322 13.7859 6.57988C14.0693 6.29655 14.2109 5.93822 14.2109 5.50488C14.2109 5.07155 14.0693 4.71322 13.7859 4.42988C13.5026 4.14655 13.1443 4.00488 12.7109 4.00488C12.2776 4.00488 11.9193 4.14655 11.6359 4.42988C11.3526 4.71322 11.2109 5.07155 11.2109 5.50488C11.2109 5.93822 11.3526 6.29655 11.6359 6.57988C11.9193 6.86322 12.2776 7.00488 12.7109 7.00488ZM15.7109 11.0049C16.1443 11.0049 16.5026 10.8632 16.7859 10.5799C17.0693 10.2965 17.2109 9.93822 17.2109 9.50488C17.2109 9.07155 17.0693 8.71322 16.7859 8.42988C16.5026 8.14655 16.1443 8.00488 15.7109 8.00488C15.2776 8.00488 14.9193 8.14655 14.6359 8.42988C14.3526 8.71322 14.2109 9.07155 14.2109 9.50488C14.2109 9.93822 14.3526 10.2965 14.6359 10.5799C14.9193 10.8632 15.2776 11.0049 15.7109 11.0049Z" fill="#4B5563"/>
</svg>
