<svg width="55" height="32" viewBox="0 0 55 32" fill="none" xmlns="http://www.w3.org/2000/svg">
<g id="Group 95">
<g id="Group 92">
<g id="Rectangle Copy 10">
<path fill-rule="evenodd" clip-rule="evenodd" d="M0 4C0 1.79086 1.79086 0 4 0L51 0C53.2091 0 55 1.79086 55 4V28C55 30.2091 53.2091 32 51 32H4C1.79086 32 0 30.2091 0 28V4Z" fill="#1C2D5F" fill-opacity="0.02"/>
<path d="M0.5 4C0.5 2.067 2.067 0.5 4 0.5H51C52.933 0.5 54.5 2.067 54.5 4V28C54.5 29.933 52.933 31.5 51 31.5H4C2.067 31.5 0.5 29.933 0.5 28V4Z" stroke="#1C2D5F" stroke-opacity="0.1"/>
</g>
<path id="Path Copy 2" d="M37 14L41 18L45 14" stroke="#344665" stroke-width="1.4" stroke-linecap="round" stroke-linejoin="round"/>
<g id="Group 18">
<g id="noun-density-7159397 copy">
<path id="Path" d="M11.8788 8.5908L11.8788 23.2764C11.8788 23.603 11.5522 23.8672 11.288 23.8672H10.707C10.3804 23.8672 10.1162 23.603 10.1162 23.2764V8.5908C10.1162 8.2642 10.4428 8 10.707 8H11.288C11.6147 8 11.8788 8.26421 11.8788 8.5908Z" fill="#344665"/>
<path id="Path_2" d="M16.8149 8.5908V23.2764C16.8149 23.603 16.4883 23.8672 16.2241 23.8672H15.6431C15.3165 23.8672 15.0523 23.603 15.0523 23.2764V8.5908C15.0523 8.2642 15.3789 8 15.6431 8H16.2241C16.5507 8 16.8149 8.26421 16.8149 8.5908Z" fill="#344665"/>
<path id="Path_3" d="M21.751 8.5908V23.2764C21.751 23.603 21.4244 23.8672 21.1602 23.8672H20.5791C20.2525 23.8672 19.9883 23.603 19.9883 23.2764V8.5908C19.9883 8.2642 20.315 8 20.5791 8H21.1602C21.4868 8 21.751 8.26421 21.751 8.5908Z" fill="#344665"/>
</g>
</g>
</g>
</g>
</svg>
