<?xml version="1.0" encoding="UTF-8"?>
<svg width="18px" height="18px" viewBox="0 0 18 18" version="1.1" xmlns="http://www.w3.org/2000/svg" xmlns:xlink="http://www.w3.org/1999/xlink">
    <title>columns</title>
    <g id="V9" stroke="none" stroke-width="1" fill="none" fill-rule="evenodd">
        <g id="columns">
            <g id="currency-copy">
                <rect id="Rectangle-Copy-63" x="0" y="0" width="18" height="18"></rect>
            </g>
            <g id="Group-18" transform="translate(1, 1)">
                <g id="noun-density-7159397-copy" transform="translate(7.9336, 7.9336) rotate(90) translate(-7.9336, -7.9336)translate(-0, 2.1162)" fill="#344665" fill-rule="nonzero">
                    <path d="M0.590799061,9.87212799 L15.2763847,9.87212799 C15.6029885,9.87212799 15.8671837,10.1987318 15.8671837,10.4629271 L15.8671837,11.0439562 C15.8671837,11.37056 15.6029728,11.6347552 15.2763847,11.6347552 L0.590799061,11.6347552 C0.264195244,11.6347552 0,11.3081514 0,11.0439562 L0,10.4629271 C0,10.1363232 0.264210901,9.87212799 0.590799061,9.87212799 Z" id="Path"></path>
                    <path d="M0.590799061,4.936064 L15.2763847,4.936064 C15.6029885,4.936064 15.8671837,5.26266781 15.8671837,5.52686306 L15.8671837,6.10789219 C15.8671837,6.434496 15.6029728,6.69869125 15.2763847,6.69869125 L0.590799061,6.69869125 C0.264195244,6.69869125 0,6.37208743 0,6.10789219 L0,5.52686306 C0,5.20025924 0.264210901,4.936064 0.590799061,4.936064 Z" id="Path"></path>
                    <path d="M0.590799061,-1.814458e-14 L15.2763847,-1.814458e-14 C15.6029885,-1.814458e-14 15.8671837,0.326603816 15.8671837,0.590799061 L15.8671837,1.17182819 C15.8671837,1.49843201 15.6029728,1.76262725 15.2763847,1.76262725 L0.590799061,1.76262725 C0.264195244,1.76262725 0,1.43602343 0,1.17182819 L0,0.590799061 C0,0.264195244 0.264210901,-1.814458e-14 0.590799061,-1.814458e-14 Z" id="Path"></path>
                </g>
                <rect id="Rectangle" x="0" y="0.132816276" width="15.8671837" height="15.8671837"></rect>
            </g>
        </g>
    </g>
</svg>