<svg width="14" height="14" viewBox="0 0 14 14" fill="none" xmlns="http://www.w3.org/2000/svg">
<path id="Vector" d="M4.30001 13.4967C3.20001 13.4967 2.10001 13.0767 1.26001 12.2433C0.859412 11.8451 0.541779 11.3714 0.325499 10.8495C0.109219 10.3277 -0.00141054 9.76819 1.35763e-05 9.20332C1.35763e-05 8.05666 0.44668 6.97666 1.26001 6.16332L3.09335 4.32999C3.15507 4.26827 3.22834 4.21931 3.30898 4.18591C3.38963 4.1525 3.47606 4.13531 3.56335 4.13531C3.65063 4.13531 3.73707 4.1525 3.81771 4.18591C3.89835 4.21931 3.97163 4.26827 4.03335 4.32999C4.09507 4.39171 4.14403 4.46499 4.17743 4.54563C4.21083 4.62627 4.22803 4.7127 4.22803 4.79999C4.22803 4.88728 4.21083 4.97371 4.17743 5.05435C4.14403 5.135 4.09507 5.20827 4.03335 5.26999L2.20001 7.10332C1.64001 7.66332 1.33335 8.40999 1.33335 9.19666C1.33335 9.98332 1.64001 10.73 2.20001 11.29C3.35335 12.4433 5.23335 12.4433 6.39335 11.29L6.76001 10.9233C6.82173 10.8616 6.89501 10.8126 6.97565 10.7792C7.05629 10.7458 7.14273 10.7286 7.23001 10.7286C7.3173 10.7286 7.40373 10.7458 7.48438 10.7792C7.56502 10.8126 7.63829 10.8616 7.70001 10.9233C7.76173 10.985 7.8107 11.0583 7.8441 11.139C7.8775 11.2196 7.89469 11.306 7.89469 11.3933C7.89469 11.4806 7.8775 11.567 7.8441 11.6477C7.8107 11.7283 7.76173 11.8016 7.70001 11.8633L7.33335 12.23C6.93463 12.6299 6.4608 12.9471 5.93909 13.1634C5.41739 13.3796 4.85809 13.4906 4.29335 13.49L4.30001 13.4967ZM9.44001 9.86333C9.26668 9.86333 9.10001 9.79666 8.96668 9.66999C8.90488 9.60832 8.85585 9.53506 8.82239 9.45441C8.78894 9.37376 8.77172 9.2873 8.77172 9.19999C8.77172 9.11268 8.78894 9.02622 8.82239 8.94557C8.85585 8.86493 8.90488 8.79167 8.96668 8.72999L10.8 6.89666C11.9533 5.74332 11.9533 3.86332 10.8 2.70332C10.24 2.14332 9.49335 1.83666 8.70668 1.83666C7.92001 1.83666 7.17335 2.14332 6.61335 2.70332L6.24668 3.06999C6.18496 3.13171 6.11168 3.18067 6.03104 3.21408C5.9504 3.24748 5.86397 3.26467 5.77668 3.26467C5.6004 3.26467 5.43133 3.19464 5.30668 3.06999C5.24496 3.00827 5.196 2.935 5.1626 2.85435C5.12919 2.77371 5.112 2.68728 5.112 2.59999C5.112 2.42371 5.18203 2.25464 5.30668 2.12999L5.67335 1.76332C6.0712 1.36221 6.54486 1.04425 7.06677 0.827931C7.58867 0.611615 8.14839 0.501272 8.71335 0.503324C9.86668 0.503324 10.94 0.949991 11.7533 1.76332C12.1539 2.16156 12.4716 2.63529 12.6879 3.15711C12.9041 3.67893 13.0148 4.23846 13.0133 4.80332C13.0133 5.94999 12.5667 7.02999 11.7533 7.84332L9.92001 9.67666C9.78668 9.80999 9.62001 9.86999 9.44668 9.86999L9.44001 9.86333ZM4.30001 9.86333C4.12668 9.86333 3.96001 9.79666 3.82668 9.66999C3.76488 9.60832 3.71585 9.53506 3.68239 9.45441C3.64894 9.37376 3.63172 9.2873 3.63172 9.19999C3.63172 9.11268 3.64894 9.02622 3.68239 8.94557C3.71585 8.86493 3.76488 8.79167 3.82668 8.72999L8.22668 4.32999C8.35133 4.20534 8.5204 4.13531 8.69668 4.13531C8.87296 4.13531 9.04203 4.20534 9.16668 4.32999C9.29133 4.45464 9.36136 4.62371 9.36136 4.79999C9.36136 4.97627 9.29133 5.14534 9.16668 5.26999L4.76668 9.66999C4.63335 9.80332 4.46668 9.86333 4.29335 9.86333H4.30001Z" fill="#0A1B39"/>
</svg>
