<svg width="40" height="40" viewBox="0 0 40 40" fill="none" xmlns="http://www.w3.org/2000/svg">
<g filter="url(#filter0_d_10222_36430)">
<path d="M2 7C2 3.68629 4.68629 1 8 1H32C35.3137 1 38 3.68629 38 7V31C38 34.3137 35.3137 37 32 37H8C4.68629 37 2 34.3137 2 31V7Z" fill="white" shape-rendering="crispEdges"/>
<path d="M32 0.5C35.5899 0.5 38.5 3.41015 38.5 7V31C38.5 34.5899 35.5899 37.5 32 37.5H8C4.41015 37.5 1.5 34.5899 1.5 31V7C1.5 3.41015 4.41015 0.5 8 0.5H32Z" stroke="#E2E8F0" shape-rendering="crispEdges"/>
<g opacity="0.8">
<path d="M19.0502 11.65H21.3002C21.6658 11.65 21.9752 11.9594 21.9752 12.325V17.05H24.422C24.9283 17.05 25.1814 17.6688 24.8158 18.0344L20.5408 22.3094C20.3439 22.5063 19.9783 22.5063 19.7814 22.3094L15.5064 18.0344C15.1408 17.6688 15.3939 17.05 15.9002 17.05H18.3752V12.325C18.3752 11.9594 18.6564 11.65 19.0502 11.65ZM27.3752 22.225V25.375C27.3752 25.7687 27.0658 26.05 26.7002 26.05H13.6502C13.2564 26.05 12.9752 25.7687 12.9752 25.375V22.225C12.9752 21.8594 13.2564 21.55 13.6502 21.55H17.7564L19.1345 22.9281C19.697 23.5188 20.6252 23.5188 21.1877 22.9281L22.5658 21.55H26.7002C27.0658 21.55 27.3752 21.8594 27.3752 22.225ZM23.8877 24.7C23.8877 24.3906 23.6345 24.1375 23.3252 24.1375C23.0158 24.1375 22.7627 24.3906 22.7627 24.7C22.7627 25.0094 23.0158 25.2625 23.3252 25.2625C23.6345 25.2625 23.8877 25.0094 23.8877 24.7ZM25.6877 24.7C25.6877 24.3906 25.4345 24.1375 25.1252 24.1375C24.8158 24.1375 24.5627 24.3906 24.5627 24.7C24.5627 25.0094 24.8158 25.2625 25.1252 25.2625C25.4345 25.2625 25.6877 25.0094 25.6877 24.7Z" fill="#5D6979"/>
</g>
</g>
<defs>
<filter id="filter0_d_10222_36430" x="0" y="0" width="40" height="40" filterUnits="userSpaceOnUse" color-interpolation-filters="sRGB">
<feFlood flood-opacity="0" result="BackgroundImageFix"/>
<feColorMatrix in="SourceAlpha" type="matrix" values="0 0 0 0 0 0 0 0 0 0 0 0 0 0 0 0 0 0 127 0" result="hardAlpha"/>
<feOffset dy="1"/>
<feGaussianBlur stdDeviation="0.5"/>
<feComposite in2="hardAlpha" operator="out"/>
<feColorMatrix type="matrix" values="0 0 0 0 0 0 0 0 0 0 0 0 0 0 0 0 0 0 0.25 0"/>
<feBlend mode="normal" in2="BackgroundImageFix" result="effect1_dropShadow_10222_36430"/>
<feBlend mode="normal" in="SourceGraphic" in2="effect1_dropShadow_10222_36430" result="shape"/>
</filter>
</defs>
</svg>
