<svg width="40" height="40" viewBox="0 0 40 40" fill="none" xmlns="http://www.w3.org/2000/svg">
<g filter="url(#filter0_d_10222_36417)">
<rect x="2" y="1" width="36" height="36" rx="6" fill="white" shape-rendering="crispEdges"/>
<rect x="1.5" y="0.5" width="37" height="37" rx="6.5" stroke="#E2E8F0" shape-rendering="crispEdges"/>
<g opacity="0.8">
<path d="M23.8583 12.8583L21.2092 15.4892L22.5108 16.7908L25.1417 14.1417L27.25 16.25V10.75H21.75L23.8583 12.8583ZM16.25 10.75H10.75V16.25L12.8583 14.1417L15.4892 16.7908L16.7908 15.4892L14.1417 12.8583L16.25 10.75ZM15.4892 21.2092L12.8583 23.8583L10.75 21.75V27.25H16.25L14.1417 25.1417L16.7908 22.5108L15.4892 21.2092ZM22.5108 21.2092L21.2092 22.5108L23.8583 25.1417L21.75 27.25H27.25V21.75L25.1417 23.8583L22.5108 21.2092Z" fill="#7E8794"/>
</g>
</g>
<defs>
<filter id="filter0_d_10222_36417" x="0" y="0" width="40" height="40" filterUnits="userSpaceOnUse" color-interpolation-filters="sRGB">
<feFlood flood-opacity="0" result="BackgroundImageFix"/>
<feColorMatrix in="SourceAlpha" type="matrix" values="0 0 0 0 0 0 0 0 0 0 0 0 0 0 0 0 0 0 127 0" result="hardAlpha"/>
<feOffset dy="1"/>
<feGaussianBlur stdDeviation="0.5"/>
<feComposite in2="hardAlpha" operator="out"/>
<feColorMatrix type="matrix" values="0 0 0 0 0 0 0 0 0 0 0 0 0 0 0 0 0 0 0.25 0"/>
<feBlend mode="normal" in2="BackgroundImageFix" result="effect1_dropShadow_10222_36417"/>
<feBlend mode="normal" in="SourceGraphic" in2="effect1_dropShadow_10222_36417" result="shape"/>
</filter>
</defs>
</svg>
