<svg width="24" height="24" viewBox="0 0 24 24" fill="none" xmlns="http://www.w3.org/2000/svg">
<path fill-rule="evenodd" clip-rule="evenodd" d="M3.81563 18.2153V8.52603C3.81563 5.48571 4.90235 4.18875 7.45019 4.18875H9.2281C9.63801 4.18971 10.0307 4.38555 10.2764 4.71483L11.0895 5.79483C11.6051 6.48123 12.4268 6.89211 13.2899 6.89499H14.7596C17.918 6.89499 18.3164 8.55867 18.3414 9.79611V9.94779C18.0899 9.89691 17.8355 9.86427 17.5801 9.86427H10.5155C8.76538 9.86427 6.99994 11.0249 6.99994 13.6179L6.99899 18.2153C6.99899 19.0937 6.28475 19.808 5.40731 19.808C4.52987 19.808 3.81563 19.0937 3.81563 18.2153ZM19.7814 10.6083V9.78267C19.7257 6.99195 17.942 5.45499 14.7596 5.45499H13.2918C12.8799 5.45403 12.4873 5.25723 12.2406 4.92891L11.4284 3.84891C10.9129 3.16059 10.0911 2.74971 9.22906 2.74875H7.45019C4.08251 2.74875 2.37563 4.69275 2.37563 8.52603V18.2153C2.37563 19.8876 3.73595 21.248 5.40731 21.248L18.0044 21.2508C19.6758 21.2508 21.0351 19.8905 21.0351 18.2288L21.0956 13.6179C21.0956 12.1913 20.5532 11.2131 19.7814 10.6083Z" fill="white"/>
</svg>
