<svg width="24" height="24" viewBox="0 0 24 24" fill="none" xmlns="http://www.w3.org/2000/svg">
<path fill-rule="evenodd" clip-rule="evenodd" d="M3.815 18.2154V8.52606C3.815 5.48574 4.90172 4.18878 7.44956 4.18878H9.22748C9.63739 4.18974 10.03 4.38558 10.2758 4.71486L11.0889 5.79486C11.6044 6.48126 12.4262 6.89214 13.2892 6.89502H14.759C17.9174 6.89502 18.3158 8.5587 18.3407 9.79614V9.94782C18.0892 9.89694 17.8348 9.8643 17.5795 9.8643H10.5148C8.76476 9.8643 6.99932 11.025 6.99932 13.6179L6.99836 18.2154C6.99836 19.0938 6.28412 19.808 5.40668 19.808C4.52924 19.808 3.815 19.0938 3.815 18.2154ZM19.7808 10.6083V9.7827C19.7251 6.99198 17.9414 5.45502 14.759 5.45502H13.2911C12.8793 5.45406 12.4867 5.25726 12.2399 4.92894L11.4278 3.84894C10.9123 3.16062 10.0905 2.74974 9.22844 2.74878H7.44956C4.08188 2.74878 2.375 4.69278 2.375 8.52606V18.2154C2.375 19.8877 3.73532 21.248 5.40668 21.248L18.0038 21.2509C19.6751 21.2509 21.0345 19.8906 21.0345 18.2288L21.095 13.6179C21.095 12.1914 20.5526 11.2131 19.7808 10.6083Z" fill="black"/>
</svg>
