<svg width="24" height="24" viewBox="0 0 24 24" fill="none" xmlns="http://www.w3.org/2000/svg">
<path d="M13.9688 3.75H10.0312C9.56526 3.75 9.1875 4.12776 9.1875 4.59375C9.1875 5.05974 9.56526 5.4375 10.0312 5.4375H13.9688C14.4347 5.4375 14.8125 5.05974 14.8125 4.59375C14.8125 4.12776 14.4347 3.75 13.9688 3.75Z" fill="#7D8592"/>
<path d="M12 21.3281C16.2716 21.3281 19.7344 17.8653 19.7344 13.5938C19.7344 9.32217 16.2716 5.85938 12 5.85938C7.72842 5.85938 4.26562 9.32217 4.26562 13.5938C4.26562 17.8653 7.72842 21.3281 12 21.3281Z" fill="#7D8592"/>
<path d="M12 19.2188C15.1066 19.2188 17.625 16.7004 17.625 13.5938C17.625 10.4871 15.1066 7.96875 12 7.96875C8.8934 7.96875 6.375 10.4871 6.375 13.5938C6.375 16.7004 8.8934 19.2188 12 19.2188Z" fill="white"/>
<path d="M12 13.5938V7.96875C13.1125 7.96875 14.2001 8.29865 15.1251 8.91673C16.0501 9.53482 16.7711 10.4133 17.1968 11.4412C17.6226 12.469 17.734 13.6 17.5169 14.6911C17.2999 15.7823 16.7641 16.7846 15.9775 17.5712C15.1908 18.3579 14.1885 18.8936 13.0974 19.1107C12.0062 19.3277 10.8752 19.2163 9.84741 18.7906C8.81957 18.3648 7.94107 17.6439 7.32298 16.7188C6.7049 15.7938 6.375 14.7063 6.375 13.5938H12Z" fill="#7D8592"/>
</svg>
