<svg width="96" height="32" viewBox="0 0 96 32" fill="none" xmlns="http://www.w3.org/2000/svg">
<path d="M8 16H16" stroke="#9F9F9F" stroke-width="1.5" stroke-linecap="round" stroke-linejoin="round"/>
<path d="M12 12V20" stroke="#9F9F9F" stroke-width="1.5" stroke-linecap="round" stroke-linejoin="round"/>
<path d="M35.5244 18.2793C35.5244 18.8717 35.3786 19.3822 35.0869 19.8105C34.7998 20.2389 34.3851 20.5671 33.8428 20.7949C33.305 21.0228 32.6624 21.1367 31.915 21.1367C31.5505 21.1367 31.2018 21.1162 30.8691 21.0752C30.5365 21.0342 30.222 20.9749 29.9258 20.8975C29.6341 20.8154 29.3675 20.7174 29.126 20.6035V19.0586C29.5316 19.2363 29.985 19.3981 30.4863 19.5439C30.9876 19.6852 31.498 19.7559 32.0176 19.7559C32.4414 19.7559 32.7923 19.7012 33.0703 19.5918C33.3529 19.4779 33.5625 19.3184 33.6992 19.1133C33.8359 18.9036 33.9043 18.6598 33.9043 18.3818C33.9043 18.0856 33.8245 17.835 33.665 17.6299C33.5055 17.4248 33.264 17.238 32.9404 17.0693C32.6214 16.8962 32.2204 16.7116 31.7373 16.5156C31.4092 16.3835 31.0947 16.2331 30.7939 16.0645C30.4977 15.8958 30.2334 15.6976 30.001 15.4697C29.7686 15.2419 29.584 14.973 29.4473 14.6631C29.3151 14.3486 29.249 13.9795 29.249 13.5557C29.249 12.9906 29.3835 12.5075 29.6523 12.1064C29.9258 11.7054 30.3086 11.3978 30.8008 11.1836C31.2975 10.9694 31.8763 10.8623 32.5371 10.8623C33.0612 10.8623 33.5534 10.917 34.0137 11.0264C34.4785 11.1357 34.9342 11.2907 35.3809 11.4912L34.8613 12.8105C34.4512 12.6419 34.0524 12.5075 33.665 12.4072C33.2822 12.307 32.8903 12.2568 32.4893 12.2568C32.1429 12.2568 31.849 12.3092 31.6074 12.4141C31.3659 12.5189 31.1813 12.667 31.0537 12.8584C30.9307 13.0452 30.8691 13.2686 30.8691 13.5283C30.8691 13.82 30.9398 14.0661 31.0811 14.2666C31.2269 14.4626 31.4502 14.6426 31.751 14.8066C32.0563 14.9707 32.4482 15.153 32.9268 15.3535C33.4782 15.5814 33.9453 15.8206 34.3281 16.0713C34.7155 16.3219 35.0117 16.6227 35.2168 16.9736C35.4219 17.32 35.5244 17.7552 35.5244 18.2793ZM40.2549 13.2891C41.2119 13.2891 41.9342 13.501 42.4219 13.9248C42.9141 14.3486 43.1602 15.0094 43.1602 15.9072V21H42.0186L41.7109 19.9268H41.6562C41.4421 20.2002 41.221 20.4258 40.9932 20.6035C40.7653 20.7812 40.501 20.9134 40.2002 21C39.904 21.0911 39.5417 21.1367 39.1133 21.1367C38.6621 21.1367 38.2588 21.0547 37.9033 20.8906C37.5479 20.722 37.2676 20.4668 37.0625 20.125C36.8574 19.7832 36.7549 19.3503 36.7549 18.8262C36.7549 18.0469 37.0443 17.4613 37.623 17.0693C38.2064 16.6774 39.0859 16.4609 40.2617 16.4199L41.5742 16.3721V15.9756C41.5742 15.4515 41.4512 15.0778 41.2051 14.8545C40.9635 14.6312 40.6217 14.5195 40.1797 14.5195C39.8014 14.5195 39.4346 14.5742 39.0791 14.6836C38.7236 14.793 38.3773 14.9274 38.04 15.0869L37.5205 13.9521C37.8896 13.7562 38.3089 13.5967 38.7783 13.4736C39.2523 13.3506 39.7445 13.2891 40.2549 13.2891ZM41.5674 17.3838L40.5898 17.418C39.7878 17.4453 39.2249 17.582 38.9014 17.8281C38.5778 18.0742 38.416 18.4115 38.416 18.8398C38.416 19.2135 38.5277 19.487 38.751 19.6602C38.9743 19.8288 39.2682 19.9131 39.6328 19.9131C40.1888 19.9131 40.6491 19.7559 41.0137 19.4414C41.3828 19.1224 41.5674 18.6553 41.5674 18.04V17.3838ZM47.1387 21L44.2607 13.4326H45.9629L47.5215 17.876C47.6217 18.1585 47.7129 18.4639 47.7949 18.792C47.877 19.1201 47.9339 19.3958 47.9658 19.6191H48.0205C48.0524 19.3867 48.1139 19.1087 48.2051 18.7852C48.2962 18.457 48.3896 18.154 48.4854 17.876L50.0439 13.4326H51.7393L48.8613 21H47.1387ZM55.9023 13.2891C56.5768 13.2891 57.1556 13.4281 57.6387 13.7061C58.1217 13.984 58.4932 14.3783 58.7529 14.8887C59.0127 15.3991 59.1426 16.0098 59.1426 16.7207V17.582H54.0908C54.109 18.3158 54.305 18.8809 54.6787 19.2773C55.057 19.6738 55.5856 19.8721 56.2646 19.8721C56.7477 19.8721 57.1807 19.8265 57.5635 19.7354C57.9508 19.6396 58.3496 19.5007 58.7598 19.3184V20.624C58.3815 20.8018 57.9964 20.9316 57.6045 21.0137C57.2126 21.0957 56.7432 21.1367 56.1963 21.1367C55.4535 21.1367 54.7995 20.9932 54.2344 20.7061C53.6738 20.4144 53.234 19.9814 52.915 19.4072C52.6006 18.833 52.4434 18.1198 52.4434 17.2676C52.4434 16.4199 52.5869 15.6999 52.874 15.1074C53.1611 14.515 53.5645 14.0638 54.084 13.7539C54.6035 13.444 55.2096 13.2891 55.9023 13.2891ZM55.9023 14.499C55.3965 14.499 54.9863 14.6631 54.6719 14.9912C54.362 15.3193 54.1797 15.8001 54.125 16.4336H57.5703C57.5658 16.0553 57.502 15.7204 57.3789 15.4287C57.2604 15.137 57.0781 14.9092 56.832 14.7451C56.5905 14.5811 56.2806 14.499 55.9023 14.499ZM72.165 11.0059L68.6719 21H66.9355L63.4424 11.0059H65.124L67.2295 17.2676C67.2933 17.4499 67.3617 17.6709 67.4346 17.9307C67.512 18.1904 67.5827 18.4525 67.6465 18.7168C67.7148 18.9811 67.7673 19.2158 67.8037 19.4209C67.8402 19.2158 67.8903 18.9811 67.9541 18.7168C68.0225 18.4525 68.0931 18.1904 68.166 17.9307C68.2389 17.6709 68.3073 17.4476 68.3711 17.2607L70.4834 11.0059H72.165ZM74.9199 13.4326V21H73.3135V13.4326H74.9199ZM74.127 10.5342C74.373 10.5342 74.585 10.6003 74.7627 10.7324C74.945 10.8646 75.0361 11.0924 75.0361 11.416C75.0361 11.735 74.945 11.9629 74.7627 12.0996C74.585 12.2318 74.373 12.2979 74.127 12.2979C73.8717 12.2979 73.6553 12.2318 73.4775 12.0996C73.3044 11.9629 73.2178 11.735 73.2178 11.416C73.2178 11.0924 73.3044 10.8646 73.4775 10.7324C73.6553 10.6003 73.8717 10.5342 74.127 10.5342ZM80.2383 13.2891C80.9128 13.2891 81.4915 13.4281 81.9746 13.7061C82.4577 13.984 82.8291 14.3783 83.0889 14.8887C83.3486 15.3991 83.4785 16.0098 83.4785 16.7207V17.582H78.4268C78.445 18.3158 78.641 18.8809 79.0146 19.2773C79.3929 19.6738 79.9215 19.8721 80.6006 19.8721C81.0837 19.8721 81.5166 19.8265 81.8994 19.7354C82.2868 19.6396 82.6855 19.5007 83.0957 19.3184V20.624C82.7174 20.8018 82.3324 20.9316 81.9404 21.0137C81.5485 21.0957 81.0791 21.1367 80.5322 21.1367C79.7894 21.1367 79.1354 20.9932 78.5703 20.7061C78.0098 20.4144 77.57 19.9814 77.251 19.4072C76.9365 18.833 76.7793 18.1198 76.7793 17.2676C76.7793 16.4199 76.9229 15.6999 77.21 15.1074C77.4971 14.515 77.9004 14.0638 78.4199 13.7539C78.9395 13.444 79.5456 13.2891 80.2383 13.2891ZM80.2383 14.499C79.7324 14.499 79.3223 14.6631 79.0078 14.9912C78.6979 15.3193 78.5156 15.8001 78.4609 16.4336H81.9062C81.9017 16.0553 81.8379 15.7204 81.7148 15.4287C81.5964 15.137 81.4141 14.9092 81.168 14.7451C80.9264 14.5811 80.6165 14.499 80.2383 14.499ZM91.4766 20.9932L90.5195 17.4727C90.474 17.2995 90.4193 17.0898 90.3555 16.8438C90.2917 16.5977 90.2279 16.3447 90.1641 16.085C90.1003 15.8206 90.041 15.5768 89.9863 15.3535C89.9362 15.1302 89.8975 14.957 89.8701 14.834H89.8154C89.7926 14.957 89.7562 15.1302 89.7061 15.3535C89.6559 15.5768 89.599 15.8206 89.5352 16.085C89.4714 16.3493 89.4076 16.6068 89.3438 16.8574C89.2845 17.1081 89.2298 17.3223 89.1797 17.5L88.1748 20.9932H86.4111L84.292 13.4258H85.9189L86.9033 17.1855C86.9671 17.4408 87.0286 17.7165 87.0879 18.0127C87.1517 18.3089 87.2064 18.5915 87.252 18.8604C87.2975 19.1292 87.3317 19.3503 87.3545 19.5234H87.4092C87.4274 19.4004 87.4525 19.2454 87.4844 19.0586C87.5163 18.8672 87.5527 18.6689 87.5938 18.4639C87.6348 18.2542 87.6758 18.0583 87.7168 17.876C87.7578 17.6891 87.7965 17.5387 87.833 17.4248L88.9951 13.4258H90.752L91.8662 17.4248C91.9163 17.598 91.971 17.8167 92.0303 18.0811C92.0895 18.3408 92.1419 18.6029 92.1875 18.8672C92.2376 19.127 92.2695 19.3434 92.2832 19.5166H92.3379C92.3561 19.3617 92.388 19.152 92.4336 18.8877C92.4837 18.6188 92.5407 18.334 92.6045 18.0332C92.6683 17.7279 92.7344 17.4453 92.8027 17.1855L93.8076 13.4258H95.4072L93.2744 20.9932H91.4766Z" fill="#9F9F9F"/>
</svg>
