<svg width="138" height="32" viewBox="0 0 138 32" fill="none" xmlns="http://www.w3.org/2000/svg">
<path d="M14.2243 13.3234H14.2358C15.1676 13.3234 15.9305 12.567 15.9382 11.6332C15.9446 10.695 15.1862 9.92632 14.2473 9.91992H14.2364C13.304 9.91992 12.5411 10.6758 12.5347 11.6204C12.5315 12.5561 13.2899 13.3202 14.2243 13.3234Z" fill="#344665"/>
<path d="M10.1774 17.7022H10.1889C11.1214 17.7022 11.8836 16.9451 11.8907 16.0114C11.8939 15.557 11.7192 15.1288 11.3998 14.805C11.0804 14.4817 10.6542 14.3019 10.1998 14.2987C9.74671 14.2891 9.31727 14.4696 8.99407 14.789C8.67023 15.1077 8.49039 15.5339 8.48719 15.9992C8.48591 16.4523 8.66063 16.8792 8.97999 17.2005C9.29935 17.5224 9.72495 17.7003 10.1774 17.7022Z" fill="#344665"/>
<path d="M14.4963 22.0804H14.4848C13.5498 22.0772 12.7914 21.3136 12.7946 20.378C12.8016 19.4333 13.5638 18.6775 14.4963 18.6775H14.5078C14.9629 18.6807 15.3891 18.8605 15.7078 19.1844C16.0272 19.5076 16.2006 19.9364 16.1974 20.3914C16.191 21.3252 15.4288 22.0804 14.4963 22.0804Z" fill="#344665"/>
<path d="M11.8131 12.2612C11.898 12.2612 11.9593 12.18 11.9423 12.0969C11.9105 11.9421 11.8941 11.7819 11.8946 11.6179C11.8958 11.4561 11.9131 11.2983 11.9449 11.146C11.9624 11.0627 11.901 10.9812 11.816 10.9812H6.97545C6.62217 10.9812 6.33545 11.2679 6.33545 11.6212C6.33545 11.9745 6.62217 12.2612 6.97545 12.2612H11.8131Z" fill="#344665"/>
<path d="M17.6385 12.2612H16.6585C16.5734 12.2612 16.5121 12.1798 16.5294 12.0966C16.5601 11.9487 16.5768 11.7956 16.5782 11.639V11.6377C16.5793 11.4692 16.5624 11.3046 16.5295 11.1458C16.5123 11.0626 16.5736 10.9812 16.6586 10.9812H17.6385C17.9925 10.9812 18.2785 11.2679 18.2785 11.6212C18.2785 11.9745 17.9925 12.2612 17.6385 12.2612Z" fill="#344665"/>
<path d="M7.89463 16.4772C7.91157 16.5602 7.85025 16.6413 7.76544 16.6413H6.97594C6.62202 16.6413 6.33594 16.3546 6.33594 16.0013C6.33594 15.648 6.62202 15.3613 6.97594 15.3613H7.7668C7.85162 15.3613 7.91295 15.4424 7.89593 15.5254C7.86464 15.6782 7.84813 15.8358 7.84716 15.9967C7.84666 16.16 7.86274 16.3208 7.89463 16.4772Z" fill="#344665"/>
<path d="M17.6396 16.6413H12.6107C12.5257 16.6413 12.4644 16.5599 12.4817 16.4766C12.5127 16.3277 12.5294 16.1737 12.5307 16.0159C12.5319 15.8493 12.5157 15.6852 12.483 15.5256C12.466 15.4425 12.5273 15.3613 12.6121 15.3613H17.6396C17.9929 15.3613 18.2796 15.648 18.2796 16.0013C18.2796 16.3546 17.9929 16.6413 17.6396 16.6413Z" fill="#344665"/>
<path d="M12.2022 20.8544C12.2193 20.9376 12.1579 21.0188 12.0731 21.0188H6.97557C6.62165 21.0188 6.33557 20.7321 6.33557 20.3788C6.33557 20.0255 6.62165 19.7388 6.97557 19.7388H12.0759C12.1609 19.7388 12.2223 19.8203 12.2049 19.9036C12.173 20.0558 12.1557 20.2136 12.1546 20.3754C12.154 20.5395 12.1705 20.6997 12.2022 20.8544Z" fill="#344665"/>
<path d="M17.6392 21.0188H16.9182C16.8333 21.0188 16.7719 20.9374 16.7892 20.8542C16.8198 20.7059 16.8364 20.5524 16.8374 20.3953C16.8386 20.228 16.8224 20.0632 16.7895 19.9031C16.7724 19.8199 16.8338 19.7388 16.9186 19.7388H17.6392C17.9931 19.7388 18.2792 20.0255 18.2792 20.3788C18.2792 20.7321 17.9931 21.0188 17.6392 21.0188Z" fill="#344665"/>
<path d="M37.6133 15.9072C37.6133 17.0329 37.4036 17.974 36.9844 18.7305C36.5651 19.4824 35.9567 20.0498 35.1592 20.4326C34.3617 20.8109 33.4001 21 32.2744 21H29.499V11.0059H32.5752C33.6097 11.0059 34.5029 11.1927 35.2549 11.5664C36.0068 11.9355 36.5879 12.4847 36.998 13.2139C37.4082 13.9385 37.6133 14.8363 37.6133 15.9072ZM35.9043 15.9551C35.9043 15.1348 35.7744 14.4603 35.5146 13.9316C35.2594 13.403 34.8812 13.0111 34.3799 12.7559C33.8831 12.4961 33.2702 12.3662 32.541 12.3662H31.1396V19.626H32.3018C33.5094 19.626 34.4118 19.3184 35.0088 18.7031C35.6058 18.0879 35.9043 17.1719 35.9043 15.9551ZM42.6172 13.2891C43.2917 13.2891 43.8704 13.4281 44.3535 13.7061C44.8366 13.984 45.208 14.3783 45.4678 14.8887C45.7275 15.3991 45.8574 16.0098 45.8574 16.7207V17.582H40.8057C40.8239 18.3158 41.0199 18.8809 41.3936 19.2773C41.7718 19.6738 42.3005 19.8721 42.9795 19.8721C43.4626 19.8721 43.8955 19.8265 44.2783 19.7354C44.6657 19.6396 45.0645 19.5007 45.4746 19.3184V20.624C45.0964 20.8018 44.7113 20.9316 44.3193 21.0137C43.9274 21.0957 43.458 21.1367 42.9111 21.1367C42.1683 21.1367 41.5143 20.9932 40.9492 20.7061C40.3887 20.4144 39.9489 19.9814 39.6299 19.4072C39.3154 18.833 39.1582 18.1198 39.1582 17.2676C39.1582 16.4199 39.3018 15.6999 39.5889 15.1074C39.876 14.515 40.2793 14.0638 40.7988 13.7539C41.3184 13.444 41.9245 13.2891 42.6172 13.2891ZM42.6172 14.499C42.1113 14.499 41.7012 14.6631 41.3867 14.9912C41.0768 15.3193 40.8945 15.8001 40.8398 16.4336H44.2852C44.2806 16.0553 44.2168 15.7204 44.0938 15.4287C43.9753 15.137 43.793 14.9092 43.5469 14.7451C43.3053 14.5811 42.9954 14.499 42.6172 14.499ZM51.4492 14.6562H49.6104V21H48.0039V14.6562H46.7666V13.8838L48.0039 13.4121V12.8857C48.0039 12.2432 48.1042 11.7327 48.3047 11.3545C48.5098 10.9762 48.8014 10.7051 49.1797 10.541C49.5625 10.3724 50.0182 10.2881 50.5469 10.2881C50.8932 10.2881 51.21 10.3177 51.4971 10.377C51.7842 10.4316 52.0257 10.4954 52.2217 10.5684L51.8047 11.7852C51.6497 11.735 51.4766 11.6895 51.2852 11.6484C51.0938 11.6029 50.8887 11.5801 50.6699 11.5801C50.3053 11.5801 50.0365 11.694 49.8633 11.9219C49.6947 12.1497 49.6104 12.4824 49.6104 12.9199V13.4326H51.4492V14.6562ZM55.708 13.2891C56.665 13.2891 57.3874 13.501 57.875 13.9248C58.3672 14.3486 58.6133 15.0094 58.6133 15.9072V21H57.4717L57.1641 19.9268H57.1094C56.8952 20.2002 56.6742 20.4258 56.4463 20.6035C56.2184 20.7812 55.9541 20.9134 55.6533 21C55.3571 21.0911 54.9948 21.1367 54.5664 21.1367C54.1152 21.1367 53.7119 21.0547 53.3564 20.8906C53.001 20.722 52.7207 20.4668 52.5156 20.125C52.3105 19.7832 52.208 19.3503 52.208 18.8262C52.208 18.0469 52.4974 17.4613 53.0762 17.0693C53.6595 16.6774 54.5391 16.4609 55.7148 16.4199L57.0273 16.3721V15.9756C57.0273 15.4515 56.9043 15.0778 56.6582 14.8545C56.4167 14.6312 56.0749 14.5195 55.6328 14.5195C55.2546 14.5195 54.8877 14.5742 54.5322 14.6836C54.1768 14.793 53.8304 14.9274 53.4932 15.0869L52.9736 13.9521C53.3428 13.7562 53.762 13.5967 54.2314 13.4736C54.7054 13.3506 55.1976 13.2891 55.708 13.2891ZM57.0205 17.3838L56.043 17.418C55.2409 17.4453 54.6781 17.582 54.3545 17.8281C54.0309 18.0742 53.8691 18.4115 53.8691 18.8398C53.8691 19.2135 53.9808 19.487 54.2041 19.6602C54.4274 19.8288 54.7214 19.9131 55.0859 19.9131C55.6419 19.9131 56.1022 19.7559 56.4668 19.4414C56.8359 19.1224 57.0205 18.6553 57.0205 18.04V17.3838ZM67.459 13.4326V21H66.1943L65.9756 19.9814H65.8867C65.7272 20.2412 65.5244 20.4577 65.2783 20.6309C65.0322 20.7995 64.7588 20.9248 64.458 21.0068C64.1572 21.0934 63.8405 21.1367 63.5078 21.1367C62.9382 21.1367 62.4505 21.041 62.0449 20.8496C61.6439 20.6536 61.3363 20.3529 61.1221 19.9473C60.9079 19.5417 60.8008 19.0176 60.8008 18.375V13.4326H62.4141V18.0742C62.4141 18.6621 62.5326 19.1019 62.7695 19.3936C63.0111 19.6852 63.3848 19.8311 63.8906 19.8311C64.3783 19.8311 64.7656 19.7308 65.0527 19.5303C65.3398 19.3298 65.5426 19.0335 65.6611 18.6416C65.7842 18.2497 65.8457 17.7689 65.8457 17.1992V13.4326H67.459ZM71.376 21H69.7627V10.3633H71.376V21ZM76.4893 19.8379C76.6989 19.8379 76.9062 19.8197 77.1113 19.7832C77.3164 19.7422 77.5033 19.6943 77.6719 19.6396V20.8564C77.4941 20.9339 77.264 21 76.9814 21.0547C76.6989 21.1094 76.4049 21.1367 76.0996 21.1367C75.6712 21.1367 75.2861 21.0661 74.9443 20.9248C74.6025 20.779 74.3314 20.5306 74.1309 20.1797C73.9303 19.8288 73.8301 19.3434 73.8301 18.7236V14.6562H72.7979V13.9385L73.9053 13.3711L74.4316 11.751H75.4434V13.4326H77.6104V14.6562H75.4434V18.7031C75.4434 19.0859 75.5391 19.3708 75.7305 19.5576C75.9219 19.7445 76.1748 19.8379 76.4893 19.8379ZM90.4209 11.0059L86.9277 21H85.1914L81.6982 11.0059H83.3799L85.4854 17.2676C85.5492 17.4499 85.6175 17.6709 85.6904 17.9307C85.7679 18.1904 85.8385 18.4525 85.9023 18.7168C85.9707 18.9811 86.0231 19.2158 86.0596 19.4209C86.096 19.2158 86.1462 18.9811 86.21 18.7168C86.2783 18.4525 86.349 18.1904 86.4219 17.9307C86.4948 17.6709 86.5632 17.4476 86.627 17.2607L88.7393 11.0059H90.4209ZM93.1758 13.4326V21H91.5693V13.4326H93.1758ZM92.3828 10.5342C92.6289 10.5342 92.8408 10.6003 93.0186 10.7324C93.2008 10.8646 93.292 11.0924 93.292 11.416C93.292 11.735 93.2008 11.9629 93.0186 12.0996C92.8408 12.2318 92.6289 12.2979 92.3828 12.2979C92.1276 12.2979 91.9111 12.2318 91.7334 12.0996C91.5602 11.9629 91.4736 11.735 91.4736 11.416C91.4736 11.0924 91.5602 10.8646 91.7334 10.7324C91.9111 10.6003 92.1276 10.5342 92.3828 10.5342ZM98.4941 13.2891C99.1686 13.2891 99.7474 13.4281 100.23 13.7061C100.714 13.984 101.085 14.3783 101.345 14.8887C101.604 15.3991 101.734 16.0098 101.734 16.7207V17.582H96.6826C96.7008 18.3158 96.8968 18.8809 97.2705 19.2773C97.6488 19.6738 98.1774 19.8721 98.8564 19.8721C99.3395 19.8721 99.7725 19.8265 100.155 19.7354C100.543 19.6396 100.941 19.5007 101.352 19.3184V20.624C100.973 20.8018 100.588 20.9316 100.196 21.0137C99.8044 21.0957 99.335 21.1367 98.7881 21.1367C98.0452 21.1367 97.3913 20.9932 96.8262 20.7061C96.2656 20.4144 95.8258 19.9814 95.5068 19.4072C95.1924 18.833 95.0352 18.1198 95.0352 17.2676C95.0352 16.4199 95.1787 15.6999 95.4658 15.1074C95.7529 14.515 96.1562 14.0638 96.6758 13.7539C97.1953 13.444 97.8014 13.2891 98.4941 13.2891ZM98.4941 14.499C97.9883 14.499 97.5781 14.6631 97.2637 14.9912C96.9538 15.3193 96.7715 15.8001 96.7168 16.4336H100.162C100.158 16.0553 100.094 15.7204 99.9707 15.4287C99.8522 15.137 99.6699 14.9092 99.4238 14.7451C99.1823 14.5811 98.8724 14.499 98.4941 14.499ZM109.732 20.9932L108.775 17.4727C108.73 17.2995 108.675 17.0898 108.611 16.8438C108.548 16.5977 108.484 16.3447 108.42 16.085C108.356 15.8206 108.297 15.5768 108.242 15.3535C108.192 15.1302 108.153 14.957 108.126 14.834H108.071C108.049 14.957 108.012 15.1302 107.962 15.3535C107.912 15.5768 107.855 15.8206 107.791 16.085C107.727 16.3493 107.663 16.6068 107.6 16.8574C107.54 17.1081 107.486 17.3223 107.436 17.5L106.431 20.9932H104.667L102.548 13.4258H104.175L105.159 17.1855C105.223 17.4408 105.285 17.7165 105.344 18.0127C105.408 18.3089 105.462 18.5915 105.508 18.8604C105.553 19.1292 105.588 19.3503 105.61 19.5234H105.665C105.683 19.4004 105.708 19.2454 105.74 19.0586C105.772 18.8672 105.809 18.6689 105.85 18.4639C105.891 18.2542 105.932 18.0583 105.973 17.876C106.014 17.6891 106.052 17.5387 106.089 17.4248L107.251 13.4258H109.008L110.122 17.4248C110.172 17.598 110.227 17.8167 110.286 18.0811C110.345 18.3408 110.398 18.6029 110.443 18.8672C110.493 19.127 110.525 19.3434 110.539 19.5166H110.594C110.612 19.3617 110.644 19.152 110.689 18.8877C110.74 18.6188 110.797 18.334 110.86 18.0332C110.924 17.7279 110.99 17.4453 111.059 17.1855L112.063 13.4258H113.663L111.53 20.9932H109.732Z" fill="#344665"/>
<path d="M124.22 14.5498L128.22 18.5498L132.22 14.5498" stroke="#344665" stroke-width="1.4" stroke-linecap="round" stroke-linejoin="round"/>
</svg>
