<svg width="17" height="18" viewBox="0 0 17 18" fill="none" xmlns="http://www.w3.org/2000/svg">
<path d="M8.34212 17.3366C7.18934 17.3366 6.10601 17.1178 5.09212 16.6803C4.07823 16.2428 3.19629 15.6491 2.44629 14.8991C1.69629 14.1491 1.10254 13.2671 0.665039 12.2533C0.227539 11.2394 0.00878906 10.156 0.00878906 9.00325C0.00878906 7.85048 0.227539 6.76714 0.665039 5.75325C1.10254 4.73937 1.69629 3.85742 2.44629 3.10742C3.19629 2.35742 4.07823 1.76367 5.09212 1.32617C6.10601 0.888672 7.18934 0.669922 8.34212 0.669922C10.4532 0.669922 12.2831 1.35048 13.8317 2.71159C15.3803 4.0727 16.3005 5.76714 16.5921 7.79492C16.3143 7.65603 16.0262 7.54839 15.7275 7.47201C15.4289 7.39562 15.1199 7.35048 14.8005 7.33659C14.5366 6.3227 14.0609 5.41992 13.3734 4.62826C12.6859 3.83659 11.8421 3.23937 10.8421 2.83659V3.16992C10.8421 3.62826 10.6789 4.02062 10.3525 4.34701C10.0261 4.67339 9.63379 4.83659 9.17546 4.83659H7.50879V6.50325C7.50879 6.73937 7.42893 6.93728 7.26921 7.09701C7.10948 7.25673 6.91157 7.33659 6.67546 7.33659H5.00879V9.00325H10.0088C10.1616 9.00325 10.3039 9.04145 10.4359 9.11784C10.5678 9.19423 10.6685 9.30187 10.738 9.44076C10.5018 9.81576 10.3213 10.2116 10.1963 10.6283C10.0713 11.0449 10.0088 11.4755 10.0088 11.9199C10.0088 12.7949 10.2345 13.6074 10.6859 14.3574C11.1373 15.1074 11.5991 15.8088 12.0713 16.4616C11.5018 16.7394 10.9046 16.9546 10.2796 17.1074C9.65462 17.2602 9.00879 17.3366 8.34212 17.3366ZM7.50879 15.6283V14.0033C7.05046 14.0033 6.65809 13.8401 6.33171 13.5137C6.00532 13.1873 5.84212 12.7949 5.84212 12.3366V11.5033L1.84212 7.50325C1.80046 7.75325 1.76226 8.00326 1.72754 8.25326C1.69282 8.50326 1.67546 8.75325 1.67546 9.00325C1.67546 10.6838 2.22754 12.156 3.33171 13.4199C4.43587 14.6838 5.82823 15.4199 7.50879 15.6283Z" fill="#4B5563"/>
</svg>
