<?xml version="1.0" encoding="UTF-8"?>
<svg width="24px" height="24px" viewBox="0 0 24 24" version="1.1" xmlns="http://www.w3.org/2000/svg" xmlns:xlink="http://www.w3.org/1999/xlink">
    <title>Group 2</title>
    <defs>
        <path d="M23.1998169,9.80854246 L12.0081003,9.80854246 L12.0081003,14.4476734 L18.4480712,14.4476734 C17.8501166,17.3945929 15.3367142,19.0868044 12.0081003,19.0868044 C8.1223112,19.0407509 4.99646359,15.877637 4.99646359,11.991575 C4.99646359,8.10551295 8.1223112,4.94239902 12.0081003,4.89634558 C13.6208288,4.89428331 15.1839472,5.45384868 16.4289779,6.47893203 L19.9220292,2.98588069 C15.913367,-0.536681396 10.0601272,-0.988789392 5.55807109,1.87639935 C1.05601494,4.74158809 -1.01302389,10.2355753 0.48061174,15.3587451 C1.97424737,20.4819149 6.67164026,24.0031814 12.0081003,24 C18.0145541,24 23.4688965,19.6329362 23.4688965,11.9890835 C23.4598425,11.2545408 23.369601,10.523251 23.1998169,9.80854246 L23.1998169,9.80854246 Z" id="path-1"></path>
        <path d="M23.1998169,9.80854246 L12.0081003,9.80854246 L12.0081003,14.4476734 L18.4480712,14.4476734 C17.8501166,17.3945929 15.3367142,19.0868044 12.0081003,19.0868044 C8.1223112,19.0407509 4.99646359,15.877637 4.99646359,11.991575 C4.99646359,8.10551295 8.1223112,4.94239902 12.0081003,4.89634558 C13.6208288,4.89428331 15.1839472,5.45384868 16.4289779,6.47893203 L19.9220292,2.98588069 C15.913367,-0.536681396 10.0601272,-0.988789392 5.55807109,1.87639935 C1.05601494,4.74158809 -1.01302389,10.2355753 0.48061174,15.3587451 C1.97424737,20.4819149 6.67164026,24.0031814 12.0081003,24 C18.0145541,24 23.4688965,19.6329362 23.4688965,11.9890835 C23.4598425,11.2545408 23.369601,10.523251 23.1998169,9.80854246 L23.1998169,9.80854246 Z" id="path-3"></path>
        <path d="M23.1998169,9.80854246 L12.0081003,9.80854246 L12.0081003,14.4476734 L18.4480712,14.4476734 C17.8501166,17.3945929 15.3367142,19.0868044 12.0081003,19.0868044 C8.1223112,19.0407509 4.99646359,15.877637 4.99646359,11.991575 C4.99646359,8.10551295 8.1223112,4.94239902 12.0081003,4.89634558 C13.6208288,4.89428331 15.1839472,5.45384868 16.4289779,6.47893203 L19.9220292,2.98588069 C15.913367,-0.536681396 10.0601272,-0.988789392 5.55807109,1.87639935 C1.05601494,4.74158809 -1.01302389,10.2355753 0.48061174,15.3587451 C1.97424737,20.4819149 6.67164026,24.0031814 12.0081003,24 C18.0145541,24 23.4688965,19.6329362 23.4688965,11.9890835 C23.4598425,11.2545408 23.369601,10.523251 23.1998169,9.80854246 L23.1998169,9.80854246 Z" id="path-5"></path>
        <path d="M23.1998169,9.80854246 L12.0081003,9.80854246 L12.0081003,14.4476734 L18.4480712,14.4476734 C17.8501166,17.3945929 15.3367142,19.0868044 12.0081003,19.0868044 C8.1223112,19.0407509 4.99646359,15.877637 4.99646359,11.991575 C4.99646359,8.10551295 8.1223112,4.94239902 12.0081003,4.89634558 C13.6208288,4.89428331 15.1839472,5.45384868 16.4289779,6.47893203 L19.9220292,2.98588069 C15.913367,-0.536681396 10.0601272,-0.988789392 5.55807109,1.87639935 C1.05601494,4.74158809 -1.01302389,10.2355753 0.48061174,15.3587451 C1.97424737,20.4819149 6.67164026,24.0031814 12.0081003,24 C18.0145541,24 23.4688965,19.6329362 23.4688965,11.9890835 C23.4598425,11.2545408 23.369601,10.523251 23.1998169,9.80854246 L23.1998169,9.80854246 Z" id="path-7"></path>
    </defs>
    <g id="V9" stroke="none" stroke-width="1" fill="none" fill-rule="evenodd">
        <g id="01_Welcome" transform="translate(-883, -498)">
            <g id="Group-2" transform="translate(883, 498)">
                <rect id="Rectangle_3" x="0" y="0" width="24" height="24"></rect>
                <mask id="mask-2" fill="white">
                    <use xlink:href="#path-1"></use>
                </mask>
                <g id="Path_6"></g>
                <polygon id="Path_5" fill="#FBBC05" fill-rule="nonzero" mask="url(#mask-2)" points="-1.087105 19.087801 -1.087105 4.89734217 8.19115691 11.9930699"></polygon>
                <mask id="mask-4" fill="white">
                    <use xlink:href="#path-3"></use>
                </mask>
                <g id="Path_6"></g>
                <polygon id="Path_7" fill="#EA4335" fill-rule="nonzero" mask="url(#mask-4)" points="-1.087105 4.89734217 8.19115691 11.9930699 12.0120867 8.66046966 25.1112784 6.53474113 25.1112784 -1.10612182 -1.087105 -1.10612182"></polygon>
                <mask id="mask-6" fill="white">
                    <use xlink:href="#path-5"></use>
                </mask>
                <g id="Path_6"></g>
                <polygon id="Path_9" fill="#34A853" fill-rule="nonzero" mask="url(#mask-6)" points="-1.087105 19.087801 15.2868846 6.53075476 19.5981371 7.07688661 25.1112784 -1.10612182 25.1112784 25.0922615 -1.087105 25.0922615"></polygon>
                <mask id="mask-8" fill="white">
                    <use xlink:href="#path-7"></use>
                </mask>
                <g id="Path_6"></g>
                <polygon id="Path_11" fill="#4285F4" fill-rule="nonzero" mask="url(#mask-8)" points="25.1112784 25.091265 8.19115691 11.9930699 6.00862269 10.3556709 25.1112784 4.89734217"></polygon>
            </g>
        </g>
    </g>
</svg>