<svg width="25" height="24" viewBox="0 0 25 24" fill="none" xmlns="http://www.w3.org/2000/svg">
<path fill-rule="evenodd" clip-rule="evenodd" d="M22.1 12C22.1 14.5461 21.0886 16.9879 19.2882 18.7882C17.4879 20.5886 15.0461 21.6 12.5 21.6C9.95395 21.6 7.51215 20.5886 5.7118 18.7882C3.91145 16.9879 2.90002 14.5461 2.90002 12C2.90002 9.45395 3.91145 7.01215 5.7118 5.2118C7.51215 3.41145 9.95395 2.40002 12.5 2.40002C15.0461 2.40002 17.4879 3.41145 19.2882 5.2118C21.0886 7.01215 22.1 9.45395 22.1 12ZM12.5 8.40002C12.2892 8.39982 12.082 8.45517 11.8994 8.5605C11.7167 8.66583 11.565 8.81743 11.4596 9.00002C11.3835 9.14148 11.2798 9.2662 11.1545 9.36682C11.0293 9.46743 10.8852 9.54188 10.7306 9.58575C10.5761 9.62962 10.4144 9.64201 10.255 9.62221C10.0955 9.6024 9.94174 9.55079 9.80265 9.47044C9.66356 9.39009 9.54201 9.28262 9.44522 9.15443C9.34843 9.02623 9.27837 8.8799 9.23918 8.72412C9.19999 8.56835 9.19248 8.40628 9.21708 8.24755C9.24169 8.08881 9.29791 7.93663 9.38242 7.80002C9.77869 7.11376 10.3903 6.57742 11.1225 6.27418C11.8546 5.97094 12.6663 5.91775 13.4318 6.12285C14.1972 6.32796 14.8736 6.7799 15.3561 7.40858C15.8385 8.03727 16.1 8.80757 16.1 9.60002C16.1002 10.3448 15.8696 11.0713 15.4397 11.6794C15.0099 12.2876 14.4021 12.7476 13.7 12.996V13.2C13.7 13.5183 13.5736 13.8235 13.3486 14.0486C13.1235 14.2736 12.8183 14.4 12.5 14.4C12.1818 14.4 11.8765 14.2736 11.6515 14.0486C11.4265 13.8235 11.3 13.5183 11.3 13.2V12C11.3 11.6818 11.4265 11.3765 11.6515 11.1515C11.8765 10.9265 12.1818 10.8 12.5 10.8C12.8183 10.8 13.1235 10.6736 13.3486 10.4486C13.5736 10.2235 13.7 9.91828 13.7 9.60002C13.7 9.28176 13.5736 8.97654 13.3486 8.7515C13.1235 8.52645 12.8183 8.40002 12.5 8.40002ZM12.5 18C12.8183 18 13.1235 17.8736 13.3486 17.6486C13.5736 17.4235 13.7 17.1183 13.7 16.8C13.7 16.4818 13.5736 16.1765 13.3486 15.9515C13.1235 15.7265 12.8183 15.6 12.5 15.6C12.1818 15.6 11.8765 15.7265 11.6515 15.9515C11.4265 16.1765 11.3 16.4818 11.3 16.8C11.3 17.1183 11.4265 17.4235 11.6515 17.6486C11.8765 17.8736 12.1818 18 12.5 18Z" fill="#95979E"/>
</svg>
