<?xml version="1.0" encoding="UTF-8"?>
<svg width="24px" height="24px" viewBox="0 0 24 24" version="1.1" xmlns="http://www.w3.org/2000/svg" xmlns:xlink="http://www.w3.org/1999/xlink">
    <title>question-icon</title>
    <g id="V9" stroke="none" stroke-width="1" fill="none" fill-rule="evenodd">
        <g id="question-icon">
            <rect id="Rectangle" x="0" y="0" width="24" height="24"></rect>
            <g id="Group-7-Copy" transform="translate(2, 2)" fill="#344665" fill-rule="nonzero">
                <path d="M10,-0.7 C15.9094468,-0.7 20.7,4.09055318 20.7,10 C20.7,15.9094468 15.9094468,20.7 10,20.7 C4.09055318,20.7 -0.7,15.9094468 -0.7,10 C-0.7,4.09055318 4.09055318,-0.7 10,-0.7 Z M10,0.7 C4.86375183,0.7 0.7,4.86375183 0.7,10 C0.7,15.1362482 4.86375183,19.3 10,19.3 C15.1362482,19.3 19.3,15.1362482 19.3,10 C19.3,4.86375183 15.1362482,0.7 10,0.7 Z" id="Oval"></path>
                <path d="M6.42966589,6.76770953 C7.02837137,5.06576434 8.76730569,4.04377733 10.5455167,4.34878779 C12.3237267,4.65379808 13.6226863,6.19686341 13.6200075,8 C13.6200075,9.15830767 12.9205208,10.0909501 11.8082915,10.8324354 C11.4442779,11.0751109 11.0585318,11.2808419 10.6730472,11.4521682 C10.4401104,11.5556955 10.2553265,11.6260893 10.1413592,11.6640784 C9.77459885,11.7863317 9.37817493,11.5881196 9.25592162,11.2213592 C9.1336683,10.8545988 9.33188042,10.4581749 9.69864079,10.3359216 C9.77217369,10.3114107 9.91551513,10.2568045 10.1044539,10.1728318 C10.422095,10.0316581 10.7394747,9.86238912 11.0317119,9.66756459 C11.7944847,9.15904994 12.2200034,8.59169233 12.2200042,7.99895875 C12.2216724,6.87744126 11.4142102,5.91823748 10.3088359,5.72863642 C9.20346155,5.53903532 8.12250238,6.17432454 7.75033411,7.23229047 C7.62204363,7.59698293 7.22240199,7.78862459 6.85770953,7.66033411 C6.49301707,7.53204363 6.30137541,7.13240199 6.42966589,6.76770953 Z" id="Path"></path>
                <path d="M10.01,14.29995 C10.3965993,14.29995 10.71,14.6133507 10.71,14.99995 C10.71,15.3865493 10.3965993,15.69995 10.01,15.69995 L10,15.69995 C9.61340068,15.69995 9.3,15.3865493 9.3,14.99995 C9.3,14.6133507 9.61340068,14.29995 10,14.29995 L10.01,14.29995 Z" id="Path"></path>
            </g>
        </g>
    </g>
</svg>