<svg width="34" height="32" viewBox="0 0 34 32" fill="none" xmlns="http://www.w3.org/2000/svg">
<path fill-rule="evenodd" clip-rule="evenodd" d="M0 4C0 1.79086 1.79086 0 4 0L30 0C32.2091 0 34 1.79086 34 4V28C34 30.2091 32.2091 32 30 32H4C1.79086 32 0 30.2091 0 28V4Z" fill="url(#paint0_linear_985_8007)"/>
<path d="M0.5 4C0.5 2.067 2.067 0.5 4 0.5H30C31.933 0.5 33.5 2.067 33.5 4V28C33.5 29.933 31.933 31.5 30 31.5H4C2.067 31.5 0.5 29.933 0.5 28V4Z" stroke="#1C2D5F" stroke-opacity="0.1"/>
<mask id="mask0_985_8007" style="mask-type:alpha" maskUnits="userSpaceOnUse" x="5" y="4" width="24" height="24">
<rect x="5" y="4" width="24" height="24" fill="#D9D9D9"/>
</mask>
<g mask="url(#mask0_985_8007)">
<path d="M20.3 20.7L16 16.4V11H18V15.6L21.7 19.3L20.3 20.7ZM7.85005 20.075C7.63338 19.5917 7.45838 19.0917 7.32505 18.575C7.19172 18.0584 7.10005 17.5334 7.05005 17H9.07505C9.12505 17.35 9.19588 17.7 9.28755 18.05C9.37922 18.4 9.49172 18.7417 9.62505 19.075L7.85005 20.075ZM7.05005 15C7.10005 14.4667 7.19172 13.9375 7.32505 13.4125C7.45838 12.8875 7.64172 12.3834 7.87505 11.9L9.62505 12.9C9.49172 13.2334 9.37922 13.575 9.28755 13.925C9.19588 14.275 9.12505 14.6334 9.07505 15H7.05005ZM11.175 24.15C10.725 23.8167 10.3084 23.4542 9.92505 23.0625C9.54172 22.6709 9.18338 22.25 8.85005 21.8L10.6 20.8C10.8334 21.1 11.0792 21.3792 11.3375 21.6375C11.5959 21.8959 11.875 22.1417 12.175 22.375L11.175 24.15ZM10.625 11.175L8.85005 10.175C9.18338 9.72505 9.54172 9.30838 9.92505 8.92505C10.3084 8.54172 10.725 8.18338 11.175 7.85005L12.175 9.62505C11.8917 9.85838 11.6209 10.1042 11.3625 10.3625C11.1042 10.6209 10.8584 10.8917 10.625 11.175ZM16 25.95C15.4667 25.9 14.9375 25.8084 14.4125 25.675C13.8875 25.5417 13.3834 25.3584 12.9 25.125L13.9 23.375C14.2334 23.5084 14.575 23.6209 14.925 23.7125C15.275 23.8042 15.6334 23.875 16 23.925V25.95ZM13.9 8.62505L12.9 6.87505C13.3834 6.64172 13.8875 6.45838 14.4125 6.32505C14.9375 6.19172 15.4667 6.10005 16 6.05005V8.07505C15.6334 8.12505 15.275 8.19588 14.925 8.28755C14.575 8.37922 14.2334 8.49172 13.9 8.62505ZM18 25.95V23.925C18.3667 23.875 18.725 23.8042 19.075 23.7125C19.425 23.6209 19.7667 23.5084 20.1 23.375L21.1 25.125C20.6167 25.3584 20.1125 25.5417 19.5875 25.675C19.0625 25.8084 18.5334 25.9 18 25.95ZM20.1 8.62505C19.7667 8.49172 19.425 8.37922 19.075 8.28755C18.725 8.19588 18.3667 8.12505 18 8.07505V6.05005C18.5334 6.10005 19.0625 6.19172 19.5875 6.32505C20.1125 6.45838 20.6167 6.64172 21.1 6.87505L20.1 8.62505ZM22.825 24.15L21.825 22.375C22.1084 22.1417 22.3792 21.8959 22.6375 21.6375C22.8959 21.3792 23.1417 21.1084 23.375 20.825L25.15 21.825C24.8167 22.275 24.4584 22.6959 24.075 23.0875C23.6917 23.4792 23.275 23.8334 22.825 24.15ZM23.375 11.175C23.1417 10.8917 22.8959 10.6209 22.6375 10.3625C22.3792 10.1042 22.1084 9.85838 21.825 9.62505L22.825 7.85005C23.275 8.16672 23.6917 8.51672 24.075 8.90005C24.4584 9.28338 24.8084 9.70005 25.125 10.15L23.375 11.175ZM24.925 15C24.875 14.6334 24.8042 14.275 24.7125 13.925C24.6209 13.575 24.5084 13.2334 24.375 12.9L26.125 11.875C26.3417 12.375 26.5209 12.8875 26.6625 13.4125C26.8042 13.9375 26.9 14.4667 26.95 15H24.925ZM26.125 20.1L24.375 19.1C24.5084 18.7667 24.6209 18.425 24.7125 18.075C24.8042 17.725 24.875 17.3667 24.925 17H26.95C26.9 17.5334 26.8084 18.0625 26.675 18.5875C26.5417 19.1125 26.3584 19.6167 26.125 20.1Z" fill="#344665"/>
</g>
<defs>
<linearGradient id="paint0_linear_985_8007" x1="17" y1="0" x2="17" y2="32" gradientUnits="userSpaceOnUse">
<stop stop-color="#FAFAFA"/>
<stop offset="1" stop-color="white"/>
</linearGradient>
</defs>
</svg>
