<svg width="34" height="32" viewBox="0 0 34 32" fill="none" xmlns="http://www.w3.org/2000/svg">
<g id="Group 108">
<g id="Group 93">
<g id="Group 92">
<g id="Group 108_2">
<g id="Rectangle Copy 10">
<path fill-rule="evenodd" clip-rule="evenodd" d="M0 4C0 1.79086 1.79086 0 4 0L30 0C32.2091 0 34 1.79086 34 4V28C34 30.2091 32.2091 32 30 32H4C1.79086 32 0 30.2091 0 28V4Z" fill="url(#paint0_linear_4066_11404)"/>
<path d="M4 0.5H30C31.933 0.5 33.5 2.067 33.5 4V28C33.5 29.933 31.933 31.5 30 31.5H4C2.067 31.5 0.5 29.933 0.5 28V4C0.5 2.067 2.067 0.5 4 0.5Z" stroke="#1C2D5F" stroke-opacity="0.1"/>
</g>
<mask id="mask0_4066_11404" style="mask-type:alpha" maskUnits="userSpaceOnUse" x="5" y="4" width="24" height="24">
<rect id="Bounding box" x="5" y="4" width="24" height="24" fill="#D9D9D9"/>
</mask>
<g mask="url(#mask0_4066_11404)">
<path id="history_toggle_off" d="M20.2998 20.6998L15.9998 16.3998V10.9998H17.9998V15.5998L21.6998 19.2998L20.2998 20.6998ZM7.8498 20.0748C7.63314 19.5915 7.45814 19.0915 7.3248 18.5748C7.19147 18.0581 7.0998 17.5331 7.0498 16.9998H9.0748C9.1248 17.3498 9.19564 17.6998 9.2873 18.0498C9.37897 18.3998 9.49147 18.7415 9.6248 19.0748L7.8498 20.0748ZM7.0498 14.9998C7.0998 14.4665 7.19147 13.9373 7.3248 13.4123C7.45814 12.8873 7.64147 12.3831 7.8748 11.8998L9.6248 12.8998C9.49147 13.2331 9.37897 13.5748 9.2873 13.9248C9.19564 14.2748 9.1248 14.6331 9.0748 14.9998H7.0498ZM11.1748 24.1498C10.7248 23.8165 10.3081 23.454 9.9248 23.0623C9.54147 22.6706 9.18314 22.2498 8.8498 21.7998L10.5998 20.7998C10.8331 21.0998 11.079 21.379 11.3373 21.6373C11.5956 21.8956 11.8748 22.1415 12.1748 22.3748L11.1748 24.1498ZM10.6248 11.1748L8.8498 10.1748C9.18314 9.7248 9.54147 9.30814 9.9248 8.9248C10.3081 8.54147 10.7248 8.18314 11.1748 7.8498L12.1748 9.6248C11.8915 9.85814 11.6206 10.104 11.3623 10.3623C11.104 10.6206 10.8581 10.8915 10.6248 11.1748ZM15.9998 25.9498C15.4665 25.8998 14.9373 25.8081 14.4123 25.6748C13.8873 25.5415 13.3831 25.3581 12.8998 25.1248L13.8998 23.3748C14.2331 23.5081 14.5748 23.6206 14.9248 23.7123C15.2748 23.804 15.6331 23.8748 15.9998 23.9248V25.9498ZM13.8998 8.6248L12.8998 6.8748C13.3831 6.64147 13.8873 6.45814 14.4123 6.3248C14.9373 6.19147 15.4665 6.0998 15.9998 6.0498V8.0748C15.6331 8.1248 15.2748 8.19564 14.9248 8.2873C14.5748 8.37897 14.2331 8.49147 13.8998 8.6248ZM17.9998 25.9498V23.9248C18.3665 23.8748 18.7248 23.804 19.0748 23.7123C19.4248 23.6206 19.7665 23.5081 20.0998 23.3748L21.0998 25.1248C20.6165 25.3581 20.1123 25.5415 19.5873 25.6748C19.0623 25.8081 18.5331 25.8998 17.9998 25.9498ZM20.0998 8.6248C19.7665 8.49147 19.4248 8.37897 19.0748 8.2873C18.7248 8.19564 18.3665 8.1248 17.9998 8.0748V6.0498C18.5331 6.0998 19.0623 6.19147 19.5873 6.3248C20.1123 6.45814 20.6165 6.64147 21.0998 6.8748L20.0998 8.6248ZM22.8248 24.1498L21.8248 22.3748C22.1081 22.1415 22.379 21.8956 22.6373 21.6373C22.8956 21.379 23.1415 21.1081 23.3748 20.8248L25.1498 21.8248C24.8165 22.2748 24.4581 22.6956 24.0748 23.0873C23.6915 23.479 23.2748 23.8331 22.8248 24.1498ZM23.3748 11.1748C23.1415 10.8915 22.8956 10.6206 22.6373 10.3623C22.379 10.104 22.1081 9.85814 21.8248 9.6248L22.8248 7.8498C23.2748 8.16647 23.6915 8.51647 24.0748 8.8998C24.4581 9.28314 24.8081 9.6998 25.1248 10.1498L23.3748 11.1748ZM24.9248 14.9998C24.8748 14.6331 24.804 14.2748 24.7123 13.9248C24.6206 13.5748 24.5081 13.2331 24.3748 12.8998L26.1248 11.8748C26.3415 12.3748 26.5206 12.8873 26.6623 13.4123C26.804 13.9373 26.8998 14.4665 26.9498 14.9998H24.9248ZM26.1248 20.0998L24.3748 19.0998C24.5081 18.7665 24.6206 18.4248 24.7123 18.0748C24.804 17.7248 24.8748 17.3665 24.9248 16.9998H26.9498C26.8998 17.5331 26.8081 18.0623 26.6748 18.5873C26.5415 19.1123 26.3581 19.6165 26.1248 20.0998Z" fill="#344665"/>
</g>
</g>
</g>
</g>
</g>
<defs>
<linearGradient id="paint0_linear_4066_11404" x1="17" y1="0" x2="17" y2="32" gradientUnits="userSpaceOnUse">
<stop stop-color="#FAFAFA"/>
<stop offset="1" stop-color="white"/>
</linearGradient>
</defs>
</svg>
