<svg width="16" height="16" viewBox="0 0 16 16" fill="none" xmlns="http://www.w3.org/2000/svg">
<path d="M7.99992 1.33398C4.31992 1.33398 1.33325 4.32065 1.33325 8.00065C1.33325 11.6807 4.31992 14.6673 7.99992 14.6673C11.6799 14.6673 14.6666 11.6807 14.6666 8.00065C14.6666 4.32065 11.6799 1.33398 7.99992 1.33398ZM7.99992 11.334C7.63325 11.334 7.33325 11.034 7.33325 10.6673V8.00065C7.33325 7.63398 7.63325 7.33398 7.99992 7.33398C8.36659 7.33398 8.66659 7.63398 8.66659 8.00065V10.6673C8.66659 11.034 8.36659 11.334 7.99992 11.334ZM8.66659 6.00065H7.33325V4.66732H8.66659V6.00065Z" fill="#5E6979"/>
</svg>
