<svg width="91" height="40" viewBox="0 0 91 40" fill="none" xmlns="http://www.w3.org/2000/svg">
<mask id="path-1-inside-1_12844_57657" fill="white">
<path d="M0 4C0 1.79086 1.79086 0 4 0H87C89.2091 0 91 1.79086 91 4V36C91 38.2091 89.2091 40 87 40H4C1.79086 40 0 38.2091 0 36V4Z"/>
</mask>
<path d="M4 0V1H87V0V-1H4V0ZM91 4H90V36H91H92V4H91ZM87 40V39H4V40V41H87V40ZM0 36H1V4H0H-1V36H0ZM4 40V39C2.34315 39 1 37.6569 1 36H0H-1C-1 38.7614 1.23858 41 4 41V40ZM91 36H90C90 37.6569 88.6569 39 87 39V40V41C89.7614 41 92 38.7614 92 36H91ZM87 0V1C88.6569 1 90 2.34315 90 4H91H92C92 1.23858 89.7614 -1 87 -1V0ZM4 0V-1C1.23858 -1 -1 1.23858 -1 4H0H1C1 2.34315 2.34315 1 4 1V0Z" fill="#E0E0E0" mask="url(#path-1-inside-1_12844_57657)"/>
<path d="M8 21C8 18.7909 9.79086 17 12 17C14.2091 17 16 18.7909 16 21C16 23.2091 14.2091 25 12 25C9.79086 25 8 23.2091 8 21Z" fill="#FBB7AE"/>
<path d="M18 21C18 18.7909 19.7909 17 22 17C24.2091 17 26 18.7909 26 21C26 23.2091 24.2091 25 22 25C19.7909 25 18 23.2091 18 21Z" fill="#B2D0FF"/>
<path d="M28 21C28 18.7909 29.7909 17 32 17C34.2091 17 36 18.7909 36 21C36 23.2091 34.2091 25 32 25C29.7909 25 28 23.2091 28 21Z" fill="#D9F1B7"/>
<path d="M41.5664 24.5V15.9336H42.9727V23.3047H46.6113V24.5H41.5664ZM50.5371 17.8906C51.1152 17.8906 51.6113 18.0098 52.0254 18.248C52.4395 18.4863 52.7578 18.8242 52.9805 19.2617C53.2031 19.6992 53.3145 20.2227 53.3145 20.832V21.5703H48.9844C49 22.1992 49.168 22.6836 49.4883 23.0234C49.8125 23.3633 50.2656 23.5332 50.8477 23.5332C51.2617 23.5332 51.6328 23.4941 51.9609 23.416C52.293 23.334 52.6348 23.2148 52.9863 23.0586V24.1777C52.6621 24.3301 52.332 24.4414 51.9961 24.5117C51.6602 24.582 51.2578 24.6172 50.7891 24.6172C50.1523 24.6172 49.5918 24.4941 49.1074 24.248C48.627 23.998 48.25 23.627 47.9766 23.1348C47.707 22.6426 47.5723 22.0312 47.5723 21.3008C47.5723 20.5742 47.6953 19.957 47.9414 19.4492C48.1875 18.9414 48.5332 18.5547 48.9785 18.2891C49.4238 18.0234 49.9434 17.8906 50.5371 17.8906ZM50.5371 18.9277C50.1035 18.9277 49.752 19.0684 49.4824 19.3496C49.2168 19.6309 49.0605 20.043 49.0137 20.5859H51.9668C51.9629 20.2617 51.9082 19.9746 51.8027 19.7246C51.7012 19.4746 51.5449 19.2793 51.334 19.1387C51.127 18.998 50.8613 18.9277 50.5371 18.9277ZM56.7188 27.3828C55.8398 27.3828 55.166 27.2246 54.6973 26.9082C54.2285 26.5918 53.9941 26.1484 53.9941 25.5781C53.9941 25.1797 54.1191 24.8418 54.3691 24.5645C54.6191 24.291 54.9766 24.1016 55.4414 23.9961C55.2656 23.918 55.1133 23.7969 54.9844 23.6328C54.8594 23.4648 54.7969 23.2793 54.7969 23.0762C54.7969 22.834 54.8652 22.627 55.002 22.4551C55.1387 22.2832 55.3438 22.1172 55.6172 21.957C55.2773 21.8125 55.0039 21.5781 54.7969 21.2539C54.5938 20.9258 54.4922 20.541 54.4922 20.0996C54.4922 19.6309 54.5918 19.2324 54.791 18.9043C54.9902 18.5723 55.2812 18.3203 55.6641 18.1484C56.0469 17.9727 56.5098 17.8848 57.0527 17.8848C57.1699 17.8848 57.2969 17.8926 57.4336 17.9082C57.5742 17.9199 57.7031 17.9355 57.8203 17.9551C57.9414 17.9707 58.0332 17.9883 58.0957 18.0078H60.3398V18.7754L59.2383 18.9805C59.3438 19.1289 59.4277 19.2988 59.4902 19.4902C59.5527 19.6777 59.584 19.8828 59.584 20.1055C59.584 20.7773 59.3516 21.3066 58.8867 21.6934C58.4258 22.0762 57.7891 22.2676 56.9766 22.2676C56.7812 22.2598 56.5918 22.2441 56.4082 22.2207C56.2676 22.3066 56.1602 22.4023 56.0859 22.5078C56.0117 22.6094 55.9746 22.7246 55.9746 22.8535C55.9746 22.959 56.0117 23.0449 56.0859 23.1113C56.1602 23.1738 56.2695 23.2207 56.4141 23.252C56.5625 23.2832 56.7422 23.2988 56.9531 23.2988H58.0723C58.7832 23.2988 59.3262 23.4492 59.7012 23.75C60.0762 24.0508 60.2637 24.4922 60.2637 25.0742C60.2637 25.8125 59.959 26.3809 59.3496 26.7793C58.7402 27.1816 57.8633 27.3828 56.7188 27.3828ZM56.7715 26.416C57.252 26.416 57.6562 26.3691 57.9844 26.2754C58.3125 26.1816 58.5605 26.0469 58.7285 25.8711C58.8965 25.6992 58.9805 25.4941 58.9805 25.2559C58.9805 25.0449 58.9277 24.8828 58.8223 24.7695C58.7168 24.6562 58.5586 24.5781 58.3477 24.5352C58.1367 24.4922 57.875 24.4707 57.5625 24.4707H56.543C56.2891 24.4707 56.0645 24.5098 55.8691 24.5879C55.6738 24.6699 55.5215 24.7871 55.4121 24.9395C55.3066 25.0918 55.2539 25.2754 55.2539 25.4902C55.2539 25.7871 55.3848 26.0156 55.6465 26.1758C55.9121 26.3359 56.2871 26.416 56.7715 26.416ZM57.041 21.3652C57.4434 21.3652 57.7422 21.2559 57.9375 21.0371C58.1328 20.8145 58.2305 20.502 58.2305 20.0996C58.2305 19.6621 58.1289 19.334 57.9258 19.1152C57.7266 18.8965 57.4297 18.7871 57.0352 18.7871C56.6484 18.7871 56.3535 18.8984 56.1504 19.1211C55.9512 19.3438 55.8516 19.6738 55.8516 20.1113C55.8516 20.5059 55.9512 20.8145 56.1504 21.0371C56.3535 21.2559 56.6504 21.3652 57.041 21.3652ZM64.1074 17.8906C64.6855 17.8906 65.1816 18.0098 65.5957 18.248C66.0098 18.4863 66.3281 18.8242 66.5508 19.2617C66.7734 19.6992 66.8848 20.2227 66.8848 20.832V21.5703H62.5547C62.5703 22.1992 62.7383 22.6836 63.0586 23.0234C63.3828 23.3633 63.8359 23.5332 64.418 23.5332C64.832 23.5332 65.2031 23.4941 65.5312 23.416C65.8633 23.334 66.2051 23.2148 66.5566 23.0586V24.1777C66.2324 24.3301 65.9023 24.4414 65.5664 24.5117C65.2305 24.582 64.8281 24.6172 64.3594 24.6172C63.7227 24.6172 63.1621 24.4941 62.6777 24.248C62.1973 23.998 61.8203 23.627 61.5469 23.1348C61.2773 22.6426 61.1426 22.0312 61.1426 21.3008C61.1426 20.5742 61.2656 19.957 61.5117 19.4492C61.7578 18.9414 62.1035 18.5547 62.5488 18.2891C62.9941 18.0234 63.5137 17.8906 64.1074 17.8906ZM64.1074 18.9277C63.6738 18.9277 63.3223 19.0684 63.0527 19.3496C62.7871 19.6309 62.6309 20.043 62.584 20.5859H65.5371C65.5332 20.2617 65.4785 19.9746 65.373 19.7246C65.2715 19.4746 65.1152 19.2793 64.9043 19.1387C64.6973 18.998 64.4316 18.9277 64.1074 18.9277ZM71.8184 17.8906C72.5488 17.8906 73.1172 18.0801 73.5234 18.459C73.9336 18.834 74.1387 19.4375 74.1387 20.2695V24.5H72.7617V20.5273C72.7617 20.0234 72.6582 19.6465 72.4512 19.3965C72.2441 19.1426 71.9238 19.0156 71.4902 19.0156C70.8613 19.0156 70.4238 19.209 70.1777 19.5957C69.9355 19.9824 69.8145 20.543 69.8145 21.2773V24.5H68.4375V18.0137H69.5098L69.7031 18.8926H69.7793C69.9199 18.666 70.0938 18.4805 70.3008 18.3359C70.5117 18.1875 70.7461 18.0762 71.0039 18.002C71.2656 17.9277 71.5371 17.8906 71.8184 17.8906ZM78.2461 24.6172C77.4727 24.6172 76.8516 24.3359 76.3828 23.7734C75.918 23.207 75.6855 22.373 75.6855 21.2715C75.6855 20.1582 75.9219 19.3164 76.3945 18.7461C76.8711 18.1758 77.498 17.8906 78.2754 17.8906C78.6035 17.8906 78.8906 17.9355 79.1367 18.0254C79.3828 18.1113 79.5938 18.2285 79.7695 18.377C79.9492 18.5254 80.1016 18.6914 80.2266 18.875H80.291C80.2715 18.7539 80.248 18.5801 80.2207 18.3535C80.1973 18.123 80.1855 17.9102 80.1855 17.7148V15.3828H81.5684V24.5H80.4902L80.2441 23.6152H80.1855C80.0684 23.8027 79.9199 23.9727 79.7402 24.125C79.5645 24.2734 79.3535 24.3926 79.1074 24.4824C78.8652 24.5723 78.5781 24.6172 78.2461 24.6172ZM78.6328 23.498C79.2227 23.498 79.6387 23.3281 79.8809 22.9883C80.123 22.6484 80.248 22.1387 80.2559 21.459V21.2773C80.2559 20.5508 80.1387 19.9941 79.9043 19.6074C79.6699 19.2168 79.2422 19.0215 78.6211 19.0215C78.125 19.0215 77.7461 19.2227 77.4844 19.625C77.2266 20.0234 77.0977 20.5801 77.0977 21.2949C77.0977 22.0098 77.2266 22.5566 77.4844 22.9355C77.7461 23.3105 78.1289 23.498 78.6328 23.498Z" fill="#616161"/>
</svg>
