<svg width="28" height="8" viewBox="0 0 28 8" fill="none" xmlns="http://www.w3.org/2000/svg">
<path d="M0 4C0 1.79086 1.79086 0 4 0C6.20914 0 8 1.79086 8 4C8 6.20914 6.20914 8 4 8C1.79086 8 0 6.20914 0 4Z" fill="#FBB7AE"/>
<path d="M10 4C10 1.79086 11.7909 0 14 0C16.2091 0 18 1.79086 18 4C18 6.20914 16.2091 8 14 8C11.7909 8 10 6.20914 10 4Z" fill="#B2D0FF"/>
<path d="M20 4C20 1.79086 21.7909 0 24 0C26.2091 0 28 1.79086 28 4C28 6.20914 26.2091 8 24 8C21.7909 8 20 6.20914 20 4Z" fill="#D9F1B7"/>
</svg>
