<svg width="22" height="18" viewBox="0 0 22 18" fill="none" xmlns="http://www.w3.org/2000/svg">
<path d="M9.29232 17.3366C8.13954 17.3366 7.05621 17.1178 6.04232 16.6803C5.02843 16.2428 4.14648 15.6491 3.39648 14.8991C2.64648 14.1491 2.05273 13.2671 1.61523 12.2533C1.17773 11.2394 0.958984 10.156 0.958984 9.00325C0.958984 7.85048 1.17773 6.76714 1.61523 5.75325C2.05273 4.73937 2.64648 3.85742 3.39648 3.10742C4.14648 2.35742 5.02843 1.76367 6.04232 1.32617C7.05621 0.888672 8.13954 0.669922 9.29232 0.669922C11.4034 0.669922 13.2333 1.35048 14.7819 2.71159C16.3305 4.0727 17.2507 5.76714 17.5423 7.79492C17.2645 7.65603 16.9763 7.54839 16.6777 7.47201C16.3791 7.39562 16.0701 7.35048 15.7507 7.33659C15.4868 6.3227 15.0111 5.41992 14.3236 4.62826C13.6361 3.83659 12.7923 3.23937 11.7923 2.83659V3.16992C11.7923 3.62826 11.6291 4.02062 11.3027 4.34701C10.9763 4.67339 10.584 4.83659 10.1257 4.83659H8.45898V6.50325C8.45898 6.73937 8.37912 6.93728 8.2194 7.09701C8.05968 7.25673 7.86176 7.33659 7.62565 7.33659H5.95898V9.00325H10.959C11.1118 9.00325 11.2541 9.04145 11.3861 9.11784C11.518 9.19423 11.6187 9.30187 11.6882 9.44076C11.452 9.81576 11.2715 10.2116 11.1465 10.6283C11.0215 11.0449 10.959 11.4755 10.959 11.9199C10.959 12.7949 11.1847 13.6074 11.6361 14.3574C12.0875 15.1074 12.5493 15.8088 13.0215 16.4616C12.452 16.7394 11.8548 16.9546 11.2298 17.1074C10.6048 17.2602 9.95898 17.3366 9.29232 17.3366ZM8.45898 15.6283V14.0033C8.00065 14.0033 7.60829 13.8401 7.2819 13.5137C6.95551 13.1873 6.79232 12.7949 6.79232 12.3366V11.5033L2.79232 7.50325C2.75065 7.75325 2.71246 8.00326 2.67773 8.25326C2.64301 8.50326 2.62565 8.75325 2.62565 9.00325C2.62565 10.6838 3.17773 12.156 4.2819 13.4199C5.38607 14.6838 6.77843 15.4199 8.45898 15.6283Z" fill="#4B5563"/>
<path d="M12.3662 16.3305V15.1642C12.3662 14.9282 12.427 14.7112 12.5485 14.5134C12.6699 14.3155 12.8314 14.1646 13.0327 14.0604C13.4631 13.8452 13.9004 13.6838 14.3447 13.5762C14.789 13.4686 15.2402 13.4148 15.6984 13.4148C16.1566 13.4148 16.6078 13.4686 17.0521 13.5762C17.4964 13.6838 17.9338 13.8452 18.3642 14.0604C18.5655 14.1646 18.7269 14.3155 18.8484 14.5134C18.9699 14.7112 19.0306 14.9282 19.0306 15.1642V16.3305L15.6984 16.9688L12.3662 16.3305ZM19.8637 16.3305V15.0809C19.8637 14.7755 19.7786 14.4822 19.6085 14.201C19.4385 13.9199 19.1972 13.6786 18.8848 13.4773C19.2389 13.5189 19.5721 13.5901 19.8845 13.6908C20.1969 13.7914 20.4885 13.9146 20.7592 14.0604C21.0091 14.1993 21.2 14.3537 21.3319 14.5238C21.4638 14.6939 21.5298 14.8796 21.5298 15.0809V16.3305H19.8637ZM15.6984 12.9983C15.2402 12.9983 14.848 12.8352 14.5217 12.5089C14.1955 12.1826 14.0323 11.7904 14.0323 11.3322C14.0323 10.874 14.1955 10.4818 14.5217 10.1555C14.848 9.82924 15.2402 9.6661 15.6984 9.6661C16.1566 9.6661 16.5488 9.82924 16.8751 10.1555C17.2014 10.4818 17.3645 10.874 17.3645 11.3322C17.3645 11.7904 17.2014 12.1826 16.8751 12.5089C16.5488 12.8352 16.1566 12.9983 15.6984 12.9983ZM19.8637 11.3322C19.8637 11.7904 19.7005 12.1826 19.3743 12.5089C19.048 12.8352 18.6557 12.9983 18.1976 12.9983C18.1212 12.9983 18.024 12.9896 17.906 12.9723C17.788 12.9549 17.6908 12.9358 17.6144 12.915C17.8019 12.6928 17.9459 12.4464 18.0466 12.1757C18.1472 11.9049 18.1976 11.6238 18.1976 11.3322C18.1976 11.0406 18.1472 10.7595 18.0466 10.4887C17.9459 10.218 17.8019 9.97155 17.6144 9.7494C17.7116 9.71469 17.8088 9.69213 17.906 9.68172C18.0032 9.6713 18.1004 9.6661 18.1976 9.6661C18.6557 9.6661 19.048 9.82924 19.3743 10.1555C19.7005 10.4818 19.8637 10.874 19.8637 11.3322Z" fill="#4B5563"/>
</svg>
