<svg width="19" height="18" viewBox="0 0 19 18" fill="none" xmlns="http://www.w3.org/2000/svg">
<path d="M9.1595 17.3332C8.00673 17.3332 6.92339 17.1144 5.9095 16.6769C4.89562 16.2394 4.01367 15.6457 3.26367 14.8957C2.51367 14.1457 1.91992 13.2637 1.48242 12.2498C1.04492 11.2359 0.826172 10.1526 0.826172 8.99984C0.826172 7.84706 1.04492 6.76373 1.48242 5.74984C1.91992 4.73595 2.51367 3.854 3.26367 3.104C4.01367 2.354 4.89562 1.76025 5.9095 1.32275C6.92339 0.885254 8.00673 0.666504 9.1595 0.666504C11.2706 0.666504 13.1005 1.34706 14.6491 2.70817C16.1977 4.06928 17.1178 5.76373 17.4095 7.7915C17.1317 7.65262 16.8435 7.54498 16.5449 7.46859C16.2463 7.3922 15.9373 7.34706 15.6178 7.33317C15.3539 6.31928 14.8783 5.4165 14.1908 4.62484C13.5033 3.83317 12.6595 3.23595 11.6595 2.83317V3.1665C11.6595 3.62484 11.4963 4.0172 11.1699 4.34359C10.8435 4.66998 10.4512 4.83317 9.99284 4.83317H8.32617V6.49984C8.32617 6.73595 8.24631 6.93387 8.08659 7.09359C7.92687 7.25331 7.72895 7.33317 7.49284 7.33317H5.82617V8.99984H10.8262C10.9789 8.99984 11.1213 9.03803 11.2533 9.11442C11.3852 9.19081 11.4859 9.29845 11.5553 9.43734C11.3192 9.81234 11.1387 10.2082 11.0137 10.6248C10.8887 11.0415 10.8262 11.4721 10.8262 11.9165C10.8262 12.7915 11.0519 13.604 11.5033 14.354C11.9546 15.104 12.4164 15.8054 12.8887 16.4582C12.3192 16.7359 11.722 16.9512 11.097 17.104C10.472 17.2568 9.82617 17.3332 9.1595 17.3332ZM8.32617 15.6248V13.9998C7.86784 13.9998 7.47548 13.8366 7.14909 13.5103C6.8227 13.1839 6.6595 12.7915 6.6595 12.3332V11.4998L2.65951 7.49984C2.61784 7.74984 2.57964 7.99984 2.54492 8.24984C2.5102 8.49984 2.49284 8.74984 2.49284 8.99984C2.49284 10.6804 3.04492 12.1526 4.14909 13.4165C5.25325 14.6804 6.64562 15.4165 8.32617 15.6248ZM15.4095 17.3332C15.3123 17.3332 15.2289 17.3054 15.1595 17.2498C15.0901 17.1943 15.0414 17.1248 15.0137 17.0415C14.8609 16.5554 14.6456 16.104 14.3678 15.6873C14.0901 15.2707 13.7914 14.8609 13.472 14.4582C13.1803 14.0971 12.9442 13.7012 12.7637 13.2707C12.5831 12.8401 12.4928 12.3887 12.4928 11.9165C12.4928 11.1109 12.7776 10.4234 13.347 9.854C13.9164 9.28456 14.6039 8.99984 15.4095 8.99984C16.2151 8.99984 16.9026 9.28456 17.472 9.854C18.0415 10.4234 18.3262 11.1109 18.3262 11.9165C18.3262 12.3887 18.2324 12.8366 18.0449 13.2603C17.8574 13.6839 17.6248 14.0832 17.347 14.4582C17.0276 14.8609 16.7289 15.2707 16.4512 15.6873C16.1734 16.104 15.9581 16.5554 15.8053 17.0415C15.7776 17.1248 15.729 17.1943 15.6595 17.2498C15.5901 17.3054 15.5067 17.3332 15.4095 17.3332ZM15.4095 14.979C15.5484 14.7429 15.7012 14.5241 15.8678 14.3228C16.0345 14.1214 16.1942 13.9165 16.347 13.7082C16.5414 13.4443 16.7116 13.163 16.8574 12.8644C17.0033 12.5658 17.0762 12.2498 17.0762 11.9165C17.0762 11.4582 16.913 11.0658 16.5866 10.7394C16.2602 10.413 15.8678 10.2498 15.4095 10.2498C14.9512 10.2498 14.5588 10.413 14.2324 10.7394C13.906 11.0658 13.7428 11.4582 13.7428 11.9165C13.7428 12.2498 13.8158 12.5658 13.9616 12.8644C14.1074 13.163 14.2776 13.4443 14.472 13.7082C14.6387 13.9165 14.8019 14.1214 14.9616 14.3228C15.1213 14.5241 15.2706 14.7429 15.4095 14.979ZM15.4095 12.9582C15.1178 12.9582 14.8713 12.8575 14.6699 12.6561C14.4685 12.4547 14.3678 12.2082 14.3678 11.9165C14.3678 11.6248 14.4685 11.3783 14.6699 11.1769C14.8713 10.9755 15.1178 10.8748 15.4095 10.8748C15.7012 10.8748 15.9477 10.9755 16.1491 11.1769C16.3505 11.3783 16.4512 11.6248 16.4512 11.9165C16.4512 12.2082 16.3505 12.4547 16.1491 12.6561C15.9477 12.8575 15.7012 12.9582 15.4095 12.9582Z" fill="#4B5563"/>
</svg>
