<svg width="21" height="14" viewBox="0 0 21 14" fill="none" xmlns="http://www.w3.org/2000/svg">
<path d="M3.15938 6C2.03438 6 1.15938 5.125 1.15938 4C1.15938 2.90625 2.03438 2 3.15938 2C4.25313 2 5.15938 2.90625 5.15938 4C5.15938 5.125 4.25313 6 3.15938 6ZM17.1594 6C16.0344 6 15.1594 5.125 15.1594 4C15.1594 2.90625 16.0344 2 17.1594 2C18.2531 2 19.1594 2.90625 19.1594 4C19.1594 5.125 18.2531 6 17.1594 6ZM18.1594 7C19.2531 7 20.1594 7.90625 20.1594 9V10C20.1594 10.5625 19.6906 11 19.1594 11H17.0969C16.8781 9.53125 16.0031 8.28125 14.7219 7.59375C15.0969 7.25 15.5969 7 16.1594 7H18.1594ZM10.1594 7C8.22188 7 6.65938 5.4375 6.65938 3.5C6.65938 1.59375 8.22188 0 10.1594 0C12.0656 0 13.6594 1.59375 13.6594 3.5C13.6594 5.4375 12.0656 7 10.1594 7ZM12.5344 8C14.5344 8 16.1594 9.625 16.1594 11.625V12.5C16.1594 13.3438 15.4719 14 14.6594 14H5.65938C4.81563 14 4.15938 13.3438 4.15938 12.5V11.625C4.15938 9.625 5.75313 8 7.75313 8H8.00313C8.65938 8.3125 9.37813 8.5 10.1594 8.5C10.9094 8.5 11.6281 8.3125 12.2844 8H12.5344ZM5.56563 7.59375C4.28438 8.28125 3.40938 9.53125 3.19063 11H1.15938C0.596875 11 0.159375 10.5625 0.159375 10V9C0.159375 7.90625 1.03438 7 2.15938 7H4.15938C4.69063 7 5.19063 7.25 5.56563 7.59375Z" fill="#4B5563" fill-opacity="0.3"/>
</svg>
