<svg width="32" height="40" viewBox="0 0 32 40" fill="none" xmlns="http://www.w3.org/2000/svg">
<g opacity="0.8">
<path d="M14.9438 12.5H17.4438C17.85 12.5 18.1938 12.8438 18.1938 13.25V18.5H20.9125C21.475 18.5 21.7563 19.1875 21.35 19.5938L16.6 24.3438C16.3813 24.5625 15.975 24.5625 15.7563 24.3438L11.0063 19.5938C10.6 19.1875 10.8813 18.5 11.4438 18.5H14.1938V13.25C14.1938 12.8438 14.5063 12.5 14.9438 12.5ZM24.1938 24.25V27.75C24.1938 28.1875 23.85 28.5 23.4438 28.5H8.94375C8.50625 28.5 8.19375 28.1875 8.19375 27.75V24.25C8.19375 23.8438 8.50625 23.5 8.94375 23.5H13.5063L15.0375 25.0312C15.6625 25.6875 16.6938 25.6875 17.3188 25.0312L18.85 23.5H23.4438C23.85 23.5 24.1938 23.8438 24.1938 24.25ZM20.3188 27C20.3188 26.6562 20.0375 26.375 19.6938 26.375C19.35 26.375 19.0688 26.6562 19.0688 27C19.0688 27.3438 19.35 27.625 19.6938 27.625C20.0375 27.625 20.3188 27.3438 20.3188 27ZM22.3188 27C22.3188 26.6562 22.0375 26.375 21.6938 26.375C21.35 26.375 21.0688 26.6562 21.0688 27C21.0688 27.3438 21.35 27.625 21.6938 27.625C22.0375 27.625 22.3188 27.3438 22.3188 27Z" fill="#4B5563"/>
</g>
</svg>
