<svg width="18" height="18" viewBox="0 0 18 18" fill="none" xmlns="http://www.w3.org/2000/svg">
<g opacity="0.8" clip-path="url(#clip0_5262_23440)">
<path d="M8.09961 5.40039V9.90039H8.15361L10.3856 12.1234L11.6546 10.8544L9.89961 9.09939V5.40039H8.09961Z" fill="#5D6979"/>
<path d="M8.99922 -0.0996094C7.59272 -0.0950926 6.21164 0.275586 4.9919 0.975944C3.77217 1.6763 2.75582 2.6822 2.04289 3.89463C1.32996 5.10706 0.945029 6.48424 0.925974 7.89061C0.906919 9.29699 1.2544 10.6841 1.93422 11.9154L0.449219 13.4004H5.39922V8.45039L3.25722 10.5924C2.69767 9.35282 2.55427 7.96546 2.84846 6.63765C3.14264 5.30983 3.8586 4.11287 4.88935 3.22563C5.9201 2.3384 7.21029 1.80854 8.56709 1.71523C9.9239 1.62193 11.2745 1.9702 12.417 2.70799C13.5595 3.44577 14.4325 4.53347 14.9057 5.80851C15.3789 7.08356 15.4267 8.47748 15.0421 9.78198C14.6575 11.0865 13.8611 12.2315 12.7719 13.0459C11.6827 13.8603 10.3592 14.3004 8.99922 14.3004V16.1004C11.1475 16.1004 13.2077 15.247 14.7268 13.728C16.2458 12.2089 17.0992 10.1486 17.0992 8.00039C17.0992 5.85214 16.2458 3.79187 14.7268 2.27283C13.2077 0.753781 11.1475 -0.0996094 8.99922 -0.0996094Z" fill="#5D6979"/>
</g>
<defs>
<clipPath id="clip0_5262_23440">
<rect width="18" height="18" fill="white"/>
</clipPath>
</defs>
</svg>
