<svg width="16" height="11" viewBox="0 0 16 11" fill="none" xmlns="http://www.w3.org/2000/svg">
<g opacity="0.8">
<path d="M10.2243 6.05H10.2358C11.1676 6.05 11.9305 5.29352 11.9382 4.35976C11.9446 3.42152 11.1862 2.65288 10.2473 2.64648H10.2364C9.30396 2.64648 8.54108 3.40232 8.53468 4.34696C8.53148 5.28264 9.28988 6.0468 10.2243 6.05Z" fill="#5C6777"/>
<path d="M6.17755 10.4293H6.18907C7.12153 10.4293 7.88377 9.67218 7.89081 8.73842C7.89401 8.28402 7.71929 7.85585 7.39993 7.53202C7.08057 7.2088 6.65433 7.02896 6.19995 7.02576C5.74683 7.01616 5.31739 7.19664 4.99419 7.51602C4.67035 7.83474 4.49051 8.26098 4.48731 8.72626C4.48603 9.17938 4.66075 9.60626 4.98011 9.92754C5.29947 10.2495 5.72507 10.4274 6.17755 10.4293Z" fill="#5C6777"/>
<path d="M7.8131 4.98703C7.89803 4.98703 7.95934 4.90584 7.94225 4.82269C7.91051 4.66797 7.89406 4.50775 7.89464 4.3437C7.89579 4.18189 7.91307 4.02409 7.94494 3.87181C7.96241 3.78855 7.90104 3.70703 7.81598 3.70703H2.97545C2.62217 3.70703 2.33545 3.99375 2.33545 4.34703C2.33545 4.70031 2.62217 4.98703 2.97545 4.98703H7.8131Z" fill="#5C6777"/>
<path d="M13.6384 4.98703H12.6584C12.5733 4.98703 12.512 4.90562 12.5293 4.82239C12.56 4.67448 12.5767 4.52148 12.5781 4.36482V4.36354C12.5792 4.195 12.5623 4.03043 12.5294 3.87166C12.5121 3.78843 12.5735 3.70703 12.6585 3.70703H13.6384C13.9923 3.70703 14.2784 3.99375 14.2784 4.34703C14.2784 4.70031 13.9923 4.98703 13.6384 4.98703Z" fill="#5C6777"/>
<path d="M3.89463 9.20373C3.91157 9.2868 3.85025 9.36789 3.76544 9.36789H2.97594C2.62202 9.36789 2.33594 9.08117 2.33594 8.72789C2.33594 8.37461 2.62202 8.08789 2.97594 8.08789H3.7668C3.85162 8.08789 3.91295 8.16891 3.89593 8.25198C3.86464 8.40475 3.84813 8.56238 3.84716 8.72328C3.84666 8.88661 3.86274 9.04738 3.89463 9.20373Z" fill="#5C6777"/>
<path d="M13.6398 9.36789H8.61097C8.52598 9.36789 8.4646 9.28642 8.48195 9.20315C8.51292 9.05429 8.52969 8.90024 8.53091 8.74248C8.53212 8.57582 8.51593 8.41173 8.48323 8.25218C8.4662 8.16904 8.52752 8.08789 8.61238 8.08789H13.6398C13.9931 8.08789 14.2798 8.37461 14.2798 8.72789C14.2798 9.08117 13.9931 9.36789 13.6398 9.36789Z" fill="#5C6777"/>
</g>
</svg>
