<svg width="15" height="16" viewBox="0 0 15 16" fill="none" xmlns="http://www.w3.org/2000/svg">
<path opacity="0.8" d="M7.18125 8C4.9625 8 3.18125 6.21875 3.18125 4C3.18125 1.8125 4.9625 0 7.18125 0C9.36875 0 11.1813 1.8125 11.1813 4C11.1813 6.21875 9.36875 8 7.18125 8ZM9.9625 9C12.275 9 14.1813 10.9062 14.1813 13.2188V14.5C14.1813 15.3438 13.4938 16 12.6813 16H1.68125C0.8375 16 0.18125 15.3438 0.18125 14.5V13.2188C0.18125 10.9062 2.05625 9 4.36875 9H4.9C5.5875 9.34375 6.36875 9.5 7.18125 9.5C7.99375 9.5 8.74375 9.34375 9.43125 9H9.9625Z" fill="#5C6777"/>
</svg>
