<svg width="405" height="249" viewBox="0 0 405 249" fill="none" xmlns="http://www.w3.org/2000/svg">
<path d="M202.5 0.572266C285.343 0.572266 352.5 67.7296 352.5 150.572C352.5 187.291 339.305 220.927 317.399 247.001H87.6006C65.6954 220.927 52.5 187.291 52.5 150.572C52.5 67.7296 119.657 0.572266 202.5 0.572266Z" fill="#F0F3FC"/>
<g opacity="0.15">
<path d="M290.989 156.29C290.989 156.668 290.681 156.976 290.303 156.976C289.925 156.975 289.619 156.668 289.619 156.29V146.165C289.619 145.976 289.463 145.828 289.28 145.781C289.213 145.764 289.146 145.741 289.08 145.713L284.766 143.864C284.195 143.619 283.86 143.021 283.951 142.406L288.772 109.592C288.809 109.34 288.915 109.104 289.079 108.909L290.384 107.357C290.59 107.113 290.989 107.258 290.989 107.578V156.29Z" fill="#9D9FA4"/>
<path d="M290.989 155.604C290.989 155.983 290.681 156.29 290.303 156.29C289.925 156.29 289.619 155.983 289.619 155.604V145.48C289.619 145.291 289.463 145.142 289.28 145.095C289.213 145.078 289.146 145.056 289.08 145.027L284.766 143.179C284.195 142.934 283.86 142.335 283.951 141.721L288.772 108.906C288.809 108.655 288.915 108.418 289.079 108.224L290.384 106.672C290.59 106.427 290.989 106.573 290.989 106.892V155.604Z" fill="#BCBEC4"/>
<path d="M290.326 155.263C290.653 155.074 291.073 155.186 291.262 155.514C291.451 155.841 291.338 156.26 291.011 156.449L282.243 161.512C282.079 161.606 282.028 161.815 282.079 161.997C282.098 162.064 282.112 162.133 282.12 162.205L282.676 166.865C282.749 167.482 282.399 168.071 281.821 168.3L250.992 180.532C250.756 180.625 250.498 180.652 250.248 180.607L248.251 180.253C247.936 180.197 247.863 179.779 248.14 179.619L290.326 155.263Z" fill="#9D9FA4"/>
<path d="M289.983 154.919C290.311 154.73 290.731 154.842 290.92 155.17C291.109 155.497 290.996 155.917 290.668 156.106L281.9 161.168C281.737 161.262 281.685 161.471 281.737 161.653C281.755 161.72 281.769 161.789 281.778 161.861L282.334 166.521C282.407 167.138 282.056 167.727 281.479 167.956L250.65 180.188C250.414 180.282 250.156 180.308 249.905 180.264L247.908 179.909C247.594 179.853 247.52 179.435 247.797 179.275L289.983 154.919Z" fill="#BCBEC4"/>
<path d="M290.212 156.92C289.884 156.731 289.772 156.311 289.961 155.983C290.15 155.656 290.57 155.544 290.897 155.733L299.665 160.796C299.829 160.89 300.036 160.83 300.168 160.695C300.216 160.645 300.269 160.598 300.327 160.555L304.084 157.744C304.582 157.372 305.268 157.381 305.755 157.767L331.762 178.349C331.962 178.507 332.113 178.717 332.2 178.956L332.891 180.863C333 181.163 332.675 181.436 332.398 181.276L290.212 156.92Z" fill="#9D9FA4"/>
<path d="M290.212 156.234C289.884 156.045 289.772 155.625 289.961 155.298C290.15 154.971 290.57 154.859 290.897 155.048L299.665 160.11C299.829 160.205 300.036 160.144 300.168 160.009C300.216 159.959 300.269 159.913 300.327 159.869L304.084 157.058C304.582 156.686 305.268 156.695 305.755 157.081L331.762 177.664C331.962 177.821 332.113 178.032 332.2 178.27L332.891 180.177C333 180.478 332.675 180.75 332.398 180.591L290.212 156.234Z" fill="#BCBEC4"/>
<path d="M290.988 153.119C292.501 153.119 293.727 154.346 293.727 155.858C293.727 156.99 293.042 157.96 292.063 158.378L297.495 248.999H284.482L289.912 158.378C288.934 157.96 288.249 156.989 288.249 155.858C288.249 154.346 289.475 153.119 290.988 153.119Z" fill="#9D9FA4"/>
<path d="M290.303 153.119C291.816 153.119 293.042 154.346 293.042 155.858C293.042 156.99 292.357 157.96 291.378 158.378L296.81 248.999H283.797L289.227 158.378C288.249 157.96 287.564 156.989 287.564 155.858C287.564 154.346 288.79 153.119 290.303 153.119Z" fill="#BCBEC4"/>
</g>
<g opacity="0.6">
<rect x="56.5" y="123" width="26.7138" height="62.9968" rx="13.3569" fill="#E9EBF2"/>
<rect x="69.2589" y="148.518" width="1.59486" height="98.4823" rx="0.797428" fill="#E1E2E5"/>
<rect x="75.8385" y="152.02" width="1.59486" height="13.443" rx="0.797428" transform="rotate(30 75.8385 152.02)" fill="#E1E2E5"/>
<rect width="1.59486" height="18.9128" rx="0.797428" transform="matrix(0.866025 -0.5 -0.5 -0.866025 69.7009 173.49)" fill="#E1E2E5"/>
</g>
<rect x="91.5" y="71" width="38.1994" height="90.0821" rx="19.0997" fill="#E9EBF2"/>
<rect x="109.745" y="107.488" width="2.28056" height="140.825" rx="1.14028" fill="#E1E2E5"/>
<rect x="119.153" y="112.496" width="2.28056" height="19.2228" rx="1.14028" transform="rotate(30 119.153 112.496)" fill="#E1E2E5"/>
<rect width="2.28056" height="27.0444" rx="1.14028" transform="matrix(0.866025 -0.5 -0.5 -0.866025 110.377 143.199)" fill="#E1E2E5"/>
<path opacity="0.8" d="M129.567 45C133.948 45 137.5 48.5518 137.5 52.9326C137.5 53.0019 137.496 53.0708 137.494 53.1396C141.784 53.2445 145.228 56.7528 145.229 61.0674C145.229 65.3802 141.787 68.8862 137.5 68.9941V69H121.636V68.9941C121.568 68.9958 121.501 69 121.433 69C117.052 69 113.5 65.4482 113.5 61.0674C113.5 56.6867 117.052 53.1357 121.433 53.1357C121.502 53.1357 121.571 53.1388 121.641 53.1406C121.639 53.0715 121.636 53.0022 121.636 52.9326C121.636 48.5519 125.187 45.0002 129.567 45Z" fill="white"/>
<path opacity="0.6" d="M268.855 69C270.316 69 271.5 70.1843 271.5 71.6445C271.5 71.6681 271.497 71.6915 271.496 71.7148C272.927 71.7488 274.076 72.9168 274.076 74.3555C274.076 75.7931 272.929 76.9601 271.5 76.9961V77H266.212V76.9961C266.189 76.9967 266.167 77 266.145 77C264.684 77 263.5 75.8157 263.5 74.3555C263.5 72.8954 264.684 71.7119 266.145 71.7119C266.168 71.7119 266.191 71.7142 266.215 71.7148C266.214 71.6915 266.212 71.6681 266.212 71.6445C266.212 70.1844 267.395 69.0002 268.855 69Z" fill="white"/>
<path d="M213.528 10C218.787 10.0001 223.304 13.1645 225.285 17.6924C226.56 16.7897 228.117 16.2578 229.798 16.2578C233.751 16.2578 237.018 19.1911 237.544 23H240.48C244.07 23.0003 246.98 25.9103 246.98 29.5C246.98 33.0897 244.07 35.9997 240.48 36H202C198.41 36 195.5 33.0898 195.5 29.5C195.5 26.3542 197.735 23.7299 200.703 23.1289C200.701 23.0289 200.7 22.9287 200.7 22.8281C200.7 15.7433 206.444 10 213.528 10Z" fill="white"/>
<path opacity="0.6" d="M164.854 86C167 86.0001 168.843 87.2919 169.65 89.1396C170.171 88.7712 170.805 88.5527 171.491 88.5527C173.104 88.5528 174.437 89.7491 174.651 91.3027H175.849C177.313 91.3028 178.5 92.49 178.5 93.9541C178.5 95.4184 177.313 96.6064 175.849 96.6064H160.151C158.687 96.6064 157.5 95.4184 157.5 93.9541C157.5 92.6705 158.412 91.599 159.624 91.3545C159.623 91.3142 159.621 91.2739 159.621 91.2334C159.621 88.3433 161.964 86 164.854 86Z" fill="white"/>
<path d="M320.885 103.216C320.885 103.811 320.402 104.293 319.808 104.293C319.213 104.293 318.731 103.811 318.731 103.216V87.296C318.731 86.9987 318.486 86.7645 318.198 86.6907C318.092 86.6636 317.987 86.6279 317.882 86.583L311.101 83.6768C310.203 83.2919 309.675 82.3505 309.818 81.3838L317.4 29.7832C317.458 29.3877 317.625 29.0159 317.882 28.71L319.934 26.2692C320.258 25.8846 320.885 26.1133 320.885 26.6157V103.216Z" fill="#DCDFE6"/>
<path d="M320.885 102.14C320.885 102.734 320.402 103.217 319.808 103.217C319.213 103.217 318.731 102.734 318.731 102.14V86.2198C318.731 85.9225 318.486 85.6883 318.198 85.6145C318.092 85.5874 317.987 85.5517 317.882 85.5068L311.101 82.6006C310.203 82.2157 309.675 81.2743 309.818 80.3076L317.4 28.7061C317.458 28.3107 317.625 27.9396 317.882 27.6338L319.934 25.193C320.258 24.8085 320.885 25.0371 320.885 25.5395V102.14Z" fill="#E9EBF2"/>
<path d="M319.843 101.601C320.358 101.304 321.017 101.481 321.314 101.996C321.611 102.511 321.435 103.169 320.921 103.467L307.134 111.427C306.876 111.575 306.795 111.904 306.875 112.191C306.904 112.296 306.926 112.405 306.94 112.519L307.813 119.844C307.929 120.815 307.377 121.742 306.469 122.102L257.991 141.336C257.619 141.484 257.214 141.525 256.82 141.455L253.681 140.898C253.186 140.81 253.07 140.152 253.506 139.901L319.843 101.601Z" fill="#DCDFE6"/>
<path d="M319.304 101.062C319.819 100.765 320.478 100.942 320.776 101.457C321.073 101.972 320.897 102.631 320.382 102.928L306.595 110.888C306.337 111.037 306.257 111.366 306.337 111.652C306.366 111.757 306.388 111.866 306.401 111.979L307.275 119.305C307.391 120.276 306.839 121.203 305.931 121.563L257.453 140.797C257.081 140.945 256.676 140.986 256.282 140.916L253.142 140.359C252.647 140.271 252.532 139.614 252.967 139.362L319.304 101.062Z" fill="#E9EBF2"/>
<path d="M319.663 104.206C319.148 103.909 318.972 103.25 319.269 102.735C319.566 102.22 320.225 102.043 320.741 102.34L334.528 110.3C334.785 110.449 335.11 110.354 335.318 110.142C335.394 110.064 335.478 109.99 335.569 109.922L341.477 105.502C342.259 104.917 343.338 104.931 344.104 105.538L385.001 137.905C385.315 138.153 385.553 138.483 385.69 138.859L386.777 141.856C386.948 142.329 386.436 142.758 386.001 142.506L319.663 104.206Z" fill="#DCDFE6"/>
<path d="M319.663 103.128C319.148 102.831 318.972 102.172 319.269 101.657C319.566 101.142 320.225 100.965 320.741 101.262L334.528 109.222C334.785 109.371 335.11 109.276 335.318 109.064C335.394 108.986 335.478 108.912 335.569 108.844L341.477 104.424C342.259 103.839 343.338 103.853 344.104 104.459L385.001 136.826C385.315 137.074 385.553 137.405 385.689 137.78L386.776 140.778C386.948 141.25 386.436 141.679 386.001 141.428L319.663 103.128Z" fill="#E9EBF2"/>
<path d="M320.884 98.2305C323.263 98.2305 325.192 100.159 325.192 102.538C325.192 104.317 324.114 105.844 322.575 106.501L331.116 249H310.654L319.193 106.501C317.655 105.844 316.577 104.317 316.577 102.538C316.577 100.159 318.505 98.2306 320.884 98.2305Z" fill="#DCDFE6"/>
<path d="M319.807 98.2305C322.186 98.2305 324.115 100.159 324.115 102.538C324.115 104.317 323.037 105.844 321.498 106.501L330.039 249H309.577L318.116 106.501C316.578 105.844 315.5 104.317 315.5 102.538C315.5 100.159 317.428 98.2306 319.807 98.2305Z" fill="#E9EBF2"/>
<path d="M341.406 246H330.467C317.793 246 323.261 242.234 326.468 241.503C319.301 238.947 324.582 234.131 328.204 236.14C325.941 227.375 333.674 229.201 335.183 234.131C338.2 229.019 343.481 231.575 340.275 237.053C345.744 234.679 345.744 239.427 343.481 240.887C348.95 241.8 345.894 243.512 342.876 243.512C346.46 245.52 343.819 246 341.406 246Z" fill="#D7D8DE"/>
<path d="M293.406 246H282.467C269.793 246 275.261 242.234 278.468 241.503C271.301 238.947 276.582 234.131 280.204 236.14C277.941 227.375 285.674 229.201 287.183 234.131C290.2 229.019 295.481 231.575 292.275 237.053C297.744 234.679 297.744 239.427 295.481 240.887C300.95 241.8 297.894 243.512 294.876 243.512C298.46 245.52 295.819 246 293.406 246Z" fill="#D7D8DE"/>
<path d="M326.038 247H304.616C279.796 247 290.504 239.938 296.783 238.569C282.748 233.776 293.09 224.746 300.184 228.512C295.752 212.079 310.895 215.503 313.85 224.746C319.759 215.16 330.101 219.953 323.822 230.224C334.533 225.774 334.533 234.675 330.101 237.414C340.812 239.126 334.826 242.335 328.916 242.335C335.934 246.101 330.763 247 326.038 247Z" fill="#E1E1E6"/>
<path d="M282.903 226.831C282.76 225.833 282.342 224.83 281.492 224.143C283.481 224.205 284.238 224.746 285.061 225.553C287.053 227.504 285.986 229.886 284.818 229.504C283.651 229.123 283.052 227.865 282.903 226.831Z" fill="#E5E6ED"/>
<path d="M282.747 224.672C284.829 225.691 285.617 228.385 285.898 229.718L285.633 229.785C285.277 226.992 283.872 225.236 282.747 224.672C282.712 224.655 282.675 224.638 282.639 224.621C282.675 224.637 282.711 224.654 282.747 224.672Z" fill="#727785"/>
<path d="M284.641 225.399C284.984 225.828 284.88 226.486 284.806 226.801L284.742 226.788C284.949 226.153 284.825 225.634 284.641 225.399C284.635 225.392 284.629 225.384 284.623 225.377C284.629 225.384 284.635 225.391 284.641 225.399Z" fill="#727785"/>
<path d="M283.637 225.775C283.808 226.024 284.15 226.077 284.317 226.09L284.319 226.054C283.974 226.058 283.731 225.909 283.637 225.775C283.634 225.77 283.631 225.766 283.628 225.762C283.631 225.766 283.634 225.77 283.637 225.775Z" fill="#727785"/>
<path d="M285.46 226.391C285.681 226.895 285.411 227.504 285.258 227.788L285.2 227.76C285.563 227.199 285.578 226.666 285.46 226.391C285.456 226.383 285.452 226.374 285.448 226.365C285.452 226.374 285.456 226.382 285.46 226.391Z" fill="#727785"/>
<path d="M283.74 226.721C284.047 227.178 284.705 227.277 285.028 227.3L285.035 227.236C284.367 227.242 283.909 226.968 283.74 226.721C283.735 226.713 283.73 226.705 283.725 226.697C283.73 226.705 283.735 226.713 283.74 226.721Z" fill="#727785"/>
<path d="M283.728 227.769C284.155 228.433 285.042 228.6 285.475 228.645L285.482 228.553C284.587 228.537 283.963 228.128 283.728 227.769C283.721 227.758 283.713 227.746 283.706 227.734C283.713 227.746 283.72 227.758 283.728 227.769Z" fill="#727785"/>
<path d="M341.51 229.285C342.091 228.461 342.919 227.758 343.989 227.532C342.19 226.683 341.269 226.822 340.169 227.166C337.509 227.998 337.376 230.605 338.589 230.796C339.803 230.986 340.908 230.138 341.51 229.285Z" fill="#E5E6ED"/>
<path d="M342.63 227.434C340.314 227.395 338.387 229.436 337.531 230.496L337.736 230.676C339.323 228.349 341.372 227.424 342.63 227.434C342.67 227.434 342.711 227.436 342.751 227.438C342.711 227.435 342.671 227.434 342.63 227.434Z" fill="#727785"/>
<path d="M340.613 227.22C340.112 227.447 339.905 228.08 339.829 228.394L339.892 228.412C339.996 227.752 340.342 227.346 340.613 227.22C340.622 227.216 340.63 227.213 340.639 227.209C340.631 227.212 340.622 227.216 340.613 227.22Z" fill="#727785"/>
<path d="M341.338 228.01C341.072 228.154 340.743 228.046 340.589 227.981L340.603 227.949C340.908 228.109 341.193 228.087 341.338 228.01C341.342 228.007 341.347 228.005 341.351 228.002C341.347 228.005 341.342 228.007 341.338 228.01Z" fill="#727785"/>
<path d="M339.433 227.731C339.007 228.078 338.971 228.744 338.978 229.067L339.043 229.068C338.974 228.403 339.204 227.922 339.433 227.731C339.441 227.725 339.448 227.719 339.456 227.713C339.448 227.718 339.441 227.724 339.433 227.731Z" fill="#727785"/>
<path d="M340.815 228.807C340.334 229.075 339.703 228.864 339.405 228.738L339.428 228.677C340.02 228.986 340.553 228.95 340.815 228.807C340.823 228.803 340.831 228.798 340.839 228.793C340.832 228.798 340.823 228.803 340.815 228.807Z" fill="#727785"/>
<path d="M340.35 229.746C339.667 230.143 338.802 229.888 338.395 229.732L338.431 229.647C339.236 230.039 339.977 229.958 340.35 229.746C340.361 229.739 340.373 229.732 340.385 229.725C340.374 229.732 340.362 229.739 340.35 229.746Z" fill="#727785"/>
<path d="M318.601 212.924C318.671 211.918 319.016 210.888 319.813 210.14C317.834 210.346 317.119 210.942 316.356 211.806C314.512 213.896 315.749 216.195 316.886 215.729C318.022 215.264 318.529 213.965 318.601 212.924Z" fill="#E5E6ED"/>
<path d="M318.6 210.758C316.598 211.925 316.008 214.669 315.824 216.019L316.094 216.067C316.245 213.255 317.519 211.402 318.6 210.758C318.634 210.738 318.669 210.718 318.705 210.699C318.67 210.718 318.635 210.737 318.6 210.758Z" fill="#727785"/>
<path d="M316.764 211.623C316.453 212.076 316.605 212.725 316.702 213.033L316.765 213.016C316.512 212.397 316.598 211.871 316.764 211.623C316.77 211.615 316.775 211.607 316.781 211.6C316.775 211.607 316.77 211.615 316.764 211.623Z" fill="#727785"/>
<path d="M317.793 211.924C317.641 212.185 317.303 212.263 317.138 212.287L317.133 212.252C317.477 212.231 317.709 212.065 317.793 211.924C317.796 211.919 317.798 211.915 317.801 211.91C317.798 211.915 317.796 211.919 317.793 211.924Z" fill="#727785"/>
<path d="M316.019 212.669C315.835 213.187 316.149 213.775 316.322 214.048L316.378 214.015C315.975 213.483 315.922 212.952 316.019 212.669C316.022 212.66 316.026 212.651 316.029 212.643C316.026 212.651 316.022 212.66 316.019 212.669Z" fill="#727785"/>
<path d="M317.758 212.875C317.486 213.352 316.836 213.499 316.517 213.546L316.505 213.482C317.171 213.439 317.608 213.133 317.758 212.875C317.763 212.866 317.768 212.858 317.772 212.85C317.768 212.858 317.763 212.866 317.758 212.875Z" fill="#727785"/>
<path d="M317.847 213.919C317.469 214.613 316.597 214.843 316.168 214.92L316.154 214.829C317.046 214.747 317.639 214.294 317.847 213.919C317.854 213.907 317.86 213.895 317.866 213.883C317.86 213.895 317.854 213.907 317.847 213.919Z" fill="#727785"/>
<path d="M297 213.729C296.966 213.137 296.771 212.528 296.307 212.082C297.47 212.218 297.887 212.573 298.329 213.088C299.399 214.331 298.655 215.674 297.989 215.392C297.324 215.11 297.035 214.342 297 213.729Z" fill="#E5E6ED"/>
<path d="M297.017 212.455C298.186 213.157 298.513 214.775 298.611 215.571L298.453 215.597C298.384 213.942 297.648 212.842 297.017 212.455C296.997 212.443 296.976 212.431 296.956 212.42C296.976 212.431 296.996 212.443 297.017 212.455Z" fill="#727785"/>
<path d="M298.091 212.977C298.27 213.246 298.177 213.626 298.117 213.807L298.08 213.796C298.233 213.434 298.187 213.124 298.091 212.977C298.088 212.972 298.084 212.967 298.081 212.963C298.084 212.967 298.087 212.972 298.091 212.977Z" fill="#727785"/>
<path d="M297.483 213.147C297.571 213.301 297.769 213.35 297.866 213.365L297.869 213.345C297.667 213.33 297.531 213.23 297.483 213.147C297.482 213.144 297.48 213.141 297.479 213.139C297.48 213.141 297.482 213.144 297.483 213.147Z" fill="#727785"/>
<path d="M298.521 213.598C298.626 213.904 298.437 214.248 298.333 214.407L298.3 214.387C298.541 214.077 298.576 213.765 298.521 213.598C298.519 213.593 298.517 213.587 298.516 213.582C298.517 213.587 298.519 213.592 298.521 213.598Z" fill="#727785"/>
<path d="M297.497 213.706C297.653 213.989 298.034 214.08 298.222 214.11L298.23 214.073C297.838 214.043 297.583 213.859 297.497 213.706C297.494 213.701 297.491 213.696 297.489 213.691C297.491 213.696 297.494 213.701 297.497 213.706Z" fill="#727785"/>
<path d="M297.437 214.32C297.654 214.731 298.166 214.873 298.417 214.921L298.426 214.868C297.902 214.813 297.557 214.542 297.437 214.32C297.433 214.313 297.429 214.306 297.426 214.299C297.429 214.306 297.433 214.313 297.437 214.32Z" fill="#727785"/>
<path d="M75.0896 247.001H64.4758C52.1784 247.001 57.484 243.502 60.5949 242.823C53.641 240.448 58.7649 235.975 62.2798 237.841C60.0839 229.699 67.5867 231.395 69.0507 235.975C71.9786 231.225 77.1025 233.6 73.9916 238.689C79.2985 236.484 79.2985 240.894 77.1025 242.251C82.4094 243.099 79.4435 244.689 76.5156 244.689C79.9925 246.555 77.4306 247.001 75.0896 247.001Z" fill="#E9EBF2"/>
<path d="M80.9763 246.506H75.5565C69.277 246.506 71.9862 244.64 73.5747 244.278C70.0238 243.011 72.6403 240.625 74.4351 241.62C73.3138 237.278 77.145 238.182 77.8926 240.625C79.3877 238.092 82.0042 239.359 80.4156 242.073C83.1255 240.896 83.1255 243.249 82.0042 243.972C84.7141 244.425 83.1995 245.273 81.7044 245.273C83.4799 246.268 82.1717 246.506 80.9763 246.506Z" fill="#DFE0E6"/>
<path d="M56.7465 234.448C56.4587 234.04 56.0483 233.692 55.5183 233.58C56.4099 233.159 56.8659 233.228 57.4112 233.399C58.7291 233.811 58.795 235.102 58.1938 235.197C57.5925 235.291 57.0447 234.871 56.7465 234.448Z" fill="#E5E6ED"/>
<path d="M56.1914 233.531C57.3394 233.512 58.2939 234.523 58.7181 235.048L58.6162 235.138C57.8303 233.985 56.8147 233.526 56.1914 233.531C56.1716 233.532 56.1518 233.532 56.1318 233.533C56.1513 233.532 56.1712 233.531 56.1914 233.531Z" fill="#727785"/>
<path d="M57.191 233.426C57.4392 233.538 57.5415 233.851 57.5793 234.007L57.5484 234.016C57.4966 233.689 57.3252 233.488 57.191 233.426C57.1867 233.424 57.1824 233.422 57.178 233.42C57.1823 233.422 57.1866 233.424 57.191 233.426Z" fill="#727785"/>
<path d="M56.8321 233.816C56.9636 233.888 57.1267 233.834 57.2031 233.802L57.196 233.786C57.0451 233.865 56.9038 233.854 56.8321 233.816C56.8298 233.815 56.8276 233.814 56.8253 233.812C56.8275 233.814 56.8298 233.815 56.8321 233.816Z" fill="#727785"/>
<path d="M57.7756 233.679C57.9866 233.851 58.0046 234.181 58.0011 234.341L57.969 234.341C58.0031 234.012 57.8893 233.773 57.7756 233.679C57.772 233.676 57.7683 233.673 57.7645 233.67C57.7682 233.673 57.7719 233.676 57.7756 233.679Z" fill="#727785"/>
<path d="M57.091 234.21C57.329 234.343 57.6419 234.238 57.7895 234.176L57.7781 234.146C57.4847 234.299 57.2208 234.281 57.091 234.21C57.0869 234.208 57.0828 234.206 57.0787 234.203C57.0827 234.206 57.0868 234.208 57.091 234.21Z" fill="#727785"/>
<path d="M57.3215 234.676C57.6598 234.873 58.0884 234.747 58.2898 234.67L58.2723 234.627C57.8735 234.822 57.506 234.782 57.3215 234.676C57.3157 234.673 57.3099 234.67 57.3041 234.666C57.3097 234.67 57.3155 234.673 57.3215 234.676Z" fill="#727785"/>
<path d="M81.4787 237.917C81.7665 237.509 82.177 237.161 82.7069 237.049C81.8153 236.628 81.3593 236.697 80.8141 236.867C79.4961 237.28 79.4302 238.571 80.0315 238.666C80.6327 238.76 81.1805 238.34 81.4787 237.917Z" fill="#E5E6ED"/>
<path d="M82.0338 237C80.8858 236.981 79.9314 237.992 79.5071 238.517L79.609 238.606C80.3949 237.454 81.4105 236.995 82.0338 237C82.0536 237 82.0735 237.001 82.0934 237.002C82.0739 237.001 82.0541 237 82.0338 237Z" fill="#727785"/>
<path d="M81.0343 236.894C80.786 237.006 80.6837 237.32 80.6459 237.476L80.6768 237.485C80.7286 237.158 80.9 236.956 81.0343 236.894C81.0385 236.892 81.0429 236.89 81.0472 236.889C81.043 236.89 81.0386 236.892 81.0343 236.894Z" fill="#727785"/>
<path d="M81.3931 237.285C81.2616 237.357 81.0985 237.303 81.0221 237.271L81.0292 237.255C81.1802 237.334 81.3214 237.323 81.3931 237.285C81.3954 237.284 81.3977 237.283 81.3999 237.281C81.3977 237.283 81.3955 237.284 81.3931 237.285Z" fill="#727785"/>
<path d="M80.4496 237.147C80.2386 237.32 80.2206 237.649 80.2241 237.809L80.2563 237.81C80.2221 237.481 80.3359 237.242 80.4496 237.147C80.4532 237.144 80.4569 237.142 80.4607 237.139C80.457 237.141 80.4533 237.144 80.4496 237.147Z" fill="#727785"/>
<path d="M81.1342 237.679C80.8963 237.812 80.5833 237.707 80.4358 237.645L80.4471 237.615C80.7406 237.768 81.0044 237.75 81.1342 237.679C81.1383 237.677 81.1424 237.674 81.1465 237.672C81.1425 237.674 81.1385 237.677 81.1342 237.679Z" fill="#727785"/>
<path d="M80.9037 238.145C80.5654 238.342 80.1368 238.216 79.9354 238.138L79.9529 238.096C80.3517 238.29 80.7192 238.251 80.9037 238.145C80.9095 238.142 80.9154 238.138 80.9211 238.135C80.9155 238.138 80.9097 238.142 80.9037 238.145Z" fill="#727785"/>
<path d="M70.414 232.099C70.4487 231.601 70.6193 231.09 71.0146 230.72C70.0341 230.822 69.6796 231.117 69.3016 231.545C68.388 232.581 69.0008 233.72 69.564 233.489C70.1271 233.258 70.378 232.615 70.414 232.099Z" fill="#E5E6ED"/>
<path d="M70.4133 231.027C69.4215 231.605 69.1291 232.965 69.0382 233.634L69.1716 233.657C69.2467 232.264 69.8778 231.346 70.4133 231.027C70.4305 231.017 70.4478 231.008 70.4653 230.998C70.4481 231.007 70.4308 231.017 70.4133 231.027Z" fill="#727785"/>
<path d="M69.5039 231.455C69.3497 231.679 69.4248 232.001 69.4731 232.154L69.504 232.145C69.379 231.839 69.4213 231.578 69.5039 231.455C69.5066 231.451 69.5093 231.447 69.5121 231.443C69.5093 231.447 69.5066 231.451 69.5039 231.455Z" fill="#727785"/>
<path d="M70.0136 231.602C69.9381 231.732 69.7709 231.77 69.6889 231.783L69.6867 231.765C69.8569 231.755 69.9721 231.672 70.0136 231.602C70.0149 231.6 70.0162 231.598 70.0175 231.596C70.0163 231.598 70.015 231.6 70.0136 231.602Z" fill="#727785"/>
<path d="M69.1348 231.974C69.0437 232.231 69.199 232.522 69.285 232.657L69.3127 232.641C69.1129 232.377 69.0866 232.114 69.1348 231.974C69.1364 231.97 69.138 231.965 69.1398 231.961C69.138 231.965 69.1364 231.97 69.1348 231.974Z" fill="#727785"/>
<path d="M69.9965 232.075C69.8617 232.312 69.5397 232.384 69.3813 232.407L69.3754 232.376C69.7057 232.355 69.9221 232.203 69.9965 232.075C69.9988 232.071 70.0011 232.067 70.0033 232.062C70.0012 232.067 69.9989 232.071 69.9965 232.075Z" fill="#727785"/>
<path d="M70.0403 232.592C69.853 232.936 69.4209 233.05 69.2085 233.088L69.2016 233.043C69.6434 233.002 69.9371 232.778 70.0403 232.592C70.0436 232.586 70.0467 232.58 70.0498 232.574C70.0468 232.58 70.0437 232.586 70.0403 232.592Z" fill="#727785"/>
<path d="M59.9658 232.003C59.949 231.71 59.8523 231.408 59.6225 231.187C60.1986 231.254 60.405 231.431 60.6243 231.685C61.1543 232.301 60.7854 232.967 60.4557 232.827C60.1261 232.687 59.9832 232.307 59.9658 232.003Z" fill="#E5E6ED"/>
<path d="M59.974 231.371C60.5533 231.719 60.7154 232.521 60.764 232.915L60.6854 232.928C60.6514 232.108 60.2868 231.563 59.974 231.371C59.964 231.365 59.9539 231.359 59.9436 231.354C59.9537 231.359 59.9638 231.365 59.974 231.371Z" fill="#727785"/>
<path d="M60.506 231.63C60.595 231.763 60.5485 231.952 60.519 232.041L60.5008 232.036C60.5767 231.857 60.5537 231.703 60.506 231.63C60.5044 231.628 60.5028 231.625 60.5012 231.623C60.5028 231.625 60.5044 231.628 60.506 231.63Z" fill="#727785"/>
<path d="M60.205 231.715C60.2484 231.792 60.3466 231.816 60.3947 231.823L60.3961 231.813C60.2961 231.806 60.2289 231.756 60.205 231.715C60.2042 231.714 60.2035 231.712 60.2028 231.711C60.2034 231.712 60.2042 231.714 60.205 231.715Z" fill="#727785"/>
<path d="M60.7192 231.938C60.771 232.089 60.6775 232.259 60.6259 232.338L60.6097 232.329C60.7292 232.175 60.7466 232.02 60.7192 231.938C60.7183 231.935 60.7174 231.932 60.7164 231.93C60.7174 231.932 60.7184 231.935 60.7192 231.938Z" fill="#727785"/>
<path d="M60.2116 231.992C60.2892 232.132 60.478 232.177 60.5711 232.192L60.5748 232.173C60.3806 232.158 60.2544 232.067 60.2116 231.992C60.2102 231.989 60.2089 231.987 60.2076 231.984C60.2089 231.987 60.2102 231.989 60.2116 231.992Z" fill="#727785"/>
<path d="M60.182 232.296C60.2897 232.499 60.5431 232.57 60.6677 232.594L60.6721 232.567C60.4125 232.54 60.2414 232.406 60.182 232.296C60.1801 232.292 60.1783 232.289 60.1765 232.285C60.1782 232.289 60.18 232.292 60.182 232.296Z" fill="#727785"/>
<path d="M78.2595 235.47C78.2763 235.176 78.3729 234.875 78.6028 234.654C78.0266 234.721 77.8202 234.897 77.601 235.152C77.071 235.768 77.4398 236.434 77.7695 236.294C78.0991 236.154 78.2421 235.774 78.2595 235.47Z" fill="#E5E6ED"/>
<path d="M78.2512 234.838C77.6719 235.185 77.5098 235.987 77.4612 236.382L77.5398 236.394C77.5739 235.574 77.9385 235.029 78.2512 234.838C78.2612 234.832 78.2714 234.826 78.2816 234.82C78.2716 234.826 78.2614 234.832 78.2512 234.838Z" fill="#727785"/>
<path d="M77.7193 235.097C77.6302 235.23 77.6767 235.418 77.7062 235.508L77.7244 235.503C77.6486 235.323 77.6716 235.169 77.7193 235.097C77.7208 235.094 77.7224 235.092 77.724 235.09C77.7224 235.092 77.7208 235.094 77.7193 235.097Z" fill="#727785"/>
<path d="M78.0203 235.182C77.9768 235.258 77.8787 235.282 77.8305 235.29L77.8291 235.28C77.9292 235.272 77.9963 235.223 78.0203 235.182C78.021 235.18 78.0217 235.179 78.0225 235.178C78.0218 235.179 78.021 235.18 78.0203 235.182Z" fill="#727785"/>
<path d="M77.506 235.404C77.4542 235.556 77.5477 235.726 77.5993 235.805L77.6155 235.795C77.496 235.642 77.4786 235.487 77.506 235.404C77.5069 235.402 77.5078 235.399 77.5088 235.396C77.5078 235.399 77.5069 235.402 77.506 235.404Z" fill="#727785"/>
<path d="M78.0137 235.459C77.9361 235.599 77.7472 235.644 77.6541 235.659L77.6504 235.64C77.8446 235.625 77.9708 235.534 78.0137 235.459C78.015 235.456 78.0163 235.454 78.0176 235.451C78.0164 235.454 78.0151 235.456 78.0137 235.459Z" fill="#727785"/>
<path d="M78.0433 235.763C77.9355 235.966 77.6821 236.036 77.5575 236.06L77.5531 236.034C77.8127 236.007 77.9839 235.873 78.0433 235.763C78.0451 235.759 78.0469 235.756 78.0487 235.752C78.047 235.755 78.0452 235.759 78.0433 235.763Z" fill="#727785"/>
<path d="M122.09 247.001H111.476C99.1784 247.001 104.484 243.502 107.595 242.823C100.641 240.448 105.765 235.975 109.28 237.841C107.084 229.699 114.587 231.395 116.051 235.975C118.979 231.225 124.103 233.6 120.992 238.689C126.299 236.484 126.299 240.894 124.103 242.251C129.409 243.099 126.443 244.689 123.516 244.689C126.993 246.555 124.431 247.001 122.09 247.001Z" fill="#E9EBF2"/>
<path d="M127.976 246.506H122.556C116.277 246.506 118.986 244.64 120.575 244.278C117.024 243.011 119.64 240.625 121.435 241.62C120.314 237.278 124.145 238.182 124.893 240.625C126.388 238.092 129.004 239.359 127.416 242.073C130.126 240.896 130.126 243.249 129.004 243.972C131.714 244.425 130.2 245.273 128.704 245.273C130.48 246.268 129.172 246.506 127.976 246.506Z" fill="#DFE0E6"/>
<path d="M103.747 234.448C103.459 234.04 103.048 233.692 102.518 233.58C103.41 233.159 103.866 233.228 104.411 233.399C105.729 233.811 105.795 235.102 105.194 235.197C104.593 235.291 104.045 234.871 103.747 234.448Z" fill="#E5E6ED"/>
<path d="M103.191 233.531C104.339 233.512 105.294 234.523 105.718 235.048L105.616 235.138C104.83 233.985 103.815 233.526 103.191 233.531C103.172 233.532 103.152 233.532 103.132 233.533C103.151 233.532 103.171 233.531 103.191 233.531Z" fill="#727785"/>
<path d="M104.191 233.426C104.439 233.538 104.541 233.851 104.579 234.007L104.548 234.016C104.497 233.689 104.325 233.488 104.191 233.426C104.187 233.424 104.182 233.422 104.178 233.42C104.182 233.422 104.187 233.424 104.191 233.426Z" fill="#727785"/>
<path d="M103.832 233.816C103.964 233.888 104.127 233.834 104.203 233.802L104.196 233.786C104.045 233.865 103.904 233.854 103.832 233.816C103.83 233.815 103.828 233.814 103.825 233.812C103.828 233.814 103.83 233.815 103.832 233.816Z" fill="#727785"/>
<path d="M104.776 233.679C104.987 233.851 105.005 234.181 105.001 234.341L104.969 234.341C105.003 234.012 104.889 233.773 104.776 233.679C104.772 233.676 104.768 233.673 104.765 233.67C104.768 233.673 104.772 233.676 104.776 233.679Z" fill="#727785"/>
<path d="M104.091 234.21C104.329 234.343 104.642 234.238 104.789 234.176L104.778 234.146C104.485 234.299 104.221 234.281 104.091 234.21C104.087 234.208 104.083 234.206 104.079 234.203C104.083 234.206 104.087 234.208 104.091 234.21Z" fill="#727785"/>
<path d="M104.322 234.676C104.66 234.873 105.088 234.747 105.29 234.67L105.272 234.627C104.874 234.822 104.506 234.782 104.322 234.676C104.316 234.673 104.31 234.67 104.304 234.666C104.31 234.67 104.316 234.673 104.322 234.676Z" fill="#727785"/>
<path d="M128.479 237.917C128.767 237.509 129.177 237.161 129.707 237.049C128.815 236.628 128.359 236.697 127.814 236.867C126.496 237.28 126.43 238.571 127.031 238.666C127.633 238.76 128.181 238.34 128.479 237.917Z" fill="#E5E6ED"/>
<path d="M129.034 237C127.886 236.981 126.931 237.992 126.507 238.517L126.609 238.606C127.395 237.454 128.41 236.995 129.034 237C129.054 237 129.073 237.001 129.093 237.002C129.074 237.001 129.054 237 129.034 237Z" fill="#727785"/>
<path d="M128.034 236.894C127.786 237.006 127.684 237.32 127.646 237.476L127.677 237.485C127.729 237.158 127.9 236.956 128.034 236.894C128.039 236.892 128.043 236.89 128.047 236.889C128.043 236.89 128.039 236.892 128.034 236.894Z" fill="#727785"/>
<path d="M128.393 237.285C128.262 237.357 128.098 237.303 128.022 237.271L128.029 237.255C128.18 237.334 128.321 237.323 128.393 237.285C128.395 237.284 128.398 237.283 128.4 237.281C128.398 237.283 128.395 237.284 128.393 237.285Z" fill="#727785"/>
<path d="M127.45 237.147C127.239 237.32 127.221 237.649 127.224 237.809L127.256 237.81C127.222 237.481 127.336 237.242 127.45 237.147C127.453 237.144 127.457 237.142 127.461 237.139C127.457 237.141 127.453 237.144 127.45 237.147Z" fill="#727785"/>
<path d="M128.134 237.679C127.896 237.812 127.583 237.707 127.436 237.645L127.447 237.615C127.741 237.768 128.004 237.75 128.134 237.679C128.138 237.677 128.142 237.674 128.146 237.672C128.143 237.674 128.138 237.677 128.134 237.679Z" fill="#727785"/>
<path d="M127.904 238.145C127.565 238.342 127.137 238.216 126.935 238.138L126.953 238.096C127.352 238.29 127.719 238.251 127.904 238.145C127.91 238.142 127.915 238.138 127.921 238.135C127.916 238.138 127.91 238.142 127.904 238.145Z" fill="#727785"/>
<path d="M117.414 232.099C117.449 231.601 117.619 231.09 118.015 230.72C117.034 230.822 116.68 231.117 116.302 231.545C115.388 232.581 116.001 233.72 116.564 233.489C117.127 233.258 117.378 232.615 117.414 232.099Z" fill="#E5E6ED"/>
<path d="M117.413 231.027C116.421 231.605 116.129 232.965 116.038 233.634L116.172 233.657C116.247 232.264 116.878 231.346 117.413 231.027C117.43 231.017 117.448 231.008 117.465 230.998C117.448 231.007 117.431 231.017 117.413 231.027Z" fill="#727785"/>
<path d="M116.504 231.455C116.35 231.679 116.425 232.001 116.473 232.154L116.504 232.145C116.379 231.839 116.421 231.578 116.504 231.455C116.507 231.451 116.509 231.447 116.512 231.443C116.509 231.447 116.507 231.451 116.504 231.455Z" fill="#727785"/>
<path d="M117.014 231.602C116.938 231.732 116.771 231.77 116.689 231.783L116.687 231.765C116.857 231.755 116.972 231.672 117.014 231.602C117.015 231.6 117.016 231.598 117.017 231.596C117.016 231.598 117.015 231.6 117.014 231.602Z" fill="#727785"/>
<path d="M116.135 231.974C116.044 232.231 116.199 232.522 116.285 232.657L116.313 232.641C116.113 232.377 116.087 232.114 116.135 231.974C116.136 231.97 116.138 231.965 116.14 231.961C116.138 231.965 116.136 231.97 116.135 231.974Z" fill="#727785"/>
<path d="M116.996 232.075C116.862 232.312 116.54 232.384 116.381 232.407L116.375 232.376C116.706 232.355 116.922 232.203 116.996 232.075C116.999 232.071 117.001 232.067 117.003 232.062C117.001 232.067 116.999 232.071 116.996 232.075Z" fill="#727785"/>
<path d="M117.04 232.592C116.853 232.936 116.421 233.05 116.209 233.088L116.202 233.043C116.643 233.002 116.937 232.778 117.04 232.592C117.044 232.586 117.047 232.58 117.05 232.574C117.047 232.58 117.044 232.586 117.04 232.592Z" fill="#727785"/>
<path d="M106.966 232.003C106.949 231.71 106.852 231.408 106.622 231.187C107.199 231.254 107.405 231.431 107.624 231.685C108.154 232.301 107.785 232.967 107.456 232.827C107.126 232.687 106.983 232.307 106.966 232.003Z" fill="#E5E6ED"/>
<path d="M106.974 231.371C107.553 231.719 107.715 232.521 107.764 232.915L107.685 232.928C107.651 232.108 107.287 231.563 106.974 231.371C106.964 231.365 106.954 231.359 106.944 231.354C106.954 231.359 106.964 231.365 106.974 231.371Z" fill="#727785"/>
<path d="M107.506 231.63C107.595 231.763 107.549 231.952 107.519 232.041L107.501 232.036C107.577 231.857 107.554 231.703 107.506 231.63C107.504 231.628 107.503 231.625 107.501 231.623C107.503 231.625 107.504 231.628 107.506 231.63Z" fill="#727785"/>
<path d="M107.205 231.715C107.248 231.792 107.347 231.816 107.395 231.823L107.396 231.813C107.296 231.806 107.229 231.756 107.205 231.715C107.204 231.714 107.203 231.712 107.203 231.711C107.203 231.712 107.204 231.714 107.205 231.715Z" fill="#727785"/>
<path d="M107.719 231.938C107.771 232.089 107.678 232.259 107.626 232.338L107.61 232.329C107.729 232.175 107.747 232.02 107.719 231.938C107.718 231.935 107.717 231.932 107.716 231.93C107.717 231.932 107.718 231.935 107.719 231.938Z" fill="#727785"/>
<path d="M107.212 231.992C107.289 232.132 107.478 232.177 107.571 232.192L107.575 232.173C107.381 232.158 107.254 232.067 107.212 231.992C107.21 231.989 107.209 231.987 107.208 231.984C107.209 231.987 107.21 231.989 107.212 231.992Z" fill="#727785"/>
<path d="M107.182 232.296C107.29 232.499 107.543 232.57 107.668 232.594L107.672 232.567C107.413 232.54 107.241 232.406 107.182 232.296C107.18 232.292 107.178 232.289 107.177 232.285C107.178 232.289 107.18 232.292 107.182 232.296Z" fill="#727785"/>
<path d="M125.259 235.47C125.276 235.176 125.373 234.875 125.603 234.654C125.027 234.721 124.82 234.897 124.601 235.152C124.071 235.768 124.44 236.434 124.769 236.294C125.099 236.154 125.242 235.774 125.259 235.47Z" fill="#E5E6ED"/>
<path d="M125.251 234.838C124.672 235.185 124.51 235.987 124.461 236.382L124.54 236.394C124.574 235.574 124.938 235.029 125.251 234.838C125.261 234.832 125.271 234.826 125.282 234.82C125.272 234.826 125.261 234.832 125.251 234.838Z" fill="#727785"/>
<path d="M124.719 235.097C124.63 235.23 124.677 235.418 124.706 235.508L124.724 235.503C124.649 235.323 124.672 235.169 124.719 235.097C124.721 235.094 124.722 235.092 124.724 235.09C124.722 235.092 124.721 235.094 124.719 235.097Z" fill="#727785"/>
<path d="M125.02 235.182C124.977 235.258 124.879 235.282 124.83 235.29L124.829 235.28C124.929 235.272 124.996 235.223 125.02 235.182C125.021 235.18 125.022 235.179 125.022 235.178C125.022 235.179 125.021 235.18 125.02 235.182Z" fill="#727785"/>
<path d="M124.506 235.404C124.454 235.556 124.548 235.726 124.599 235.805L124.616 235.795C124.496 235.642 124.479 235.487 124.506 235.404C124.507 235.402 124.508 235.399 124.509 235.396C124.508 235.399 124.507 235.402 124.506 235.404Z" fill="#727785"/>
<path d="M125.014 235.459C124.936 235.599 124.747 235.644 124.654 235.659L124.65 235.64C124.845 235.625 124.971 235.534 125.014 235.459C125.015 235.456 125.016 235.454 125.018 235.451C125.016 235.454 125.015 235.456 125.014 235.459Z" fill="#727785"/>
<path d="M125.043 235.763C124.936 235.966 124.682 236.036 124.557 236.06L124.553 236.034C124.813 236.007 124.984 235.873 125.043 235.763C125.045 235.759 125.047 235.756 125.049 235.752C125.047 235.755 125.045 235.759 125.043 235.763Z" fill="#727785"/>
<path d="M102.205 198H108.372L122.387 241.728H88.1895L102.205 198Z" fill="white"/>
<path d="M122.387 241.728H88.1895L91.2441 232.197H119.332L122.387 241.728ZM117.715 227.152H92.8613L94.9277 220.705H115.648L117.715 227.152ZM114.031 215.659H96.5449L102.205 198H108.371L114.031 215.659Z" fill="#152E75"/>
<rect x="79.5" y="241.729" width="51.5765" height="3.9243" fill="#152E75"/>
<path d="M122.387 241.728H88.1895L89.5371 237.523H121.039L122.387 241.728Z" fill="black" fill-opacity="0.2"/>
<mask id="mask0_7481_3918" style="mask-type:alpha" maskUnits="userSpaceOnUse" x="79" y="198" width="53" height="48">
<path d="M122.387 241.728H88.1895L91.2441 232.197H119.332L122.387 241.728ZM117.715 227.152H92.8613L94.9277 220.705H115.648L117.715 227.152ZM114.031 215.659H96.5449L102.205 198H108.371L114.031 215.659Z" fill="#2F63FF"/>
<rect x="79.5" y="241.729" width="51.5765" height="3.9243" fill="#2F63FF"/>
<path d="M122.387 241.728H88.1895L89.5371 237.523H121.039L122.387 241.728Z" fill="black" fill-opacity="0.2"/>
</mask>
<g mask="url(#mask0_7481_3918)">
<circle cx="72.7726" cy="187.349" r="52.4174" fill="white" fill-opacity="0.2"/>
</g>
<path d="M2.5 247H402.5" stroke="#20242E" stroke-width="4" stroke-linecap="round" stroke-linejoin="round"/>
<rect x="148.714" y="111" width="5.64286" height="134" fill="#20242E"/>
<rect x="143.5" y="111" width="8" height="134" fill="#152E75"/>
<rect x="256.643" y="111" width="5.64286" height="134" fill="#20242E"/>
<rect x="251.5" y="111" width="8" height="134" fill="#152E75"/>
<rect x="123.5" y="122" width="158" height="22.5714" fill="#152E75"/>
<path d="M154.596 144.571H140.393L148.907 123H135.929L127.414 144.571H123.5V122H163.505L154.596 144.571ZM184.503 144.571H167.574L176.483 122H193.412L184.503 144.571ZM214.409 144.571H197.481L206.391 122H223.319L214.409 144.571ZM244.316 144.571H227.389L236.298 122H253.227L244.316 144.571ZM281.5 126.137L274.224 144.571H257.295L266.205 122H281.5V126.137Z" fill="white"/>
<path opacity="0.2" d="M233.723 144.571H185.72L198.752 122H220.691L233.723 144.571Z" fill="#20242E"/>
<rect opacity="0.2" x="123.5" y="122" width="158" height="2.39" fill="#20242E"/>
<rect x="123.5" y="163" width="158" height="22.5714" fill="#152E75"/>
<path d="M124.688 185.571H123.5V163H133.598L124.688 185.571ZM154.596 185.571H137.667L146.576 163H163.505L154.596 185.571ZM184.503 185.571H167.574L176.483 163H193.412L184.503 185.571ZM214.409 185.571H197.481L206.391 163H223.319L214.409 185.571ZM244.316 185.571H227.389L236.298 163H253.227L244.316 185.571ZM281.5 167.137L274.224 185.571H257.295L266.205 163H281.5V167.137Z" fill="white"/>
<path opacity="0.2" d="M248.563 170.009C251.725 175.486 247.773 182.332 241.449 182.332H175.994C169.67 182.332 165.717 175.486 168.879 170.009L172.925 163H244.516L248.563 170.009Z" fill="#20242E"/>
<rect opacity="0.2" x="123.5" y="163" width="158" height="2.39" fill="#20242E"/>
<path d="M196.156 109.872C199.318 104.395 207.223 104.395 210.385 109.872L243.113 166.558C246.275 172.035 242.322 178.881 235.998 178.881H170.543C164.219 178.881 160.266 172.035 163.428 166.558L196.156 109.872Z" fill="#445891"/>
<path d="M196.143 109.21C198.622 104.916 204.821 104.916 207.3 109.21L240.027 165.896C242.507 170.19 239.407 175.557 234.449 175.558H168.994C164.036 175.558 160.936 170.19 163.415 165.896L196.143 109.21Z" fill="white" stroke="#152E75" stroke-width="3.54812"/>
<path d="M193.231 163.7V160.25H191.551V155.39H187.621V160.25H183.631L189.541 146.3H185.611L179.701 160.25V163.7H187.621V167H191.551V163.7H193.231ZM197.295 165.56C198.315 166.76 199.875 167.33 201.975 167.33C204.075 167.33 205.605 166.73 206.625 165.53C207.645 164.33 208.155 162.56 208.155 160.19V152.87C208.155 150.59 207.645 148.88 206.625 147.71C205.605 146.57 204.075 145.97 201.975 145.97C199.935 145.97 198.405 146.57 197.355 147.74C196.305 148.91 195.795 150.62 195.795 152.87V160.19C195.795 162.59 196.275 164.36 197.295 165.56ZM203.745 163.01C203.445 163.61 202.845 163.91 201.975 163.91C201.105 163.91 200.505 163.61 200.205 163.01C199.905 162.41 199.755 161.36 199.755 159.86V153.44C199.755 151.97 199.905 150.92 200.205 150.32C200.505 149.72 201.075 149.42 201.975 149.42C202.845 149.42 203.445 149.72 203.745 150.32C204.045 150.92 204.225 151.97 204.225 153.44V159.86C204.225 161.36 204.045 162.41 203.745 163.01ZM212.587 165.95C213.667 166.88 215.167 167.33 217.117 167.33C218.287 167.33 219.337 167.09 220.297 166.61C221.227 166.13 221.947 165.41 222.487 164.51C222.997 163.61 223.267 162.56 223.267 161.33V160.76C223.267 159.62 223.027 158.63 222.547 157.79C222.067 156.98 221.407 156.38 220.507 155.99C221.287 155.57 221.887 155.03 222.307 154.31C222.727 153.59 222.937 152.78 222.937 151.88V151.43C222.937 149.78 222.397 148.46 221.377 147.47C220.327 146.48 218.887 145.97 217.087 145.97C215.227 145.97 213.757 146.48 212.707 147.44C211.657 148.4 211.147 149.75 211.147 151.49V152H214.747V151.49C214.747 150.83 214.927 150.29 215.317 149.9C215.677 149.51 216.217 149.3 216.937 149.3C217.597 149.3 218.137 149.54 218.527 149.96C218.917 150.38 219.127 150.98 219.127 151.73V152.18C219.127 152.96 218.917 153.59 218.497 154.01C218.077 154.46 217.477 154.67 216.727 154.67H215.707V158H216.757C217.627 158 218.287 158.24 218.767 158.72C219.217 159.2 219.457 159.89 219.457 160.79V161.33C219.457 162.17 219.217 162.8 218.797 163.28C218.377 163.76 217.777 164 217.057 164C216.277 164 215.677 163.82 215.257 163.46C214.837 163.1 214.657 162.53 214.657 161.81V161.36H210.997V161.99C210.997 163.7 211.507 165.02 212.587 165.95Z" fill="#152E75"/>
<path d="M200.42 132.901H203.16L203.852 123.8L203.985 119.835H199.595L199.728 123.8L200.42 132.901ZM201.803 140.006C203.134 140.006 204.145 139.022 204.145 137.638C204.145 136.254 203.134 135.296 201.803 135.296C200.446 135.296 199.435 136.254 199.435 137.638C199.435 139.022 200.42 140.006 201.803 140.006Z" fill="#152E75"/>
</svg>
