<svg width="24" height="24" viewBox="0 0 24 24" fill="none" xmlns="http://www.w3.org/2000/svg">
<mask id="mask0_11014_78558" style="mask-type:alpha" maskUnits="userSpaceOnUse" x="0" y="0" width="24" height="24">
<rect width="24" height="24" fill="#D9D9D9"/>
</mask>
<g mask="url(#mask0_11014_78558)">
<path d="M7.5 11.6393H16.5V9.83926H7.5V11.6393ZM12 19.7393C10.755 19.7393 9.585 19.503 8.49 19.0305C7.395 18.558 6.4425 17.9168 5.6325 17.1068C4.8225 16.2968 4.18125 15.3443 3.70875 14.2493C3.23625 13.1543 3 11.9843 3 10.7393C3 9.49426 3.23625 8.32426 3.70875 7.22926C4.18125 6.13426 4.8225 5.18176 5.6325 4.37176C6.4425 3.56176 7.395 2.92051 8.49 2.44801C9.585 1.97551 10.755 1.73926 12 1.73926C13.245 1.73926 14.415 1.97551 15.51 2.44801C16.605 2.92051 17.5575 3.56176 18.3675 4.37176C19.1775 5.18176 19.8187 6.13426 20.2912 7.22926C20.7638 8.32426 21 9.49426 21 10.7393C21 11.9843 20.7638 13.1543 20.2912 14.2493C19.8187 15.3443 19.1775 16.2968 18.3675 17.1068C17.5575 17.9168 16.605 18.558 15.51 19.0305C14.415 19.503 13.245 19.7393 12 19.7393Z" fill="#DF883B"/>
</g>
</svg>
