<svg width="16" height="16" viewBox="0 0 16 16" fill="none" xmlns="http://www.w3.org/2000/svg">
<g id="question-circle" clip-path="url(#clip0_2487_2852)">
<g id="folder_copy">
<mask id="mask0_2487_2852" style="mask-type:alpha" maskUnits="userSpaceOnUse" x="0" y="-1" width="16" height="17">
<rect id="Bounding box" y="-0.5" width="16" height="16" fill="#D9D9D9"/>
</mask>
<g mask="url(#mask0_2487_2852)">
<path id="folder_copy_2" d="M2.00008 13.4999C1.63341 13.4999 1.31953 13.3694 1.05841 13.1083C0.797304 12.8471 0.666748 12.5333 0.666748 12.1666V3.49992H2.00008V12.1666H13.3334V13.4999H2.00008ZM4.66675 10.8333C4.30008 10.8333 3.98619 10.7027 3.72508 10.4416C3.46397 10.1805 3.33341 9.86659 3.33341 9.49992V2.16659C3.33341 1.79992 3.46397 1.48603 3.72508 1.22492C3.98619 0.963808 4.30008 0.833252 4.66675 0.833252H8.00008L9.33342 2.16659H14.0001C14.3667 2.16659 14.6806 2.29714 14.9417 2.55825C15.2029 2.81936 15.3334 3.13325 15.3334 3.49992V9.49992C15.3334 9.86659 15.2029 10.1805 14.9417 10.4416C14.6806 10.7027 14.3667 10.8333 14.0001 10.8333H4.66675Z" fill="#1C2D5F"/>
</g>
</g>
</g>
<defs>
<clipPath id="clip0_2487_2852">
<rect width="16" height="16" fill="white"/>
</clipPath>
</defs>
</svg>
