<svg width="16" height="16" viewBox="0 0 16 16" fill="none" xmlns="http://www.w3.org/2000/svg">
<g id="border_color">
<mask id="mask0_241_7528" style="mask-type:alpha" maskUnits="userSpaceOnUse" x="0" y="0" width="16" height="16">
<rect id="Bounding box" width="16" height="16" fill="#D9D9D9"/>
</mask>
<g mask="url(#mask0_241_7528)">
<path id="border_color_2" d="M1.3335 15.9999V13.3333H14.6668V15.9999H1.3335ZM4.00016 10.6666H4.9335L10.1335 5.48325L9.1835 4.53325L4.00016 9.73325V10.6666ZM2.66683 11.9999V9.16659L10.1335 1.71659C10.2557 1.59436 10.3974 1.49992 10.5585 1.43325C10.7196 1.36659 10.8891 1.33325 11.0668 1.33325C11.2446 1.33325 11.4168 1.36659 11.5835 1.43325C11.7502 1.49992 11.9002 1.59992 12.0335 1.73325L12.9502 2.66659C13.0835 2.78881 13.1807 2.93325 13.2418 3.09992C13.3029 3.26659 13.3335 3.43881 13.3335 3.61659C13.3335 3.78325 13.3029 3.94714 13.2418 4.10825C13.1807 4.26936 13.0835 4.41659 12.9502 4.54992L5.50016 11.9999H2.66683Z" fill="#344665"/>
</g>
</g>
</svg>
