<svg width="16" height="16" viewBox="0 0 16 16" fill="none" xmlns="http://www.w3.org/2000/svg">
<g id="spa">
<mask id="mask0_2487_2845" style="mask-type:alpha" maskUnits="userSpaceOnUse" x="0" y="0" width="16" height="16">
<rect id="Bounding box" width="16" height="16" fill="#D9D9D9"/>
</mask>
<g mask="url(#mask0_2487_2845)">
<path id="spa_2" d="M7.99985 14.6666C6.95541 14.5333 6.02208 14.2666 5.19985 13.8666C4.37763 13.4666 3.68041 12.9444 3.10819 12.2999C2.53596 11.6555 2.09985 10.9083 1.79985 10.0583C1.49985 9.20825 1.34985 8.26659 1.34985 7.23325C2.57208 7.35547 3.60541 7.5777 4.44985 7.89992C5.2943 8.22214 5.98041 8.6777 6.50819 9.26659C7.03596 9.85547 7.41652 10.5916 7.64985 11.4749C7.88319 12.3583 7.99985 13.4221 7.99985 14.6666ZM7.99985 9.04992C7.7443 8.66103 7.39708 8.2777 6.95819 7.89992C6.5193 7.52214 6.01096 7.1777 5.43319 6.86659C5.49985 6.39992 5.61096 5.91658 5.76652 5.41658C5.92208 4.91658 6.11096 4.42492 6.33319 3.94159C6.55541 3.45825 6.80819 2.99436 7.09152 2.54992C7.37485 2.10547 7.67763 1.69992 7.99985 1.33325C8.32208 1.69992 8.62485 2.10547 8.90819 2.54992C9.19152 2.99436 9.4443 3.45825 9.66652 3.94159C9.88874 4.42492 10.0776 4.91658 10.2332 5.41658C10.3887 5.91658 10.4999 6.39992 10.5665 6.86659C9.98874 7.16658 9.48041 7.50547 9.04152 7.88325C8.60263 8.26103 8.25541 8.64992 7.99985 9.04992ZM9.33319 14.3999C9.31097 13.6221 9.25263 12.9027 9.15819 12.2416C9.06374 11.5805 8.91652 10.9555 8.71652 10.3666C9.23874 9.46659 9.95819 8.73325 10.8749 8.16658C11.7915 7.59992 13.0499 7.28881 14.6499 7.23325C14.661 8.98881 14.1915 10.5027 13.2415 11.7749C12.2915 13.0471 10.9887 13.9221 9.33319 14.3999Z" fill="#1C2D5F"/>
</g>
</g>
</svg>
