<svg width="16" height="16" viewBox="0 0 16 16" fill="none" xmlns="http://www.w3.org/2000/svg">
<g id="preferences - 1">
<path id="Vector" d="M10.2243 5.32344H10.2358C11.1676 5.32344 11.9305 4.56696 11.9382 3.6332C11.9446 2.69496 11.1862 1.92632 10.2473 1.91992H10.2364C9.30396 1.91992 8.54108 2.67576 8.53468 3.6204C8.53148 4.55608 9.28988 5.32024 10.2243 5.32344Z" fill="#344665"/>
<path id="Vector_2" d="M6.17755 9.70224H6.18907C7.12153 9.70224 7.88377 8.94512 7.89081 8.01136C7.89401 7.55696 7.71929 7.1288 7.39993 6.80496C7.08057 6.48174 6.65433 6.3019 6.19995 6.2987C5.74683 6.2891 5.31739 6.46958 4.99419 6.78896C4.67035 7.10768 4.49051 7.53392 4.48731 7.9992C4.48603 8.45232 4.66075 8.8792 4.98011 9.20048C5.29947 9.5224 5.72507 9.70032 6.17755 9.70224Z" fill="#344665"/>
<path id="Vector_3" d="M10.4962 14.0804H10.4847C9.54964 14.0772 8.79124 13.3136 8.79444 12.378C8.80148 11.4333 9.56372 10.6775 10.4962 10.6775H10.5077C10.9628 10.6807 11.389 10.8605 11.7077 11.1844C12.0271 11.5076 12.2005 11.9364 12.1973 12.3914C12.1909 13.3252 11.4287 14.0804 10.4962 14.0804Z" fill="#344665"/>
<path id="Vector_4" d="M7.8131 4.2612C7.89803 4.2612 7.95934 4.18001 7.94225 4.09686C7.91051 3.94214 7.89406 3.78192 7.89464 3.61787C7.89579 3.45606 7.91307 3.29826 7.94494 3.14598C7.96241 3.06272 7.90104 2.9812 7.81598 2.9812H2.97545C2.62217 2.9812 2.33545 3.26792 2.33545 3.6212C2.33545 3.97448 2.62217 4.2612 2.97545 4.2612H7.8131Z" fill="#344665"/>
<path id="Vector_5" d="M13.6384 4.2612H12.6584C12.5733 4.2612 12.512 4.17979 12.5293 4.09656C12.56 3.94865 12.5767 3.79565 12.5781 3.63899V3.63771C12.5792 3.46917 12.5623 3.3046 12.5294 3.14583C12.5121 3.0626 12.5735 2.9812 12.6585 2.9812H13.6384C13.9923 2.9812 14.2784 3.26792 14.2784 3.6212C14.2784 3.97448 13.9923 4.2612 13.6384 4.2612Z" fill="#344665"/>
<path id="Vector_6" d="M3.89463 8.47717C3.91157 8.56024 3.85025 8.64133 3.76544 8.64133H2.97594C2.62202 8.64133 2.33594 8.35461 2.33594 8.00133C2.33594 7.64805 2.62202 7.36133 2.97594 7.36133H3.7668C3.85162 7.36133 3.91295 7.44235 3.89593 7.52542C3.86464 7.67819 3.84813 7.83582 3.84716 7.99672C3.84666 8.16005 3.86274 8.32082 3.89463 8.47717Z" fill="#344665"/>
<path id="Vector_7" d="M13.6398 8.64133H8.61097C8.52598 8.64133 8.4646 8.55986 8.48195 8.47659C8.51292 8.32773 8.52969 8.17368 8.53091 8.01592C8.53212 7.84926 8.51593 7.68517 8.48323 7.52562C8.4662 7.44248 8.52752 7.36133 8.61238 7.36133H13.6398C13.9931 7.36133 14.2798 7.64805 14.2798 8.00133C14.2798 8.35461 13.9931 8.64133 13.6398 8.64133Z" fill="#344665"/>
<path id="Vector_8" d="M8.20208 12.8544C8.21917 12.9376 8.15779 13.0188 8.07293 13.0188H2.97545C2.62153 13.0188 2.33545 12.7321 2.33545 12.3788C2.33545 12.0255 2.62153 11.7388 2.97545 11.7388H8.07574C8.1608 11.7388 8.22218 11.8203 8.20477 11.9036C8.17283 12.0558 8.15555 12.2136 8.15446 12.3754C8.15389 12.5395 8.17034 12.6997 8.20208 12.8544Z" fill="#344665"/>
<path id="Vector_9" d="M13.6391 13.0188H12.9181C12.8332 13.0188 12.7718 12.9374 12.789 12.8542C12.8197 12.7059 12.8363 12.5524 12.8373 12.3953C12.8385 12.228 12.8223 12.0632 12.7894 11.9031C12.7723 11.8199 12.8336 11.7388 12.9185 11.7388H13.6391C13.993 11.7388 14.2791 12.0255 14.2791 12.3788C14.2791 12.7321 13.993 13.0188 13.6391 13.0188Z" fill="#344665"/>
</g>
</svg>
