<svg width="18" height="18" viewBox="0 0 18 18" fill="none" xmlns="http://www.w3.org/2000/svg">
<path d="M11.6066 6.48242C13.4816 8.35742 13.4504 11.3574 11.6066 13.1699C11.6066 13.2012 11.6066 13.2012 11.6066 13.2012L9.51289 15.2949C7.66914 17.1387 4.63789 17.1387 2.79414 15.2949C0.950391 13.4512 0.950391 10.4199 2.79414 8.57617L3.95039 7.41992C4.26289 7.10742 4.79414 7.32617 4.79414 7.76367C4.82539 8.29492 4.91914 8.85742 5.10664 9.38867C5.16914 9.57617 5.13789 9.79492 4.98164 9.91992L4.57539 10.3262C3.70039 11.2012 3.66914 12.6387 4.54414 13.5137C5.41914 14.4199 6.85664 14.4199 7.73164 13.5137L9.85664 11.4199C10.7316 10.5449 10.7316 9.13867 9.85664 8.23242C9.73164 8.13867 9.60664 8.04492 9.51289 7.98242C9.38789 7.88867 9.29414 7.76367 9.29414 7.57617C9.29414 7.26367 9.41914 6.91992 9.66914 6.63867L10.3254 5.98242C10.5129 5.82617 10.7629 5.79492 10.9816 5.95117C11.2004 6.10742 11.4191 6.29492 11.6066 6.48242ZM16.0129 2.07617C17.8566 3.91992 17.8566 6.95117 16.0129 8.79492L14.8566 9.95117C14.5441 10.2637 14.0129 10.0449 14.0129 9.60742C13.9816 9.07617 13.8879 8.51367 13.7004 7.98242C13.6379 7.79492 13.6691 7.57617 13.8254 7.45117L14.2316 7.04492C15.1066 6.16992 15.1379 4.73242 14.2629 3.85742C13.3879 2.95117 11.9504 2.95117 11.0754 3.85742L8.95039 5.95117C8.07539 6.82617 8.07539 8.23242 8.95039 9.13867C9.07539 9.23242 9.20039 9.32617 9.29414 9.38867C9.41914 9.48242 9.51289 9.60742 9.51289 9.79492C9.51289 10.1074 9.38789 10.4512 9.13789 10.7324L8.48164 11.3887C8.29414 11.5449 8.04414 11.5762 7.82539 11.4199C7.60664 11.2637 7.38789 11.0762 7.20039 10.8887C5.32539 9.01367 5.35664 6.01367 7.20039 4.20117C7.20039 4.16992 7.20039 4.16992 7.20039 4.16992L9.29414 2.07617C11.1379 0.232422 14.1691 0.232422 16.0129 2.07617Z" fill="#4B5563"/>
</svg>
