<svg width="17" height="17" viewBox="0 0 17 17" fill="none" xmlns="http://www.w3.org/2000/svg">
<path d="M16.724 6.20117C16.724 9.23242 14.2553 11.6699 11.224 11.6699C10.849 11.6699 10.5053 11.6387 10.1928 11.5762L9.44277 12.4199C9.28652 12.5762 9.09902 12.6699 8.88027 12.6699H7.72402V13.9199C7.72402 14.3574 7.38027 14.6699 6.97402 14.6699H5.72402V15.9199C5.72402 16.3574 5.38027 16.6699 4.97402 16.6699H1.47402C1.03652 16.6699 0.724024 16.3574 0.724024 15.9199V13.4824C0.724024 13.2949 0.786524 13.1074 0.942774 12.9512L5.97402 7.91992C5.81777 7.35742 5.72402 6.79492 5.72402 6.16992C5.72402 3.13867 8.16152 0.701172 11.1928 0.669922C14.2553 0.669922 16.724 3.13867 16.724 6.20117ZM11.224 4.66992C11.224 5.51367 11.8803 6.16992 12.724 6.16992C13.5365 6.16992 14.224 5.51367 14.224 4.66992C14.224 3.85742 13.5365 3.16992 12.724 3.16992C11.8803 3.16992 11.224 3.85742 11.224 4.66992Z" fill="#4B5563"/>
</svg>
