<svg width="17" height="16" viewBox="0 0 17 16" fill="none" xmlns="http://www.w3.org/2000/svg">
<g id="Container">
<g clip-path="url(#clip0_969_375)">
<g id="folder_open">
<mask id="mask0_969_375" style="mask-type:alpha" maskUnits="userSpaceOnUse" x="-2" y="-2" width="29" height="28">
<rect id="Bounding box" x="-1.5" y="-2" width="28" height="28" fill="#D9D9D9"/>
</mask>
<g mask="url(#mask0_969_375)">
<path id="folder_open_2" d="M2.01859 14.2223C1.67715 14.2223 1.37576 14.0915 1.11442 13.8301C0.85296 13.5688 0.722229 13.2674 0.722229 12.9259V3.07419C0.722229 2.73275 0.85296 2.43136 1.11442 2.17003C1.37576 1.90856 1.67715 1.77783 2.01859 1.77783H7.21667L8.51303 3.07419H14.9814C15.3229 3.07419 15.6243 3.20486 15.8856 3.46619C16.1471 3.72766 16.2778 4.02905 16.2778 4.37036H2.01859V12.9259L3.96303 5.66672H17.4445L15.3898 13.2565C15.3034 13.5763 15.1446 13.8172 14.9134 13.9792C14.6822 14.1413 14.4025 14.2223 14.0741 14.2223H2.01859Z" fill="#344665"/>
</g>
</g>
</g>
</g>
<defs>
<clipPath id="clip0_969_375">
<rect x="0.5" width="16" height="16" rx="4" fill="white"/>
</clipPath>
</defs>
</svg>
