<svg width="21" height="18" viewBox="0 0 21 18" fill="none" xmlns="http://www.w3.org/2000/svg">
<path d="M4.75879 18C3.65879 18 2.71712 17.6083 1.93379 16.825C1.15046 16.0417 0.758789 15.1 0.758789 14C0.758789 12.9 1.15046 11.9583 1.93379 11.175C2.71712 10.3917 3.65879 10 4.75879 10C5.85879 10 6.80046 10.3917 7.58379 11.175C8.36712 11.9583 8.75879 12.9 8.75879 14C8.75879 15.1 8.36712 16.0417 7.58379 16.825C6.80046 17.6083 5.85879 18 4.75879 18ZM16.7588 18C15.6588 18 14.7171 17.6083 13.9338 16.825C13.1505 16.0417 12.7588 15.1 12.7588 14C12.7588 12.9 13.1505 11.9583 13.9338 11.175C14.7171 10.3917 15.6588 10 16.7588 10C17.8588 10 18.8005 10.3917 19.5838 11.175C20.3671 11.9583 20.7588 12.9 20.7588 14C20.7588 15.1 20.3671 16.0417 19.5838 16.825C18.8005 17.6083 17.8588 18 16.7588 18ZM10.7588 8C9.65879 8 8.71712 7.60833 7.93379 6.825C7.15046 6.04167 6.75879 5.1 6.75879 4C6.75879 2.9 7.15046 1.95833 7.93379 1.175C8.71712 0.391667 9.65879 0 10.7588 0C11.8588 0 12.8005 0.391667 13.5838 1.175C14.3671 1.95833 14.7588 2.9 14.7588 4C14.7588 5.1 14.3671 6.04167 13.5838 6.825C12.8005 7.60833 11.8588 8 10.7588 8Z" fill="#4B5563"/>
</svg>
