<svg width="21" height="15" viewBox="0 0 21 15" fill="none" xmlns="http://www.w3.org/2000/svg">
<path d="M3.65938 6.5C2.53438 6.5 1.65938 5.625 1.65938 4.5C1.65938 3.40625 2.53438 2.5 3.65938 2.5C4.75313 2.5 5.65938 3.40625 5.65938 4.5C5.65938 5.625 4.75313 6.5 3.65938 6.5ZM17.6594 6.5C16.5344 6.5 15.6594 5.625 15.6594 4.5C15.6594 3.40625 16.5344 2.5 17.6594 2.5C18.7531 2.5 19.6594 3.40625 19.6594 4.5C19.6594 5.625 18.7531 6.5 17.6594 6.5ZM18.6594 7.5C19.7531 7.5 20.6594 8.40625 20.6594 9.5V10.5C20.6594 11.0625 20.1906 11.5 19.6594 11.5H17.5969C17.3781 10.0312 16.5031 8.78125 15.2219 8.09375C15.5969 7.75 16.0969 7.5 16.6594 7.5H18.6594ZM10.6594 7.5C8.72188 7.5 7.15938 5.9375 7.15938 4C7.15938 2.09375 8.72188 0.5 10.6594 0.5C12.5656 0.5 14.1594 2.09375 14.1594 4C14.1594 5.9375 12.5656 7.5 10.6594 7.5ZM13.0344 8.5C15.0344 8.5 16.6594 10.125 16.6594 12.125V13C16.6594 13.8438 15.9719 14.5 15.1594 14.5H6.15938C5.31563 14.5 4.65938 13.8438 4.65938 13V12.125C4.65938 10.125 6.25313 8.5 8.25313 8.5H8.50313C9.15938 8.8125 9.87813 9 10.6594 9C11.4094 9 12.1281 8.8125 12.7844 8.5H13.0344ZM6.06563 8.09375C4.78438 8.78125 3.90938 10.0312 3.69063 11.5H1.65938C1.09688 11.5 0.659375 11.0625 0.659375 10.5V9.5C0.659375 8.40625 1.53438 7.5 2.65938 7.5H4.65938C5.19063 7.5 5.69063 7.75 6.06563 8.09375Z" fill="#4B5563" fill-opacity="0.3"/>
</svg>
