<svg width="18" height="18" viewBox="0 0 18 18" fill="none" xmlns="http://www.w3.org/2000/svg">
<path d="M10.0457 17.0057C9.56571 17.0914 9.07714 17.1429 8.57143 17.1429C3.85714 17.1429 0 13.2857 0 8.57143C0 3.85714 3.85714 0 8.57143 0C13.2857 0 17.1429 3.85714 17.1429 8.57143C17.1429 9.07714 17.0914 9.56571 17.0057 10.0457C16.2857 9.65143 15.4543 9.42857 14.5714 9.42857C13.4914 9.42857 12.4886 9.76286 11.6571 10.3371L9 8.74286V4.28571H7.71429V9.42857L10.6543 11.2371C9.89143 12.1371 9.42857 13.2857 9.42857 14.5714C9.42857 15.4543 9.65143 16.2857 10.0457 17.0057ZM13.7143 11.1429V13.7143H11.1429V15.4286H13.7143V18H15.4286V15.4286H18V13.7143H15.4286V11.1429H13.7143Z" fill="#1C2D5F"/>
</svg>
