<svg width="21" height="17" viewBox="0 0 21 17" fill="none" xmlns="http://www.w3.org/2000/svg">
<path d="M18.2109 2.66992H10.2109L8.80094 1.25992C8.42094 0.879922 7.91094 0.669922 7.38094 0.669922H2.21094C1.11094 0.669922 0.220937 1.56992 0.220937 2.66992L0.210938 14.6699C0.210938 15.7699 1.11094 16.6699 2.21094 16.6699H18.2109C19.3109 16.6699 20.2109 15.7699 20.2109 14.6699V4.66992C20.2109 3.56992 19.3109 2.66992 18.2109 2.66992ZM13.2109 5.66992C14.3109 5.66992 15.2109 6.56992 15.2109 7.66992C15.2109 8.76992 14.3109 9.66992 13.2109 9.66992C12.1109 9.66992 11.2109 8.76992 11.2109 7.66992C11.2109 6.56992 12.1109 5.66992 13.2109 5.66992ZM17.2109 13.6699H9.21094V12.6699C9.21094 11.3399 11.8809 10.6699 13.2109 10.6699C14.5409 10.6699 17.2109 11.3399 17.2109 12.6699V13.6699Z" fill="#4B5563"/>
</svg>
