<svg width="56" height="22" viewBox="0 0 56 22" fill="none" xmlns="http://www.w3.org/2000/svg">
<path d="M4.71777 6.00586C6.00749 6.00586 6.94857 6.27018 7.54102 6.79883C8.13346 7.32747 8.42969 8.06803 8.42969 9.02051C8.42969 9.45345 8.36133 9.86589 8.22461 10.2578C8.09245 10.6452 7.8737 10.9893 7.56836 11.29C7.26302 11.5863 6.8597 11.821 6.3584 11.9941C5.86165 12.1673 5.2487 12.2539 4.51953 12.2539H3.45312V16H1.8125V6.00586H4.71777ZM4.6084 7.36621H3.45312V10.8867H4.34863C4.86361 10.8867 5.30111 10.8275 5.66113 10.709C6.02116 10.5859 6.2946 10.3923 6.48145 10.1279C6.66829 9.86361 6.76172 9.51497 6.76172 9.08203C6.76172 8.50326 6.58626 8.07259 6.23535 7.79004C5.889 7.50749 5.34668 7.36621 4.6084 7.36621ZM14.0967 8.28906C14.2243 8.28906 14.3633 8.2959 14.5137 8.30957C14.6641 8.32324 14.7939 8.34147 14.9033 8.36426L14.7529 9.86816C14.6572 9.84082 14.5387 9.82031 14.3975 9.80664C14.2607 9.79297 14.1377 9.78613 14.0283 9.78613C13.7412 9.78613 13.4678 9.83398 13.208 9.92969C12.9482 10.0208 12.7181 10.1621 12.5176 10.3535C12.3171 10.5404 12.1598 10.7751 12.0459 11.0576C11.932 11.3402 11.875 11.6683 11.875 12.042V16H10.2617V8.43262H11.5195L11.7383 9.76562H11.8135C11.9639 9.49674 12.1507 9.25065 12.374 9.02734C12.5973 8.80404 12.8525 8.6263 13.1396 8.49414C13.4313 8.35742 13.7503 8.28906 14.0967 8.28906ZM23.0039 12.1992C23.0039 12.8281 22.9219 13.3864 22.7578 13.874C22.5938 14.3617 22.3545 14.7741 22.04 15.1113C21.7256 15.444 21.3473 15.6992 20.9053 15.877C20.4632 16.0501 19.9642 16.1367 19.4082 16.1367C18.8887 16.1367 18.4124 16.0501 17.9795 15.877C17.5465 15.6992 17.1706 15.444 16.8516 15.1113C16.5371 14.7741 16.2933 14.3617 16.1201 13.874C15.9469 13.3864 15.8604 12.8281 15.8604 12.1992C15.8604 11.3652 16.0039 10.6589 16.291 10.0801C16.5827 9.49674 16.9974 9.05241 17.5352 8.74707C18.0729 8.44173 18.7132 8.28906 19.4561 8.28906C20.1533 8.28906 20.7686 8.44173 21.3018 8.74707C21.835 9.05241 22.252 9.49674 22.5527 10.0801C22.8535 10.6634 23.0039 11.3698 23.0039 12.1992ZM17.5146 12.1992C17.5146 12.7507 17.5807 13.2223 17.7129 13.6143C17.8496 14.0062 18.0592 14.307 18.3418 14.5166C18.6243 14.7217 18.9889 14.8242 19.4355 14.8242C19.8822 14.8242 20.2467 14.7217 20.5293 14.5166C20.8118 14.307 21.0192 14.0062 21.1514 13.6143C21.2835 13.2223 21.3496 12.7507 21.3496 12.1992C21.3496 11.6478 21.2835 11.1807 21.1514 10.7979C21.0192 10.4105 20.8118 10.1165 20.5293 9.91602C20.2467 9.71094 19.8799 9.6084 19.4287 9.6084C18.7633 9.6084 18.278 9.83171 17.9727 10.2783C17.6673 10.7249 17.5146 11.3652 17.5146 12.1992ZM24.0908 19.3633C23.8538 19.3633 23.6283 19.3451 23.4141 19.3086C23.1999 19.2767 23.0199 19.238 22.874 19.1924V17.9072C23.029 17.9528 23.1794 17.987 23.3252 18.0098C23.471 18.0326 23.6374 18.0439 23.8242 18.0439C24.1204 18.0439 24.3643 17.9619 24.5557 17.7979C24.7516 17.6338 24.8496 17.3216 24.8496 16.8613V8.43262H26.4561V17.0049C26.4561 17.4652 26.374 17.873 26.21 18.2285C26.0505 18.584 25.7952 18.862 25.4443 19.0625C25.098 19.263 24.6468 19.3633 24.0908 19.3633ZM24.7539 6.41602C24.7539 6.09245 24.8405 5.86458 25.0137 5.73242C25.1914 5.60026 25.4079 5.53418 25.6631 5.53418C25.9092 5.53418 26.1211 5.60026 26.2988 5.73242C26.4811 5.86458 26.5723 6.09245 26.5723 6.41602C26.5723 6.73503 26.4811 6.96289 26.2988 7.09961C26.1211 7.23177 25.9092 7.29785 25.6631 7.29785C25.4079 7.29785 25.1914 7.23177 25.0137 7.09961C24.8405 6.96289 24.7539 6.73503 24.7539 6.41602ZM31.7744 8.28906C32.4489 8.28906 33.0277 8.42806 33.5107 8.70605C33.9938 8.98405 34.3652 9.37826 34.625 9.88867C34.8848 10.3991 35.0146 11.0098 35.0146 11.7207V12.582H29.9629C29.9811 13.3158 30.1771 13.8809 30.5508 14.2773C30.929 14.6738 31.4577 14.8721 32.1367 14.8721C32.6198 14.8721 33.0527 14.8265 33.4355 14.7354C33.8229 14.6396 34.2217 14.5007 34.6318 14.3184V15.624C34.2536 15.8018 33.8685 15.9316 33.4766 16.0137C33.0846 16.0957 32.6152 16.1367 32.0684 16.1367C31.3255 16.1367 30.6715 15.9932 30.1064 15.7061C29.5459 15.4144 29.1061 14.9814 28.7871 14.4072C28.4727 13.833 28.3154 13.1198 28.3154 12.2676C28.3154 11.4199 28.459 10.6999 28.7461 10.1074C29.0332 9.51497 29.4365 9.0638 29.9561 8.75391C30.4756 8.44401 31.0817 8.28906 31.7744 8.28906ZM31.7744 9.49902C31.2686 9.49902 30.8584 9.66309 30.5439 9.99121C30.234 10.3193 30.0518 10.8001 29.9971 11.4336H33.4424C33.4378 11.0553 33.374 10.7204 33.251 10.4287C33.1325 10.137 32.9502 9.90918 32.7041 9.74512C32.4626 9.58105 32.1527 9.49902 31.7744 9.49902ZM39.875 16.1367C39.1595 16.1367 38.5397 15.9977 38.0156 15.7197C37.4915 15.4417 37.0882 15.0156 36.8057 14.4414C36.5231 13.8672 36.3818 13.138 36.3818 12.2539C36.3818 11.3333 36.5368 10.5814 36.8467 9.99805C37.1566 9.41471 37.585 8.98405 38.1318 8.70605C38.6833 8.42806 39.3145 8.28906 40.0254 8.28906C40.4766 8.28906 40.8844 8.33464 41.249 8.42578C41.6182 8.51237 41.9303 8.61947 42.1855 8.74707L41.707 10.0322C41.429 9.91829 41.1442 9.82259 40.8525 9.74512C40.5609 9.66764 40.2806 9.62891 40.0117 9.62891C39.5697 9.62891 39.2005 9.72689 38.9043 9.92285C38.6126 10.1188 38.3939 10.4105 38.248 10.7979C38.1068 11.1852 38.0361 11.666 38.0361 12.2402C38.0361 12.7962 38.109 13.2656 38.2549 13.6484C38.4007 14.0267 38.6172 14.3138 38.9043 14.5098C39.1914 14.7012 39.5446 14.7969 39.9639 14.7969C40.3786 14.7969 40.75 14.7467 41.0781 14.6465C41.4062 14.5462 41.7161 14.4163 42.0078 14.2568V15.6514C41.7207 15.8154 41.4131 15.9362 41.085 16.0137C40.7568 16.0957 40.3535 16.1367 39.875 16.1367ZM46.6016 14.8379C46.8112 14.8379 47.0186 14.8197 47.2236 14.7832C47.4287 14.7422 47.6156 14.6943 47.7842 14.6396V15.8564C47.6064 15.9339 47.3763 16 47.0938 16.0547C46.8112 16.1094 46.5173 16.1367 46.2119 16.1367C45.7835 16.1367 45.3984 16.0661 45.0566 15.9248C44.7148 15.779 44.4437 15.5306 44.2432 15.1797C44.0426 14.8288 43.9424 14.3434 43.9424 13.7236V9.65625H42.9102V8.93848L44.0176 8.37109L44.5439 6.75098H45.5557V8.43262H47.7227V9.65625H45.5557V13.7031C45.5557 14.0859 45.6514 14.3708 45.8428 14.5576C46.0342 14.7445 46.2871 14.8379 46.6016 14.8379ZM54.4082 13.8398C54.4082 14.3366 54.2874 14.7559 54.0459 15.0977C53.8044 15.4395 53.4512 15.6992 52.9863 15.877C52.526 16.0501 51.9609 16.1367 51.291 16.1367C50.7624 16.1367 50.3066 16.098 49.9238 16.0205C49.5456 15.9476 49.1878 15.8337 48.8506 15.6787V14.291C49.2106 14.4596 49.6139 14.6055 50.0605 14.7285C50.5117 14.8516 50.9378 14.9131 51.3389 14.9131C51.8675 14.9131 52.248 14.8311 52.4805 14.667C52.7129 14.4984 52.8291 14.2751 52.8291 13.9971C52.8291 13.833 52.7812 13.6872 52.6855 13.5596C52.5944 13.4274 52.4212 13.293 52.166 13.1562C51.9154 13.015 51.5462 12.8464 51.0586 12.6504C50.5801 12.459 50.1768 12.2676 49.8486 12.0762C49.5205 11.8848 49.2721 11.6546 49.1035 11.3857C48.9349 11.1123 48.8506 10.7637 48.8506 10.3398C48.8506 9.66992 49.1149 9.16178 49.6436 8.81543C50.1768 8.46452 50.8809 8.28906 51.7559 8.28906C52.2207 8.28906 52.6582 8.33691 53.0684 8.43262C53.4831 8.52376 53.8887 8.6582 54.2852 8.83594L53.7793 10.0459C53.4375 9.89551 53.0934 9.77246 52.7471 9.67676C52.4053 9.5765 52.0566 9.52637 51.7012 9.52637C51.2865 9.52637 50.9697 9.59017 50.751 9.71777C50.5368 9.84538 50.4297 10.0277 50.4297 10.2646C50.4297 10.4424 50.4821 10.5928 50.5869 10.7158C50.6917 10.8389 50.8717 10.9619 51.127 11.085C51.3867 11.208 51.7467 11.3607 52.207 11.543C52.6582 11.7161 53.0479 11.8984 53.376 12.0898C53.7087 12.2767 53.9639 12.5068 54.1416 12.7803C54.3193 13.0537 54.4082 13.4069 54.4082 13.8398Z" fill="#212636"/>
</svg>
