<svg width="24" height="24" viewBox="0 0 24 24" fill="none" xmlns="http://www.w3.org/2000/svg">
<mask id="mask0_9010_119785" style="mask-type:alpha" maskUnits="userSpaceOnUse" x="0" y="0" width="24" height="24">
<rect width="24" height="24" fill="#152E75"/>
</mask>
<g mask="url(#mask0_9010_119785)">
<path d="M3.88368 21C3.33612 21 2.86739 20.8042 2.47746 20.4125C2.08754 20.0208 1.89258 19.55 1.89258 19V8C1.89258 7.45 2.08754 6.97917 2.47746 6.5875C2.86739 6.19583 3.33612 6 3.88368 6H7.86587V4C7.86587 3.45 8.06083 2.97917 8.45076 2.5875C8.84068 2.19583 9.30942 2 9.85697 2H13.8392C14.3867 2 14.8555 2.19583 15.2454 2.5875C15.6353 2.97917 15.8303 3.45 15.8303 4V6H19.8125C20.36 6 20.8287 6.19583 21.2187 6.5875C21.6086 6.97917 21.8036 7.45 21.8036 8V19C21.8036 19.55 21.6086 20.0208 21.2187 20.4125C20.8287 20.8042 20.36 21 19.8125 21H3.88368ZM9.85697 6H13.8392V4H9.85697V6Z" fill="#152E75"/>
</g>
<path d="M4.87868 16C3.78358 16 2.8461 15.6083 2.06625 14.825C1.28641 14.0417 0.896484 13.1 0.896484 12C0.896484 10.9 1.28641 9.95833 2.06625 9.175C2.8461 8.39167 3.78358 8 4.87868 8C5.97378 8 6.91126 8.39167 7.6911 9.175C8.47095 9.95833 8.86087 10.9 8.86087 12C8.86087 13.1 8.47095 14.0417 7.6911 14.825C6.91126 15.6083 5.97378 16 4.87868 16ZM16.8253 18C15.166 18 13.7557 17.4167 12.5942 16.25C11.4327 15.0833 10.852 13.6667 10.852 12C10.852 10.3333 11.4327 8.91667 12.5942 7.75C13.7557 6.58333 15.166 6 16.8253 6C18.4845 6 19.8949 6.58333 21.0563 7.75C22.2178 8.91667 22.7986 10.3333 22.7986 12C22.7986 13.6667 22.2178 15.0833 21.0563 16.25C19.8949 17.4167 18.4845 18 16.8253 18ZM16.8253 16C17.9204 16 18.8578 15.6083 19.6377 14.825C20.4175 14.0417 20.8075 13.1 20.8075 12C20.8075 10.9 20.4175 9.95833 19.6377 9.175C18.8578 8.39167 17.9204 8 16.8253 8C15.7302 8 14.7927 8.39167 14.0128 9.175C13.233 9.95833 12.8431 10.9 12.8431 12C12.8431 13.1 13.233 14.0417 14.0128 14.825C14.7927 15.6083 15.7302 16 16.8253 16Z" fill="#152E75"/>
</svg>
