<svg width="24" height="24" viewBox="0 0 24 24" fill="none" xmlns="http://www.w3.org/2000/svg">
<mask id="mask0_8925_111128" style="mask-type:alpha" maskUnits="userSpaceOnUse" x="0" y="0" width="24" height="24">
<rect width="24" height="24" fill="#D9D9D9"/>
</mask>
<g mask="url(#mask0_8925_111128)">
<path d="M4 21C3.45 21 2.97917 20.8042 2.5875 20.4125C2.19583 20.0208 2 19.55 2 19V8C2 7.45 2.19583 6.97917 2.5875 6.5875C2.97917 6.19583 3.45 6 4 6H8V4C8 3.45 8.19583 2.97917 8.5875 2.5875C8.97917 2.19583 9.45 2 10 2H14C14.55 2 15.0208 2.19583 15.4125 2.5875C15.8042 2.97917 16 3.45 16 4V6H20C20.55 6 21.0208 6.19583 21.4125 6.5875C21.8042 6.97917 22 7.45 22 8V19C22 19.55 21.8042 20.0208 21.4125 20.4125C21.0208 20.8042 20.55 21 20 21H4ZM10 6H14V4H10V6Z" fill="#4B5563"/>
</g>
<path d="M5 16C3.9 16 2.95833 15.6083 2.175 14.825C1.39167 14.0417 1 13.1 1 12C1 10.9 1.39167 9.95833 2.175 9.175C2.95833 8.39167 3.9 8 5 8C6.1 8 7.04167 8.39167 7.825 9.175C8.60833 9.95833 9 10.9 9 12C9 13.1 8.60833 14.0417 7.825 14.825C7.04167 15.6083 6.1 16 5 16ZM17 18C15.3333 18 13.9167 17.4167 12.75 16.25C11.5833 15.0833 11 13.6667 11 12C11 10.3333 11.5833 8.91667 12.75 7.75C13.9167 6.58333 15.3333 6 17 6C18.6667 6 20.0833 6.58333 21.25 7.75C22.4167 8.91667 23 10.3333 23 12C23 13.6667 22.4167 15.0833 21.25 16.25C20.0833 17.4167 18.6667 18 17 18ZM17 16C18.1 16 19.0417 15.6083 19.825 14.825C20.6083 14.0417 21 13.1 21 12C21 10.9 20.6083 9.95833 19.825 9.175C19.0417 8.39167 18.1 8 17 8C15.9 8 14.9583 8.39167 14.175 9.175C13.3917 9.95833 13 10.9 13 12C13 13.1 13.3917 14.0417 14.175 14.825C14.9583 15.6083 15.9 16 17 16Z" fill="#4B5563"/>
</svg>
