<svg width="21" height="19" viewBox="0 0 21 19" fill="none" xmlns="http://www.w3.org/2000/svg">
<path d="M7.50949 12.3577C11.4948 12.3577 14.8588 12.9911 14.8588 15.4404C14.8588 17.8877 11.4733 18.5 7.50949 18.5L7.23876 18.499C3.37299 18.4703 0.160156 17.8109 0.160156 15.4174C0.160156 12.97 3.54568 12.3577 7.50949 12.3577ZM13.7299 10.8832C15.2455 10.8545 16.8757 11.0586 17.4774 11.2023C18.7534 11.4466 19.5919 11.944 19.9393 12.6694C20.2338 13.2635 20.2338 13.9534 19.9393 14.5475C19.408 15.6705 17.6937 16.0318 17.0273 16.1247C16.8894 16.1439 16.7788 16.0289 16.7935 15.8928C17.134 12.7805 14.4265 11.3048 13.7259 10.9656C13.6966 10.9493 13.6897 10.9263 13.6927 10.911C13.6946 10.9014 13.7074 10.8861 13.7299 10.8832ZM7.50949 0.5C10.2091 0.5 12.3725 2.61865 12.3725 5.26241C12.3725 7.90617 10.2091 10.0248 7.50949 10.0248C4.81085 10.0248 2.64646 7.90617 2.64646 5.26241C2.64646 2.61865 4.81085 0.5 7.50949 0.5ZM13.994 1.29543C16.6017 1.29543 18.6487 3.69676 17.951 6.37118C17.4804 8.17362 15.7768 9.37045 13.8786 9.32158C13.6878 9.31774 13.5009 9.29954 13.3189 9.26983C13.1878 9.24683 13.1212 9.10214 13.1966 8.99482C13.9207 7.95131 14.3336 6.69506 14.3336 5.34875C14.3336 3.94206 13.8835 2.63216 13.0997 1.55607C13.0743 1.52253 13.0557 1.47174 13.0811 1.43246C13.1007 1.40179 13.1398 1.38454 13.176 1.37688C13.4402 1.32418 13.7113 1.29543 13.994 1.29543Z" fill="#596375"/>
</svg>
