<svg width="20" height="20" viewBox="0 0 20 20" fill="none" xmlns="http://www.w3.org/2000/svg">
<mask id="mask0_165_1396" style="mask-type:alpha" maskUnits="userSpaceOnUse" x="0" y="0" width="20" height="20">
<rect width="20" height="20" fill="#D9D9D9"/>
</mask>
<g mask="url(#mask0_165_1396)">
<path d="M9.99992 10C9.08325 10 8.29853 9.67362 7.64575 9.02084C6.99297 8.36807 6.66659 7.58334 6.66659 6.66668C6.66659 5.75001 6.99297 4.96529 7.64575 4.31251C8.29853 3.65973 9.08325 3.33334 9.99992 3.33334C10.9166 3.33334 11.7013 3.65973 12.3541 4.31251C13.0069 4.96529 13.3333 5.75001 13.3333 6.66668C13.3333 7.58334 13.0069 8.36807 12.3541 9.02084C11.7013 9.67362 10.9166 10 9.99992 10ZM3.33325 16.6667V14.3333C3.33325 13.8611 3.45478 13.4271 3.69784 13.0313C3.94089 12.6354 4.26381 12.3333 4.66659 12.125C5.5277 11.6945 6.4027 11.3715 7.29159 11.1563C8.18047 10.941 9.08325 10.8333 9.99992 10.8333C10.9166 10.8333 11.8194 10.941 12.7083 11.1563C13.5971 11.3715 14.4721 11.6945 15.3333 12.125C15.736 12.3333 16.0589 12.6354 16.302 13.0313C16.5451 13.4271 16.6666 13.8611 16.6666 14.3333V16.6667H3.33325Z" fill="#1C2D5F"/>
</g>
</svg>
