<svg width="36" height="38" viewBox="0 0 36 38" fill="none" xmlns="http://www.w3.org/2000/svg">
<g filter="url(#filter0_d_11800_51141)">
<g opacity="0.8">
<mask id="mask0_11800_51141" style="mask-type:alpha" maskUnits="userSpaceOnUse" x="9" y="5" width="25" height="25">
<rect x="9.40039" y="5.7002" width="24" height="24" fill="#D9D9D9"/>
</mask>
<g mask="url(#mask0_11800_51141)">
<path d="M16.4004 24.7002V22.7002H23.5004C24.5504 22.7002 25.4629 22.3669 26.2379 21.7002C27.0129 21.0335 27.4004 20.2002 27.4004 19.2002C27.4004 18.2002 27.0129 17.3669 26.2379 16.7002C25.4629 16.0335 24.5504 15.7002 23.5004 15.7002H17.2004L19.8004 18.3002L18.4004 19.7002L13.4004 14.7002L18.4004 9.7002L19.8004 11.1002L17.2004 13.7002H23.5004C25.1171 13.7002 26.5046 14.2252 27.6629 15.2752C28.8212 16.3252 29.4004 17.6335 29.4004 19.2002C29.4004 20.7669 28.8212 22.0752 27.6629 23.1252C26.5046 24.1752 25.1171 24.7002 23.5004 24.7002H16.4004Z" fill="#1C1B1F"/>
</g>
</g>
</g>
<defs>
<filter id="filter0_d_11800_51141" x="-1" y="0" width="38" height="38" filterUnits="userSpaceOnUse" color-interpolation-filters="sRGB">
<feFlood flood-opacity="0" result="BackgroundImageFix"/>
<feColorMatrix in="SourceAlpha" type="matrix" values="0 0 0 0 0 0 0 0 0 0 0 0 0 0 0 0 0 0 127 0" result="hardAlpha"/>
<feOffset dy="1"/>
<feGaussianBlur stdDeviation="0.5"/>
<feComposite in2="hardAlpha" operator="out"/>
<feColorMatrix type="matrix" values="0 0 0 0 0 0 0 0 0 0 0 0 0 0 0 0 0 0 0.25 0"/>
<feBlend mode="normal" in2="BackgroundImageFix" result="effect1_dropShadow_11800_51141"/>
<feBlend mode="normal" in="SourceGraphic" in2="effect1_dropShadow_11800_51141" result="shape"/>
</filter>
</defs>
</svg>
