<svg width="48" height="48" viewBox="0 0 48 48" fill="none" xmlns="http://www.w3.org/2000/svg">
<g id="arrow_circle_left" opacity="0.5">
<mask id="mask0_2452_18992" style="mask-type:alpha" maskUnits="userSpaceOnUse" x="0" y="0" width="48" height="48">
<rect id="Bounding box" width="48" height="48" transform="matrix(-1 0 0 1 48 0)" fill="#D9D9D9"/>
</mask>
<g mask="url(#mask0_2452_18992)">
<path id="arrow_circle_left_2" d="M24 31.3L21.9 29.2L25.6 25.5H16.5V22.5H25.6L21.9 18.8L24 16.7L31.3 24L24 31.3ZM24 44C26.7333 44 29.3167 43.475 31.75 42.425C34.1833 41.375 36.3083 39.9417 38.125 38.125C39.9417 36.3083 41.375 34.1833 42.425 31.75C43.475 29.3167 44 26.7333 44 24C44 21.2333 43.475 18.6333 42.425 16.2C41.375 13.7667 39.9417 11.65 38.125 9.85C36.3083 8.05 34.1833 6.625 31.75 5.575C29.3167 4.525 26.7333 4 24 4C21.2333 4 18.6333 4.525 16.2 5.575C13.7667 6.625 11.65 8.05 9.85 9.85C8.05 11.65 6.625 13.7667 5.575 16.2C4.525 18.6333 4 21.2333 4 24C4 26.7333 4.525 29.3167 5.575 31.75C6.625 34.1833 8.05 36.3083 9.85 38.125C11.65 39.9417 13.7667 41.375 16.2 42.425C18.6333 43.475 21.2333 44 24 44ZM24 41C19.2667 41 15.25 39.3417 11.95 36.025C8.65 32.7083 7 28.7 7 24C7 19.2667 8.65 15.25 11.95 11.95C15.25 8.65 19.2667 7 24 7C28.7 7 32.7083 8.65 36.025 11.95C39.3417 15.25 41 19.2667 41 24C41 28.7 39.3417 32.7083 36.025 36.025C32.7083 39.3417 28.7 41 24 41Z" fill="#1C2D5F"/>
</g>
</g>
</svg>
