<svg width="21" height="17" viewBox="0 0 21 17" fill="none" xmlns="http://www.w3.org/2000/svg">
<path d="M19.8273 12.0762C20.2336 12.4824 20.2336 13.1074 19.8273 13.5137L16.9523 16.3887C16.5461 16.7949 15.9211 16.7949 15.5148 16.3887L12.7023 13.5762C12.3273 13.2012 12.1086 12.7012 12.1086 12.1699V9.66992C12.1086 9.13867 12.5773 8.66992 13.1086 8.66992H15.6086C16.1398 8.66992 16.6398 8.88867 17.0148 9.26367L19.8273 12.0762ZM14.1086 11.4199C14.5461 11.4199 14.8586 11.1074 14.8586 10.6699C14.8586 10.2637 14.5461 9.91992 14.1086 9.91992C13.7023 9.91992 13.3586 10.2637 13.3586 10.6699C13.3586 11.1074 13.7023 11.4199 14.1086 11.4199ZM7.13984 8.66992C4.92109 8.66992 3.13984 6.88867 3.13984 4.66992C3.13984 2.48242 4.92109 0.669922 7.13984 0.669922C9.32734 0.669922 11.1398 2.48242 11.1398 4.66992C11.1398 6.88867 9.32734 8.66992 7.13984 8.66992ZM11.1086 12.1699C11.1086 12.9512 11.4211 13.7012 11.9836 14.2637L13.7961 16.0762C13.5461 16.4512 13.1086 16.6699 12.6398 16.6699H1.63984C0.796094 16.6699 0.139844 16.0137 0.139844 15.1699V13.8887C0.139844 11.5762 2.01484 9.66992 4.32734 9.66992H4.85859C5.54609 9.98242 6.32734 10.1699 7.13984 10.1699C7.95234 10.1699 8.70234 9.98242 9.38984 9.66992H9.92109C10.3273 9.66992 10.7336 9.76367 11.1086 9.85742V12.1699Z" fill="#4B5563"/>
</svg>
