<svg width="21" height="15" viewBox="0 0 21 15" fill="none" xmlns="http://www.w3.org/2000/svg">
<path d="M19.2717 10.3574L20.0842 10.8262C20.1779 10.8574 20.2092 10.9824 20.1779 11.0762C19.9592 11.7637 19.6154 12.3574 19.1467 12.8887C19.0842 12.9512 18.9592 12.9824 18.8654 12.9199L18.0529 12.4512C17.7092 12.7324 17.3342 12.9824 16.8967 13.1074V14.0449C16.8967 14.1699 16.8342 14.2637 16.7404 14.2637C16.0529 14.4199 15.3654 14.4199 14.6467 14.2637C14.5529 14.2637 14.4904 14.1699 14.4904 14.0449V13.1074C14.0529 12.9824 13.6779 12.7324 13.3342 12.4512L12.5217 12.9199C12.4279 12.9824 12.3029 12.9512 12.2404 12.8887C11.7717 12.3574 11.3967 11.7637 11.2092 11.0762C11.1779 10.9824 11.2092 10.8574 11.3029 10.8262L12.1154 10.3574C12.0217 9.91992 12.0217 9.45117 12.1154 9.01367L11.3029 8.54492C11.2092 8.51367 11.1779 8.38867 11.2092 8.29492C11.3967 7.60742 11.7717 7.01367 12.2404 6.48242C12.3029 6.41992 12.4279 6.38867 12.5217 6.45117L13.3342 6.91992C13.6779 6.63867 14.0529 6.38867 14.4904 6.26367V5.32617C14.4904 5.20117 14.5529 5.10742 14.6467 5.10742C15.3342 4.95117 16.0217 4.95117 16.7404 5.10742C16.8342 5.10742 16.8967 5.20117 16.8967 5.32617V6.26367C17.3342 6.38867 17.7092 6.63867 18.0529 6.91992L18.8654 6.45117C18.9592 6.38867 19.0842 6.41992 19.1467 6.48242C19.6154 7.01367 19.9592 7.60742 20.1779 8.29492C20.2092 8.38867 20.1779 8.51367 20.0842 8.54492L19.2717 9.01367C19.3654 9.45117 19.3654 9.91992 19.2717 10.3574ZM15.7092 11.2012C16.5217 11.2012 17.2092 10.5137 17.2092 9.66992C17.2092 8.85742 16.5217 8.16992 15.7092 8.16992C14.8654 8.16992 14.1779 8.85742 14.1779 9.66992C14.1779 10.5137 14.8654 11.2012 15.7092 11.2012ZM3.20918 6.66992C2.08418 6.66992 1.20918 5.79492 1.20918 4.66992C1.20918 3.57617 2.08418 2.66992 3.20918 2.66992C4.30293 2.66992 5.20918 3.57617 5.20918 4.66992C5.20918 5.79492 4.30293 6.66992 3.20918 6.66992ZM10.2092 7.66992C8.27168 7.66992 6.70918 6.10742 6.70918 4.16992C6.70918 2.26367 8.27168 0.701172 10.1779 0.701172C12.1154 0.701172 13.6779 2.26367 13.6779 4.20117C13.6779 4.73242 13.5529 5.23242 13.3342 5.70117C13.3029 5.70117 13.3029 5.70117 13.2717 5.73242L13.0217 5.57617C12.8342 5.48242 12.6154 5.41992 12.3967 5.41992C12.0529 5.41992 11.7404 5.57617 11.4904 5.82617C11.0217 6.35742 10.6154 6.98242 10.3654 7.66992C10.3029 7.66992 10.2404 7.66992 10.2092 7.66992ZM13.4904 13.7637V14.0449C13.4904 14.2949 13.5529 14.4824 13.6779 14.6699H5.70918C4.86543 14.6699 4.20918 14.0137 4.20918 13.1699V12.2949C4.20918 10.2949 5.80293 8.66992 7.80293 8.66992H8.05293C8.70918 8.98242 9.42793 9.16992 10.2092 9.16992C10.3029 9.16992 10.3967 9.16992 10.4904 9.16992C10.5842 9.26367 10.6779 9.35742 10.8029 9.41992L11.0529 9.57617C11.0529 9.63867 11.0529 9.73242 11.0529 9.79492C11.0217 9.82617 9.92793 10.2949 10.2404 11.3887C10.4904 12.1699 10.9279 12.9199 11.5217 13.5449C11.7404 13.7949 12.0842 13.9512 12.3967 13.9512C12.8029 13.9512 13.0217 13.7949 13.2717 13.6387C13.3342 13.6699 13.3967 13.7324 13.4904 13.7637ZM5.61543 8.26367C4.33418 8.95117 3.45918 10.2012 3.24043 11.6699H1.20918C0.64668 11.6699 0.20918 11.2324 0.20918 10.6699V9.66992C0.20918 8.57617 1.08418 7.66992 2.20918 7.66992H4.20918C4.74043 7.66992 5.24043 7.91992 5.61543 8.26367Z" fill="#4B5563"/>
</svg>
