<svg width="40" height="40" viewBox="0 0 40 40" fill="none" xmlns="http://www.w3.org/2000/svg">
<g filter="url(#filter0_d_10222_36421)">
<rect x="2" y="1" width="36" height="36" rx="6" fill="white" shape-rendering="crispEdges"/>
<rect x="1.5" y="0.5" width="37" height="37" rx="6.5" stroke="#E2E8F0" shape-rendering="crispEdges"/>
<g opacity="0.8">
<path d="M22.6667 12.2002C23.1063 12.2065 23.5256 12.3862 23.8333 12.7002L27 15.8669C27.314 16.1746 27.4937 16.5939 27.5 17.0335V25.5335C27.5 25.9756 27.3244 26.3995 27.0118 26.712C26.6993 27.0246 26.2754 27.2002 25.8333 27.2002H14.1667C13.7246 27.2002 13.3007 27.0246 12.9882 26.712C12.6756 26.3995 12.5 25.9756 12.5 25.5335V13.8669C12.5 13.4248 12.6756 13.0009 12.9882 12.6884C13.3007 12.3758 13.7246 12.2002 14.1667 12.2002H22.6667Z" stroke="#7E8794" stroke-width="1.66667" stroke-linecap="round" stroke-linejoin="round"/>
<path d="M24.1673 27.2004V21.367C24.1673 21.146 24.0795 20.934 23.9232 20.7778C23.767 20.6215 23.555 20.5337 23.334 20.5337H16.6673C16.4463 20.5337 16.2343 20.6215 16.0781 20.7778C15.9218 20.934 15.834 21.146 15.834 21.367V27.2004" stroke="#7E8794" stroke-width="1.66667" stroke-linecap="round" stroke-linejoin="round"/>
<path d="M15.834 12.2002V15.5335C15.834 15.7545 15.9218 15.9665 16.0781 16.1228C16.2343 16.2791 16.4463 16.3669 16.6673 16.3669H22.5007" stroke="#7E8794" stroke-width="1.66667" stroke-linecap="round" stroke-linejoin="round"/>
</g>
</g>
<defs>
<filter id="filter0_d_10222_36421" x="0" y="0" width="40" height="40" filterUnits="userSpaceOnUse" color-interpolation-filters="sRGB">
<feFlood flood-opacity="0" result="BackgroundImageFix"/>
<feColorMatrix in="SourceAlpha" type="matrix" values="0 0 0 0 0 0 0 0 0 0 0 0 0 0 0 0 0 0 127 0" result="hardAlpha"/>
<feOffset dy="1"/>
<feGaussianBlur stdDeviation="0.5"/>
<feComposite in2="hardAlpha" operator="out"/>
<feColorMatrix type="matrix" values="0 0 0 0 0 0 0 0 0 0 0 0 0 0 0 0 0 0 0.25 0"/>
<feBlend mode="normal" in2="BackgroundImageFix" result="effect1_dropShadow_10222_36421"/>
<feBlend mode="normal" in="SourceGraphic" in2="effect1_dropShadow_10222_36421" result="shape"/>
</filter>
</defs>
</svg>
