<svg width="24" height="25" viewBox="0 0 24 25" fill="none" xmlns="http://www.w3.org/2000/svg">
<g opacity="0.5">
<path d="M15.755 14.7559H14.965L14.685 14.4859C15.665 13.3459 16.255 11.8659 16.255 10.2559C16.255 6.66586 13.345 3.75586 9.755 3.75586C6.165 3.75586 3.255 6.66586 3.255 10.2559C3.255 13.8459 6.165 16.7559 9.755 16.7559C11.365 16.7559 12.845 16.1659 13.985 15.1859L14.255 15.4659V16.2559L19.255 21.2459L20.745 19.7559L15.755 14.7559ZM9.755 14.7559C7.26501 14.7559 5.255 12.7459 5.255 10.2559C5.255 7.76586 7.26501 5.75586 9.755 5.75586C12.245 5.75586 14.255 7.76586 14.255 10.2559C14.255 12.7459 12.245 14.7559 9.755 14.7559Z" fill="black" fill-opacity="0.56"/>
</g>
</svg>
