<svg width="25" height="24" viewBox="0 0 25 24" fill="none" xmlns="http://www.w3.org/2000/svg">
<path d="M20.0002 12C20.0002 11.77 19.9902 11.55 19.9702 11.32L21.8302 9.91C22.2302 9.61 22.3402 9.05 22.0902 8.61L20.2202 5.38C19.9702 4.94 19.4302 4.76 18.9702 4.96L16.8202 5.87C16.4502 5.61 16.0602 5.38 15.6502 5.19L15.3602 2.88C15.3002 2.38 14.8702 2 14.3702 2H10.6402C10.1302 2 9.70015 2.38 9.64015 2.88L9.35015 5.19C8.94015 5.38 8.55015 5.61 8.18015 5.87L6.03015 4.96C5.57015 4.76 5.03015 4.94 4.78015 5.38L2.91015 8.62C2.66015 9.06 2.77015 9.61 3.17015 9.92L5.03015 11.33C5.01015 11.55 5.00015 11.77 5.00015 12C5.00015 12.23 5.01015 12.45 5.03015 12.68L3.17015 14.09C2.77015 14.39 2.66015 14.95 2.91015 15.39L4.78015 18.62C5.03015 19.06 5.57015 19.24 6.03015 19.04L8.18015 18.13C8.55015 18.39 8.94015 18.62 9.35015 18.81L9.64015 21.12C9.70015 21.62 10.1302 22 10.6302 22H14.3602C14.8602 22 15.2902 21.62 15.3502 21.12L15.6402 18.81C16.0502 18.62 16.4402 18.39 16.8102 18.13L18.9602 19.04C19.4202 19.24 19.9602 19.06 20.2102 18.62L22.0802 15.39C22.3302 14.95 22.2202 14.4 21.8202 14.09L19.9602 12.68C19.9902 12.45 20.0002 12.23 20.0002 12ZM12.5402 15.5C10.6102 15.5 9.04015 13.93 9.04015 12C9.04015 10.07 10.6102 8.5 12.5402 8.5C14.4702 8.5 16.0402 10.07 16.0402 12C16.0402 13.93 14.4702 15.5 12.5402 15.5Z" fill="#95979E"/>
</svg>
