<svg width="25" height="24" viewBox="0 0 25 24" fill="none" xmlns="http://www.w3.org/2000/svg">
<path d="M2.5 12C2.5 8.25027 2.5 6.3754 3.45491 5.06107C3.76331 4.6366 4.1366 4.26331 4.56107 3.95491C5.8754 3 7.75027 3 11.5 3H13.5C17.2497 3 19.1246 3 20.4389 3.95491C20.8634 4.26331 21.2367 4.6366 21.5451 5.06107C22.5 6.3754 22.5 8.25027 22.5 12C22.5 15.7497 22.5 17.6246 21.5451 18.9389C21.2367 19.3634 20.8634 19.7367 20.4389 20.0451C19.1246 21 17.2497 21 13.5 21H11.5C7.75027 21 5.8754 21 4.56107 20.0451C4.1366 19.7367 3.76331 19.3634 3.45491 18.9389C2.5 17.6246 2.5 15.7497 2.5 12Z" stroke="#95979E" stroke-width="1.8" stroke-linejoin="round"/>
<path d="M10 3.5L10 20.5" stroke="#95979E" stroke-width="1.8" stroke-linejoin="round"/>
<path d="M5.5 7C5.5 7 6.41421 7 7 7" stroke="#95979E" stroke-width="1.8" stroke-linecap="round" stroke-linejoin="round"/>
<path d="M5.5 11H7" stroke="#95979E" stroke-width="1.8" stroke-linecap="round" stroke-linejoin="round"/>
<path d="M17.5 10L16.2735 11.0572C15.7578 11.5016 15.5 11.7239 15.5 12C15.5 12.2761 15.7578 12.4984 16.2735 12.9428L17.5 14" stroke="#95979E" stroke-width="1.8" stroke-linecap="round" stroke-linejoin="round"/>
</svg>
