<svg width="22" height="22" viewBox="0 0 22 22" fill="none" xmlns="http://www.w3.org/2000/svg">
<g clip-path="url(#clip0_5286_10232)">
<path d="M10.8333 3.00391C10.4835 3.00391 10.1371 3.07281 9.81386 3.20669C9.49065 3.34057 9.19698 3.5368 8.9496 3.78417C8.70223 4.03155 8.506 4.32523 8.37212 4.64844C8.23824 4.97165 8.16933 5.31806 8.16933 5.66791C8.16933 6.01775 8.23824 6.36416 8.37212 6.68738C8.506 7.01059 8.70223 7.30426 8.9496 7.55164C9.19698 7.79901 9.49065 7.99524 9.81386 8.12912C10.1371 8.263 10.4835 8.33191 10.8333 8.33191C11.5399 8.33191 12.2175 8.05124 12.7171 7.55164C13.2167 7.05204 13.4973 6.37444 13.4973 5.66791C13.4973 4.96137 13.2167 4.28377 12.7171 3.78417C12.2175 3.28458 11.5399 3.00391 10.8333 3.00391ZM16.8333 4.33457C16.3029 4.33457 15.7942 4.54529 15.4191 4.92036C15.044 5.29543 14.8333 5.80414 14.8333 6.33457C14.8333 6.86501 15.044 7.37371 15.4191 7.74879C15.7942 8.12386 16.3029 8.33457 16.8333 8.33457C17.3638 8.33457 17.8725 8.12386 18.2475 7.74879C18.6226 7.37371 18.8333 6.86501 18.8333 6.33457C18.8333 5.80414 18.6226 5.29543 18.2475 4.92036C17.8725 4.54529 17.3638 4.33457 16.8333 4.33457ZM4.83333 4.33457C4.3029 4.33457 3.79419 4.54529 3.41912 4.92036C3.04405 5.29543 2.83333 5.80414 2.83333 6.33457C2.83333 6.86501 3.04405 7.37371 3.41912 7.74879C3.79419 8.12386 4.3029 8.33457 4.83333 8.33457C5.36377 8.33457 5.87247 8.12386 6.24755 7.74879C6.62262 7.37371 6.83333 6.86501 6.83333 6.33457C6.83333 5.80414 6.62262 5.29543 6.24755 4.92036C5.87247 4.54529 5.36377 4.33457 4.83333 4.33457ZM6.83333 10.9919C6.8358 10.6399 6.97736 10.3032 7.22714 10.0551C7.47692 9.80709 7.81466 9.6679 8.16667 9.66791H11.2827C10.32 10.3446 9.53431 11.2431 8.99197 12.2874C8.44963 13.3317 8.16656 14.4912 8.16667 15.6679C8.16667 16.6239 8.34933 17.5372 8.68267 18.3746C8.11573 18.013 7.64908 17.5144 7.32584 16.9248C7.0026 16.3352 6.83322 15.6736 6.83333 15.0012V10.9919ZM5.5 11.0012C5.5 10.5146 5.62933 10.0599 5.85733 9.66791H2.83333C2.47971 9.66791 2.14057 9.80838 1.89052 10.0584C1.64048 10.3085 1.5 10.6476 1.5 11.0012V14.3346C1.49982 14.8803 1.63363 15.4178 1.8897 15.8997C2.14576 16.3816 2.51624 16.7933 2.96859 17.0986C3.42094 17.4039 3.94134 17.5935 4.48408 17.6507C5.02681 17.7078 5.57529 17.6309 6.08133 17.4266C5.69839 16.675 5.49916 15.8434 5.5 14.9999V11.0012ZM21.5 15.6679C21.5 17.2592 20.8679 18.7853 19.7426 19.9105C18.6174 21.0358 17.0913 21.6679 15.5 21.6679C13.9087 21.6679 12.3826 21.0358 11.2574 19.9105C10.1321 18.7853 9.5 17.2592 9.5 15.6679C9.5 14.0766 10.1321 12.5505 11.2574 11.4253C12.3826 10.3 13.9087 9.66791 15.5 9.66791C17.0913 9.66791 18.6174 10.3 19.7426 11.4253C20.8679 12.5505 21.5 14.0766 21.5 15.6679ZM17.972 14.1399C18.0972 14.0147 18.1675 13.8449 18.1675 13.6679C18.1675 13.4909 18.0972 13.3211 17.972 13.1959C17.8468 13.0707 17.677 13.0004 17.5 13.0004C17.323 13.0004 17.1532 13.0707 17.028 13.1959L15.5 14.7252L13.972 13.1959C13.8468 13.0707 13.677 13.0004 13.5 13.0004C13.323 13.0004 13.1532 13.0707 13.028 13.1959C12.9028 13.3211 12.8325 13.4909 12.8325 13.6679C12.8325 13.8449 12.9028 14.0147 13.028 14.1399L14.5573 15.6679L13.028 17.1959C12.9028 17.3211 12.8325 17.4909 12.8325 17.6679C12.8325 17.8449 12.9028 18.0147 13.028 18.1399C13.1532 18.2651 13.323 18.3354 13.5 18.3354C13.677 18.3354 13.8468 18.2651 13.972 18.1399L15.5 16.6106L17.028 18.1399C17.1532 18.2651 17.323 18.3354 17.5 18.3354C17.677 18.3354 17.8468 18.2651 17.972 18.1399C18.0972 18.0147 18.1675 17.8449 18.1675 17.6679C18.1675 17.4909 18.0972 17.3211 17.972 17.1959L16.4427 15.6679L17.972 14.1399Z" fill="#5D6979"/>
<rect x="12.1667" y="12.334" width="6.66667" height="6.66667" fill="#5D6979"/>
<path d="M15.7134 19V18.159C15.3601 18.1506 15.0441 18.1158 14.7652 18.0544C14.489 17.9902 14.2366 17.9052 14.0082 17.7992V16.6946C14.234 16.8089 14.5036 16.9135 14.817 17.0084C15.1304 17.1004 15.4292 17.1562 15.7134 17.1757V15.8787C15.2937 15.7057 14.9577 15.5384 14.7054 15.3766C14.4558 15.212 14.2751 15.0307 14.1636 14.8326C14.0547 14.6318 14.0002 14.3919 14.0002 14.113C14.0002 13.8285 14.072 13.583 14.2154 13.3766C14.3615 13.1674 14.5633 13 14.821 12.8745C15.0786 12.749 15.3761 12.6709 15.7134 12.6402V12H16.2592V12.6234C16.5673 12.6346 16.8542 12.6722 17.1198 12.7364C17.388 12.7978 17.651 12.8884 17.9086 13.0084L17.5341 13.9874C17.3163 13.8926 17.0972 13.8187 16.8767 13.7657C16.6589 13.7127 16.4531 13.6778 16.2592 13.6611V14.8954C16.554 15.0098 16.8342 15.1339 17.0998 15.2678C17.3655 15.4017 17.5819 15.5718 17.7492 15.7782C17.9166 15.9847 18.0002 16.2552 18.0002 16.59C18.0002 17.0056 17.8555 17.3543 17.566 17.636C17.2791 17.9177 16.8435 18.0865 16.2592 18.1423V19H15.7134ZM16.2592 17.1464C16.4451 17.113 16.5819 17.0558 16.6696 16.9749C16.7572 16.8912 16.801 16.7838 16.801 16.6527C16.801 16.5746 16.7811 16.5049 16.7413 16.4435C16.7014 16.3821 16.6404 16.325 16.558 16.272C16.4783 16.2162 16.3787 16.1604 16.2592 16.1046V17.1464ZM15.7134 14.6611V13.6778C15.6045 13.6946 15.5115 13.7225 15.4345 13.7615C15.3575 13.7978 15.299 13.8452 15.2592 13.9038C15.2194 13.9623 15.1994 14.0321 15.1994 14.113C15.1994 14.1939 15.2167 14.265 15.2512 14.3264C15.2884 14.3877 15.3442 14.4449 15.4186 14.4979C15.4956 14.5509 15.5939 14.6053 15.7134 14.6611Z" fill="white"/>
</g>
<defs>
<clipPath id="clip0_5286_10232">
<rect width="21.3333" height="21.3333" fill="white" transform="translate(0.166748 0.333984)"/>
</clipPath>
</defs>
</svg>
