<svg width="26" height="16" viewBox="0 0 26 16" fill="none" xmlns="http://www.w3.org/2000/svg">
<path d="M17.5455 6.85714C19.4318 6.85714 20.9432 5.32571 20.9432 3.42857C20.9432 1.53143 19.4318 0 17.5455 0C15.6591 0 14.1364 1.53143 14.1364 3.42857C14.1364 5.32571 15.6591 6.85714 17.5455 6.85714ZM8.45455 6.85714C10.3409 6.85714 11.8523 5.32571 11.8523 3.42857C11.8523 1.53143 10.3409 0 8.45455 0C6.56818 0 5.04545 1.53143 5.04545 3.42857C5.04545 5.32571 6.56818 6.85714 8.45455 6.85714ZM8.45455 9.14286C5.80682 9.14286 0.5 10.48 0.5 13.1429V16H16.4091V13.1429C16.4091 10.48 11.1023 9.14286 8.45455 9.14286ZM17.5455 9.14286C17.2159 9.14286 16.8409 9.16572 16.4432 9.2C17.7614 10.16 18.6818 11.4514 18.6818 13.1429V16H25.5V13.1429C25.5 10.48 20.1932 9.14286 17.5455 9.14286Z" fill="#5D6979"/>
</svg>
