<svg width="17" height="16" viewBox="0 0 17 16" fill="none" xmlns="http://www.w3.org/2000/svg">
<mask id="mask0_985_8025" style="mask-type:alpha" maskUnits="userSpaceOnUse" x="0" y="0" width="17" height="16">
<rect x="0.5" width="16" height="16" fill="#D9D9D9"/>
</mask>
<g mask="url(#mask0_985_8025)">
<path d="M0.5 13V11.075C0.5 10.6854 0.606061 10.3273 0.818182 10.0008C1.0303 9.67422 1.31212 9.425 1.66364 9.25313C2.41515 8.89792 3.17879 8.63151 3.95455 8.45391C4.7303 8.2763 5.51818 8.1875 6.31818 8.1875C7.11818 8.1875 7.90606 8.2763 8.68182 8.45391C9.45758 8.63151 10.2212 8.89792 10.9727 9.25313C11.3242 9.425 11.6061 9.67422 11.8182 10.0008C12.0303 10.3273 12.1364 10.6854 12.1364 11.075V13H0.5ZM13.5909 13V10.9375C13.5909 10.4333 13.4424 9.94922 13.1455 9.48516C12.8485 9.02109 12.4273 8.62292 11.8818 8.29063C12.5 8.35938 13.0818 8.47682 13.6273 8.64297C14.1727 8.80911 14.6818 9.0125 15.1545 9.25313C15.5909 9.48229 15.9242 9.73724 16.1545 10.018C16.3848 10.2987 16.5 10.6052 16.5 10.9375V13H13.5909ZM6.31818 7.5C5.51818 7.5 4.83333 7.23073 4.26364 6.69219C3.69394 6.15365 3.40909 5.50625 3.40909 4.75C3.40909 3.99375 3.69394 3.34635 4.26364 2.80781C4.83333 2.26927 5.51818 2 6.31818 2C7.11818 2 7.80303 2.26927 8.37273 2.80781C8.94242 3.34635 9.22727 3.99375 9.22727 4.75C9.22727 5.50625 8.94242 6.15365 8.37273 6.69219C7.80303 7.23073 7.11818 7.5 6.31818 7.5ZM13.5909 4.75C13.5909 5.50625 13.3061 6.15365 12.7364 6.69219C12.1667 7.23073 11.4818 7.5 10.6818 7.5C10.5485 7.5 10.3788 7.48568 10.1727 7.45703C9.96667 7.42839 9.79697 7.39688 9.66364 7.3625C9.99091 6.99583 10.2424 6.58906 10.4182 6.14219C10.5939 5.69531 10.6818 5.23125 10.6818 4.75C10.6818 4.26875 10.5939 3.80469 10.4182 3.35781C10.2424 2.91094 9.99091 2.50417 9.66364 2.1375C9.83333 2.08021 10.003 2.04297 10.1727 2.02578C10.3424 2.00859 10.5121 2 10.6818 2C11.4818 2 12.1667 2.26927 12.7364 2.80781C13.3061 3.34635 13.5909 3.99375 13.5909 4.75Z" fill="#344665"/>
</g>
</svg>
