<svg width="23" height="17" viewBox="0 0 23 17" fill="none" xmlns="http://www.w3.org/2000/svg">
<path d="M11.1092 11.0396C14.5404 11.0396 17.4701 11.5836 17.4701 13.7604C17.4701 15.9362 14.5592 16.5 11.1092 16.5C7.678 16.5 4.74824 15.956 4.74824 13.7802C4.74824 11.6034 7.6592 11.0396 11.1092 11.0396ZM16.5952 9.72888C17.907 9.70456 19.3173 9.88468 19.8384 10.0126C20.9424 10.2296 21.6686 10.6727 21.9694 11.3166C22.2237 11.8453 22.2237 12.4586 21.9694 12.9864C21.5092 13.9851 20.0255 14.3058 19.4489 14.3886C19.3298 14.4066 19.234 14.3031 19.2465 14.1833C19.5411 11.4157 17.1978 10.1035 16.5916 9.80183C16.5657 9.78832 16.5603 9.7676 16.563 9.755C16.5648 9.74599 16.5755 9.73158 16.5952 9.72888ZM5.72576 9.72924C5.74545 9.73194 5.7553 9.74635 5.75709 9.75446C5.75978 9.76796 5.75441 9.78778 5.72934 9.80219C5.12225 10.1039 2.77899 11.4161 3.07357 14.1827C3.08611 14.3034 2.9912 14.4061 2.87211 14.389C2.29547 14.3061 0.811786 13.9855 0.351549 12.9867C0.0963588 12.4581 0.0963588 11.8457 0.351549 11.317C0.652404 10.6731 1.37768 10.23 2.48171 10.012C3.00373 9.88504 4.4131 9.70492 5.72576 9.72924ZM11.1092 0.5C13.4453 0.5 15.3185 2.38227 15.3185 4.73285C15.3185 7.08253 13.4453 8.9666 11.1092 8.9666C8.77308 8.9666 6.8999 7.08253 6.8999 4.73285C6.8999 2.38227 8.77308 0.5 11.1092 0.5ZM16.8236 1.2059C19.08 1.2059 20.852 3.34123 20.2485 5.71974C19.8411 7.32102 18.3663 8.38463 16.7233 8.3414C16.5585 8.3369 16.3965 8.32159 16.2398 8.29457C16.126 8.27476 16.0687 8.14597 16.1332 8.05051C16.76 7.12288 17.1172 6.00703 17.1172 4.80922C17.1172 3.55918 16.7269 2.3938 16.049 1.43825C16.0275 1.40853 16.0114 1.3626 16.0329 1.32838C16.0508 1.30046 16.084 1.28605 16.1153 1.27884C16.3436 1.23201 16.5782 1.2059 16.8236 1.2059ZM5.49608 1.20581C5.74143 1.20581 5.97602 1.23192 6.20524 1.27875C6.23569 1.28596 6.26971 1.30127 6.28762 1.32829C6.30822 1.36251 6.29299 1.40844 6.2715 1.43816C5.59368 2.39371 5.20329 3.55909 5.20329 4.80913C5.20329 6.00694 5.56055 7.12279 6.18734 8.05042C6.2518 8.14588 6.1945 8.27467 6.08078 8.29448C5.92319 8.3224 5.76202 8.33681 5.59727 8.34131C3.9542 8.38454 2.47947 7.32093 2.07206 5.71965C1.46767 3.34114 3.23967 1.20581 5.49608 1.20581Z" fill="#596375"/>
</svg>
