<svg width="22" height="22" viewBox="0 0 22 22" fill="none" xmlns="http://www.w3.org/2000/svg">
<mask id="mask0_8867_107076" style="mask-type:alpha" maskUnits="userSpaceOnUse" x="0" y="0" width="22" height="22">
<rect width="22" height="22" fill="#D9D9D9"/>
</mask>
<g mask="url(#mask0_8867_107076)">
<path d="M10.9996 3.9165C13.1804 3.9165 15.1641 4.52392 16.9557 5.74072C18.7197 6.9388 20.0029 8.53782 20.8121 10.5415C20.0029 12.5452 18.7197 14.1442 16.9557 15.3423C15.1641 16.5591 13.1804 17.1665 10.9996 17.1665C8.819 17.1664 6.83605 16.559 5.04456 15.3423C3.28043 14.1442 1.9964 12.5453 1.18713 10.5415C1.9964 8.53767 3.28043 6.93886 5.04456 5.74072C6.83605 4.52403 8.819 3.91656 10.9996 3.9165ZM10.9996 5.24951C9.22693 5.24957 7.59592 5.71757 6.11194 6.65186C4.62898 7.58557 3.49371 8.84647 2.70959 10.4302L2.65393 10.5415L2.70959 10.6528C3.49371 12.2365 4.62898 13.4974 6.11194 14.4312C7.59592 15.3654 9.22693 15.8334 10.9996 15.8335C12.7726 15.8335 14.4042 15.3656 15.8883 14.4312C17.3713 13.4974 18.5065 12.2366 19.2906 10.6528L19.3453 10.5415L19.2906 10.4302C18.5065 8.84641 17.3713 7.58559 15.8883 6.65186C14.4042 5.71741 12.7726 5.24951 10.9996 5.24951ZM10.9996 6.6665C12.0798 6.6665 12.9901 7.04183 13.7448 7.79639C14.4994 8.55105 14.8746 9.46122 14.8746 10.5415C14.8746 11.6218 14.4994 12.532 13.7448 13.2866C12.9901 14.0412 12.0798 14.4165 10.9996 14.4165C9.91949 14.4164 9.00911 14.0412 8.25452 13.2866C7.49996 12.532 7.12463 11.6217 7.12463 10.5415C7.12463 9.4613 7.49996 8.55102 8.25452 7.79639C9.00911 7.0418 9.91949 6.66658 10.9996 6.6665ZM10.9996 7.81689C10.2467 7.81697 9.59854 8.08323 9.06995 8.61182C8.54139 9.14045 8.27502 9.78853 8.27502 10.5415C8.27502 11.2945 8.54139 11.9426 9.06995 12.4712C9.59854 12.9998 10.2467 13.266 10.9996 13.2661C11.7527 13.2661 12.4016 12.9999 12.9303 12.4712C13.4587 11.9426 13.7252 11.2944 13.7252 10.5415C13.7252 9.78861 13.4587 9.14042 12.9303 8.61182C12.4016 8.08315 11.7527 7.81689 10.9996 7.81689Z" fill="#757575" stroke="white" stroke-width="0.5"/>
</g>
</svg>
