<svg width="19" height="19" viewBox="0 0 19 19" fill="none" xmlns="http://www.w3.org/2000/svg">
<g id="Group">
<path id="Shape" d="M14.6631 14.3031C14.8827 14.1357 14.9251 13.822 14.7576 13.6024C14.5902 13.3828 14.2765 13.3404 14.0569 13.5078L14.36 13.9055L14.6631 14.3031ZM9.5 15.591V16.091L9.50817 16.0909L9.5 15.591ZM0.5 9.0455L0.0594222 8.80908C-0.0173948 8.95224 -0.0198694 9.12379 0.0527864 9.2691L0.5 9.0455ZM4.94345 4.58288C5.16292 4.41529 5.20498 4.10152 5.03739 3.88204C4.8698 3.66257 4.55602 3.62052 4.33655 3.78811L4.64 4.1855L4.94345 4.58288ZM7.66786 2.20956C7.39899 2.2725 7.23204 2.54149 7.29498 2.81036C7.35791 3.07924 7.6269 3.24618 7.89577 3.18324L7.78182 2.6964L7.66786 2.20956ZM9.5 2.50004L9.49883 3.00004H9.5V2.50004ZM18.5 9.0455L18.941 9.2812C19.0174 9.13817 19.0197 8.96695 18.9472 8.82189L18.5 9.0455ZM16.3501 11.3336C16.1724 11.5449 16.1995 11.8603 16.4108 12.0381C16.6221 12.2159 16.9375 12.1887 17.1153 11.9774L16.7327 11.6555L16.3501 11.3336ZM11.6004 11.1209C11.7886 10.9189 11.7774 10.6025 11.5754 10.4142C11.3734 10.226 11.057 10.2372 10.8687 10.4392L11.2345 10.78L11.6004 11.1209ZM8.10632 7.67676C8.30834 7.4885 8.31951 7.17212 8.13126 6.97009C7.94301 6.76806 7.62662 6.75689 7.42459 6.94514L7.76545 7.31095L8.10632 7.67676ZM14.36 13.9055L14.0569 13.5078C12.7432 14.5092 11.1435 15.064 9.49183 15.091L9.5 15.591L9.50817 16.0909C11.3732 16.0604 13.1796 15.4339 14.6631 14.3031L14.36 13.9055ZM9.5 15.591V15.091C6.83612 15.091 4.70912 13.5678 3.21704 11.9763C2.47556 11.1853 1.9055 10.3925 1.52087 9.79696C1.32887 9.49966 1.18389 9.25279 1.0876 9.08161C1.03947 8.99606 1.00357 8.92951 0.980091 8.88514C0.968354 8.86296 0.959728 8.84634 0.954238 8.83566C0.951494 8.83032 0.949534 8.82647 0.948362 8.82416C0.947776 8.823 0.947387 8.82223 0.947195 8.82185C0.9471 8.82166 0.947053 8.82157 0.947056 8.82157C0.947058 8.82158 0.947097 8.82166 0.947098 8.82166C0.947149 8.82176 0.947214 8.82189 0.5 9.0455C0.0527864 9.2691 0.0528755 9.26928 0.0529771 9.26948C0.0530276 9.26958 0.053142 9.26981 0.0532433 9.27001C0.053446 9.27042 0.053699 9.27092 0.0540023 9.27152C0.0546091 9.27273 0.0554171 9.27433 0.056426 9.27632C0.0584438 9.2803 0.0612654 9.28584 0.0648879 9.29289C0.0721326 9.30698 0.0825827 9.3271 0.0962138 9.35286C0.123473 9.40438 0.163474 9.47845 0.216023 9.57188C0.321085 9.75865 0.47653 10.0231 0.680833 10.3395C1.08882 10.9712 1.69489 11.8147 2.4875 12.6602C4.0636 14.3414 6.43661 16.091 9.5 16.091V15.591ZM0.5 9.0455L0.940578 9.28191C1.9246 7.4481 3.28941 5.84593 4.94345 4.58288L4.64 4.1855L4.33655 3.78811C2.56918 5.13769 1.11086 6.84963 0.0594222 8.80908L0.5 9.0455ZM7.78182 2.6964L7.89577 3.18324C8.42122 3.06025 8.95918 2.99877 9.49883 3.00004L9.5 2.50004L9.50117 2.00004C8.88402 1.99859 8.26878 2.0689 7.66786 2.20956L7.78182 2.6964ZM9.5 2.50004V3.00004C12.1639 3.00004 14.2909 4.52318 15.783 6.11474C16.5244 6.90565 17.0945 7.69848 17.4791 8.29403C17.6711 8.59133 17.8161 8.8382 17.9124 9.00938C17.9605 9.09493 17.9964 9.16148 18.0199 9.20585C18.0316 9.22803 18.0403 9.24465 18.0458 9.25533C18.0485 9.26067 18.0505 9.26452 18.0516 9.26683C18.0522 9.26799 18.0526 9.26876 18.0528 9.26914C18.0529 9.26933 18.0529 9.26942 18.0529 9.26942C18.0529 9.26941 18.0529 9.26933 18.0529 9.26933C18.0529 9.26923 18.0528 9.2691 18.5 9.0455C18.9472 8.82189 18.9471 8.82171 18.947 8.82151C18.947 8.82141 18.9469 8.82118 18.9468 8.82098C18.9466 8.82057 18.9463 8.82007 18.946 8.81947C18.9454 8.81826 18.9446 8.81666 18.9436 8.81467C18.9416 8.81069 18.9387 8.80515 18.9351 8.79811C18.9279 8.78401 18.9174 8.76389 18.9038 8.73813C18.8765 8.68661 18.8365 8.61254 18.784 8.51911C18.6789 8.33234 18.5235 8.06784 18.3192 7.7515C17.9112 7.11979 17.3051 6.27625 16.5125 5.4308C14.9364 3.74962 12.5634 2.00004 9.5 2.00004V2.50004ZM18.5 9.0455L18.059 8.80979C17.5788 9.70823 17.0061 10.5541 16.3501 11.3336L16.7327 11.6555L17.1153 11.9774C17.816 11.1447 18.4279 10.241 18.941 9.2812L18.5 9.0455ZM11.2345 10.78L10.8687 10.4392C10.3815 10.9621 9.64766 11.1773 8.95514 11.0005L8.83142 11.4849L8.7077 11.9694C9.75453 12.2367 10.8638 11.9114 11.6004 11.1209L11.2345 10.78ZM8.83142 11.4849L8.95514 11.0005C8.26262 10.8236 7.72186 10.2829 7.54501 9.59036L7.06056 9.71408L6.5761 9.8378C6.84345 10.8846 7.66087 11.702 8.7077 11.9694L8.83142 11.4849ZM7.06056 9.71408L7.54501 9.59036C7.36815 8.89784 7.5834 8.16401 8.10632 7.67676L7.76545 7.31095L7.42459 6.94514C6.63414 7.68169 6.30876 8.79097 6.5761 9.8378L7.06056 9.71408Z" fill="#757575"/>
<path id="Path" d="M0.5 0.5L18.5 18.5" stroke="#757575" stroke-linecap="round" stroke-linejoin="round"/>
</g>
</svg>
