<svg width="18" height="15" viewBox="0 0 18 15" fill="none" xmlns="http://www.w3.org/2000/svg">
<path d="M16.5586 12.8086C17.0508 13.6836 16.4219 14.75 15.4102 14.75H2.3125C1.30078 14.75 0.671875 13.6562 1.16406 12.8086L7.72656 1.40625C8.21875 0.53125 9.50391 0.558594 9.99609 1.40625L16.5586 12.8086ZM8.875 10.4297C8.16406 10.4297 7.61719 11.0039 7.61719 11.6875C7.61719 12.3984 8.16406 12.9453 8.875 12.9453C9.55859 12.9453 10.1328 12.3984 10.1328 11.6875C10.1328 11.0039 9.55859 10.4297 8.875 10.4297ZM7.67188 5.91797L7.86328 9.63672C7.89062 9.82812 8.02734 9.9375 8.19141 9.9375H9.53125C9.69531 9.9375 9.83203 9.82812 9.85938 9.63672L10.0508 5.91797C10.0781 5.72656 9.91406 5.5625 9.72266 5.5625H8C7.80859 5.5625 7.64453 5.72656 7.67188 5.91797Z" fill="#D97706"/>
</svg>
