<svg width="78" height="32" viewBox="0 0 78 32" fill="none" xmlns="http://www.w3.org/2000/svg">
<rect width="78" height="32" rx="4" fill="#1C2D5F" fill-opacity="0.02"/>
<rect x="0.5" y="0.5" width="77" height="31" rx="3.5" stroke="#1C2D5F" stroke-opacity="0.1"/>
<path d="M21.813 11.7197L19.3311 21H18.2456L16.4048 14.7539C16.3498 14.5762 16.2969 14.3984 16.2461 14.2207C16.1995 14.0387 16.1551 13.8674 16.1128 13.7065C16.0705 13.5415 16.0345 13.3976 16.0049 13.2749C15.9795 13.1479 15.9604 13.0527 15.9478 12.9893C15.9393 13.0527 15.9224 13.1458 15.897 13.2686C15.8758 13.3913 15.8462 13.533 15.8081 13.6938C15.7743 13.8547 15.7319 14.026 15.6812 14.208C15.6346 14.39 15.5838 14.5741 15.5288 14.7603L13.7388 21H12.6533L10.1904 11.7197H11.314L12.8057 17.5405C12.8564 17.7352 12.903 17.9277 12.9453 18.1182C12.9919 18.3044 13.0321 18.4863 13.0659 18.6641C13.104 18.8418 13.1379 19.0153 13.1675 19.1846C13.1971 19.3538 13.2246 19.5189 13.25 19.6797C13.2712 19.5146 13.2987 19.3433 13.3325 19.1655C13.3664 18.9836 13.4023 18.7995 13.4404 18.6133C13.4827 18.4271 13.5272 18.2388 13.5737 18.0483C13.6245 17.8579 13.6774 17.6675 13.7324 17.4771L15.4019 11.7197H16.5127L18.252 17.5215C18.3112 17.7204 18.3662 17.9172 18.417 18.1118C18.4678 18.3065 18.5122 18.4969 18.5503 18.6831C18.5926 18.8651 18.6286 19.0407 18.6582 19.21C18.6921 19.375 18.7217 19.5316 18.7471 19.6797C18.7767 19.4723 18.8127 19.2544 18.855 19.0259C18.8973 18.7974 18.946 18.5583 19.001 18.3086C19.0602 18.0589 19.1237 17.8008 19.1914 17.5342L20.6831 11.7197H21.813ZM25.7993 13.916C26.3918 13.916 26.8996 14.0472 27.3228 14.3096C27.7459 14.5719 28.0697 14.9401 28.2939 15.4141C28.5182 15.8838 28.6304 16.4339 28.6304 17.0645V17.7183H23.8252C23.8379 18.535 24.041 19.1571 24.4346 19.5845C24.8281 20.0119 25.3825 20.2256 26.0977 20.2256C26.5378 20.2256 26.9271 20.1854 27.2656 20.105C27.6042 20.0246 27.9554 19.9061 28.3193 19.7495V20.6763C27.9681 20.8328 27.619 20.9471 27.272 21.019C26.9292 21.091 26.5229 21.127 26.0532 21.127C25.3846 21.127 24.8006 20.9915 24.3013 20.7207C23.8062 20.4456 23.4211 20.0436 23.146 19.5146C22.8709 18.9857 22.7334 18.3382 22.7334 17.5723C22.7334 16.8232 22.8582 16.1758 23.1079 15.6299C23.3618 15.0798 23.7173 14.6566 24.1743 14.3604C24.6356 14.0641 25.1772 13.916 25.7993 13.916ZM25.7866 14.7793C25.2238 14.7793 24.7752 14.9634 24.4409 15.3315C24.1066 15.6997 23.9077 16.2139 23.8442 16.874H27.5259C27.5216 16.4593 27.4561 16.0954 27.3291 15.7822C27.2064 15.4648 27.0181 15.2194 26.7642 15.0459C26.5103 14.8682 26.1844 14.7793 25.7866 14.7793ZM33.0991 13.916C33.6916 13.916 34.1994 14.0472 34.6226 14.3096C35.0457 14.5719 35.3695 14.9401 35.5938 15.4141C35.818 15.8838 35.9302 16.4339 35.9302 17.0645V17.7183H31.125C31.1377 18.535 31.3408 19.1571 31.7344 19.5845C32.1279 20.0119 32.6823 20.2256 33.3975 20.2256C33.8376 20.2256 34.2269 20.1854 34.5654 20.105C34.904 20.0246 35.2552 19.9061 35.6191 19.7495V20.6763C35.2679 20.8328 34.9188 20.9471 34.5718 21.019C34.229 21.091 33.8228 21.127 33.353 21.127C32.6844 21.127 32.1004 20.9915 31.6011 20.7207C31.106 20.4456 30.7209 20.0436 30.4458 19.5146C30.1707 18.9857 30.0332 18.3382 30.0332 17.5723C30.0332 16.8232 30.158 16.1758 30.4077 15.6299C30.6616 15.0798 31.0171 14.6566 31.4741 14.3604C31.9354 14.0641 32.4771 13.916 33.0991 13.916ZM33.0864 14.7793C32.5236 14.7793 32.075 14.9634 31.7407 15.3315C31.4064 15.6997 31.2075 16.2139 31.144 16.874H34.8257C34.8215 16.4593 34.7559 16.0954 34.6289 15.7822C34.5062 15.4648 34.3179 15.2194 34.064 15.0459C33.8101 14.8682 33.4842 14.7793 33.0864 14.7793ZM38.7676 11.123V16.252C38.7676 16.4212 38.7612 16.6286 38.7485 16.874C38.7358 17.1152 38.7253 17.3289 38.7168 17.5151H38.7612C38.8501 17.4051 38.9792 17.2422 39.1484 17.0264C39.3219 16.8105 39.4679 16.637 39.5864 16.5059L41.897 14.043H43.1348L40.3354 17.0137L43.3379 21H42.0684L39.6118 17.7056L38.7676 18.48V21H37.7202V11.123H38.7676Z" fill="#344665"/>
<path d="M64.4425 13.2212L61 16.6562L57.5575 13.2212L56.5 14.2787L61 18.7787L65.5 14.2787L64.4425 13.2212Z" fill="#344665"/>
</svg>
